<?xml version="1.0" encoding="UTF-8" standalone="no"?>
<svg
   xmlns:svg="http://www.w3.org/2000/svg"
   xmlns="http://www.w3.org/2000/svg"
   xmlns:sodipodi="http://sodipodi.sourceforge.net/DTD/sodipodi-0.dtd"
   xmlns:inkscape="http://www.inkscape.org/namespaces/inkscape"
   inkscape:version="1.1-dev (48d18c81, 2020-07-08)"
   sodipodi:docname="hyperparameters.svg"
   viewBox="0 0 624 528"
   height="528"
   width="624"
   xml:space="preserve"
   id="svg823"
   version="1.1"><defs
     id="defs827"><clipPath
       id="clipPath857"
       clipPathUnits="userSpaceOnUse"><path
         id="path855"
         d="M 0,264 H 234 V 396 H 0 Z" /></clipPath><clipPath
       id="clipPath869"
       clipPathUnits="userSpaceOnUse"><path
         id="path867"
         d="m 21.53,293.86 h 206.99 v 81.89 H 21.53 Z" /></clipPath><clipPath
       id="clipPath1149"
       clipPathUnits="userSpaceOnUse"><path
         id="path1147"
         d="M 234,264 H 468 V 396 H 234 Z" /></clipPath><clipPath
       id="clipPath1161"
       clipPathUnits="userSpaceOnUse"><path
         id="path1159"
         d="m 259.98,293.86 h 202.54 v 81.89 H 259.98 Z" /></clipPath><clipPath
       id="clipPath1429"
       clipPathUnits="userSpaceOnUse"><path
         id="path1427"
         d="M 0,132 H 234 V 264 H 0 Z" /></clipPath><clipPath
       id="clipPath1441"
       clipPathUnits="userSpaceOnUse"><path
         id="path1439"
         d="m 21.53,161.86 h 206.99 v 81.89 H 21.53 Z" /></clipPath><clipPath
       id="clipPath1629"
       clipPathUnits="userSpaceOnUse"><path
         id="path1627"
         d="M 234,132 H 468 V 264 H 234 Z" /></clipPath><clipPath
       id="clipPath1641"
       clipPathUnits="userSpaceOnUse"><path
         id="path1639"
         d="m 255.53,161.86 h 206.99 v 81.89 H 255.53 Z" /></clipPath><clipPath
       id="clipPath1825"
       clipPathUnits="userSpaceOnUse"><path
         id="path1823"
         d="M 0,0 H 234 V 132 H 0 Z" /></clipPath><clipPath
       id="clipPath1837"
       clipPathUnits="userSpaceOnUse"><path
         id="path1835"
         d="m 19.31,29.86 h 209.21 v 81.89 H 19.31 Z" /></clipPath></defs><sodipodi:namedview
     inkscape:current-layer="g829"
     inkscape:window-maximized="0"
     inkscape:window-y="23"
     inkscape:window-x="0"
     inkscape:cy="174.17617"
     inkscape:cx="231.62694"
     inkscape:zoom="1.0965909"
     showgrid="false"
     id="namedview825"
     inkscape:window-height="776"
     inkscape:window-width="1440"
     inkscape:pageshadow="2"
     inkscape:pageopacity="0"
     guidetolerance="10"
     gridtolerance="10"
     objecttolerance="10"
     borderopacity="1"
     bordercolor="#666666"
     pagecolor="#ffffff" /><g
     transform="matrix(1.3333333,0,0,-1.3333333,0,528)"
     inkscape:label="hyperparameters"
     inkscape:groupmode="layer"
     id="g829"><g
       id="g831" /><g
       id="g833" /><g
       id="g835" /><g
       id="g837" /><g
       id="g839" /><g
       id="g841" /><g
       id="g843" /><g
       id="g845" /><g
       id="g847" /><g
       id="g849" /><g
       id="g851"><g
         clip-path="url(#clipPath857)"
         id="g853"><path
           id="path859"
           style="fill:#ffffff;fill-opacity:1;fill-rule:nonzero;stroke:#ffffff;stroke-width:1.07;stroke-linecap:round;stroke-linejoin:round;stroke-miterlimit:10;stroke-dasharray:none;stroke-opacity:1"
           d="M 0,264 H 234 V 396 H 0 Z" /></g></g><g
       id="g861" /><g
       id="g863"><g
         clip-path="url(#clipPath869)"
         id="g865"><path
           id="path871"
           style="fill:#ffffff;fill-opacity:1;fill-rule:nonzero;stroke:none"
           d="m 21.53,293.86 h 206.99 v 81.89 H 21.53 Z" /><path
           id="path873"
           style="fill:none;stroke:#e6ab02;stroke-width:1.07;stroke-linecap:butt;stroke-linejoin:round;stroke-miterlimit:10;stroke-dasharray:none;stroke-opacity:1"
           d="m 30.94,297.59 h 0.37 0.37 0.36 0.37 0.37 0.37 0.37 0.37 0.36 0.37 0.37 0.37 0.37 0.36 0.37 0.37 0.37 0.37 0.37 l 0.36,0.01 h 0.37 l 0.37,0.01 0.37,0.01 0.37,0.01 0.37,0.01 0.36,0.01 0.37,0.02 0.37,0.03 0.37,0.03 0.37,0.03 0.37,0.05 0.36,0.05 0.37,0.06 0.37,0.07 0.37,0.08 0.37,0.1 0.36,0.11 0.37,0.12 0.37,0.14 0.37,0.15 0.37,0.18 0.37,0.18 0.36,0.2 0.37,0.23 0.37,0.23 0.37,0.25 0.37,0.27 0.37,0.28 0.36,0.29 0.37,0.3 0.37,0.32 0.37,0.32 0.37,0.33 0.36,0.35 0.37,0.34 0.37,0.36 0.37,0.36 0.37,0.36 0.37,0.37 0.36,0.38 0.37,0.38 0.37,0.39 0.37,0.39 0.37,0.39 0.37,0.39 0.36,0.4 0.37,0.39 0.37,0.4 0.37,0.4 0.37,0.4 0.36,0.4 0.37,0.4 0.37,0.39 0.37,0.4 0.37,0.4 0.37,0.39 0.36,0.39 0.37,0.39 0.37,0.39 0.37,0.38 0.37,0.37 0.37,0.36 0.36,0.35 0.37,0.33 0.37,0.31 0.37,0.29 0.37,0.26 0.36,0.24 0.37,0.21 0.37,0.18 0.37,0.16 0.37,0.12 0.37,0.1 0.36,0.06 0.37,0.04 0.37,0.02 0.37,-0.01 0.37,-0.03 0.37,-0.06 0.36,-0.07 0.37,-0.1 0.37,-0.13 0.37,-0.14 0.37,-0.16 0.37,-0.19 0.36,-0.2 0.37,-0.23 0.37,-0.23 0.37,-0.26 0.37,-0.26 0.36,-0.28 0.37,-0.27 0.37,-0.28 0.37,-0.28 0.37,-0.28 0.37,-0.27 0.36,-0.26 0.37,-0.25 0.37,-0.23 0.37,-0.23 0.37,-0.22 0.37,-0.2 0.36,-0.2 0.37,-0.18 0.37,-0.18 0.37,-0.17 0.37,-0.15 0.36,-0.15 0.37,-0.14 0.37,-0.13 0.37,-0.12 0.37,-0.11 0.37,-0.1 0.36,-0.09 0.37,-0.08 0.37,-0.07 0.37,-0.07 0.37,-0.06 0.37,-0.05 0.36,-0.06 0.37,-0.06 0.37,-0.06 0.37,-0.08 0.37,-0.09 0.36,-0.1 0.37,-0.13 0.37,-0.14 0.37,-0.16 0.37,-0.17 0.37,-0.2 0.36,-0.22 0.37,-0.24 0.37,-0.24 0.37,-0.26 0.37,-0.26 0.37,-0.26 0.36,-0.27 0.37,-0.26 0.37,-0.25 0.37,-0.24 0.37,-0.23 0.36,-0.22 0.37,-0.2 0.37,-0.18 0.37,-0.16 0.37,-0.15 0.37,-0.12 0.36,-0.11 0.37,-0.1 0.37,-0.08 0.37,-0.06 0.37,-0.06 0.37,-0.04 0.36,-0.04 0.37,-0.03 0.37,-0.02 0.37,-0.03 0.37,-0.02 0.37,-0.02 0.36,-0.02 0.37,-0.03 0.37,-0.03 0.37,-0.03 0.37,-0.04 0.36,-0.05 0.37,-0.05 0.37,-0.06 0.37,-0.06 0.37,-0.06 0.37,-0.07 0.36,-0.07 0.37,-0.08 0.37,-0.07 0.37,-0.08 0.37,-0.07 0.37,-0.08 0.36,-0.07 0.37,-0.07 0.37,-0.06 0.37,-0.06 0.37,-0.06 0.36,-0.05 0.37,-0.04 0.37,-0.05 0.37,-0.04 0.37,-0.04 0.37,-0.03 0.36,-0.04 0.37,-0.03 0.37,-0.04 0.37,-0.04 0.37,-0.04 0.37,-0.04 0.36,-0.05 0.37,-0.05 0.37,-0.05 0.37,-0.06 0.37,-0.07 0.36,-0.06 0.37,-0.08 0.37,-0.07 0.37,-0.07 0.37,-0.08 0.37,-0.08 0.36,-0.08 0.37,-0.08 0.37,-0.07 0.37,-0.08 0.37,-0.07 0.37,-0.07 0.36,-0.06 0.37,-0.06 0.37,-0.06 0.37,-0.06 0.37,-0.05 0.37,-0.05 0.36,-0.05 0.37,-0.05 0.37,-0.04 0.37,-0.05 0.37,-0.04 0.36,-0.04 0.37,-0.04 0.37,-0.04 0.37,-0.04 0.37,-0.04 0.37,-0.04 0.36,-0.03 0.37,-0.04 0.37,-0.03 0.37,-0.03 0.37,-0.03 0.37,-0.02 0.36,-0.03 0.37,-0.02 0.37,-0.02 0.37,-0.02 0.37,-0.01 0.36,-0.02 0.37,-0.01 0.37,-0.02 0.37,-0.01 0.37,-0.01 0.37,-0.02 0.36,-0.02 0.37,-0.01 0.37,-0.02 0.37,-0.02 0.37,-0.03 0.37,-0.02 0.36,-0.03 0.37,-0.03 0.37,-0.03 0.37,-0.03 0.37,-0.04 0.36,-0.03 0.37,-0.04 0.37,-0.03 0.37,-0.04 0.37,-0.04 0.37,-0.03 0.36,-0.04 0.37,-0.03 0.37,-0.03 0.37,-0.04 0.37,-0.02 0.37,-0.03 0.36,-0.03 0.37,-0.02 0.37,-0.02 0.37,-0.01 0.37,-0.02 0.36,-0.01 0.37,-0.01 0.37,-0.01 h 0.37 l 0.37,-0.01 h 0.37 0.36 l 0.37,-0.01 h 0.37 l 0.37,-0.01 h 0.37 l 0.37,-0.01 h 0.36 l 0.37,-0.01 0.37,-0.01 0.37,-0.01 0.37,-0.02 0.37,-0.01 0.36,-0.02 0.37,-0.01 0.37,-0.02 0.37,-0.02 0.37,-0.01 0.36,-0.02 0.37,-0.02 0.37,-0.01 0.37,-0.02 0.37,-0.01 0.37,-0.02 0.36,-0.01 0.37,-0.01 0.37,-0.01 0.37,-0.01 0.37,-0.01 h 0.37 l 0.36,-0.01 h 0.37 0.37 l 0.37,-0.01 h 0.37 0.36 0.37 0.37 l 0.37,0.01 h 0.37 0.37 0.36 l 0.37,0.01 h 0.37 0.37 0.37 l 0.37,0.01 h 0.36 0.37 l 0.37,-0.01 h 0.37 0.37 l 0.36,-0.01 h 0.37 l 0.37,-0.01 0.37,-0.01 0.37,-0.01 0.37,-0.01 0.36,-0.01 0.37,-0.01 0.37,-0.01 0.37,-0.01 0.37,-0.01 0.37,-0.01 h 0.36 l 0.37,-0.01 0.37,-0.01 h 0.37 0.37 0.36 l 0.37,-0.01 h 0.37 0.37 0.37 0.37 l 0.36,0.01 h 0.37 0.37 0.37 0.37 0.37 0.36 0.37 l 0.37,-0.01 h 0.37 0.37 0.37 l 0.36,-0.01 h 0.37 l 0.37,-0.01 h 0.37 l 0.37,-0.01 h 0.36 l 0.37,-0.01 h 0.37 0.37 l 0.37,-0.01 h 0.37 0.36 l 0.37,-0.01 h 0.37 0.37 0.37 0.37 0.36 l 0.37,0.01 h 0.37 0.37 0.37 0.36 l 0.37,0.01 h 0.37 0.37 0.37 0.37 0.36 0.37 0.37 l 0.37,-0.01 h 0.37 0.37 0.36 l 0.37,-0.01 h 0.37 l 0.37,-0.01 h 0.37 0.36 l 0.37,-0.01 h 0.37 0.37 0.37 l 0.37,-0.01 h 0.36 0.37 0.37 0.37 0.37 0.37 0.36 0.37 0.37 0.37 0.37 0.36 0.37 0.37 0.37 0.37 0.37 0.36 0.37 0.37 0.37 0.37 0.37 0.36 0.37 0.37 0.37 0.37 0.37 0.36 0.37 0.37 0.37 0.37 0.36 0.37 0.37 0.37 0.37 0.37 0.36 0.37 0.37 0.37 0.37 0.37 0.36 0.37 0.37 0.37 0.37 0.36 0.37 0.37 0.37 0.37 0.37 0.36 0.37 0.37 0.37 0.37 0.37 0.36 0.37 0.37 0.37 0.37 0.36 l 0.37,0.01 h 0.37 0.37 0.37 0.37 l 0.36,0.01 h 0.37 0.37 0.37 0.37 0.37 0.36 0.37" /><path
           id="path875"
           style="fill:none;stroke:#525252;stroke-width:1.07;stroke-linecap:butt;stroke-linejoin:round;stroke-miterlimit:10;stroke-dasharray:none;stroke-opacity:1"
           d="m 30.94,298.89 0.37,7.79 0.37,28.43 0.36,58.39 0.01,2.5" /><path
           id="path877"
           style="fill:none;stroke:#525252;stroke-width:1.07;stroke-linecap:butt;stroke-linejoin:round;stroke-miterlimit:10;stroke-dasharray:none;stroke-opacity:1"
           d="m 34.48,396 0.14,-44.43 0.37,-36.2 0.37,-10.81 0.37,-6.22 0.36,-0.75 h 0.37 0.37 0.37 0.37 0.37 0.36 0.37 0.37 0.37 0.37 0.37 0.36 0.37 0.37 0.37 0.37 0.37 0.36 0.37 0.37 0.37 0.37 0.36 0.37 0.37 0.37 0.37 0.37 0.36 0.37 0.37 0.37 0.37 0.37 0.36 0.37 0.37 0.37 0.37 0.36 0.37 0.37 0.37 0.37 0.37 0.36 0.37 0.37 0.37 0.37 0.37 0.36 0.37 0.37 0.37 0.37 0.36 0.37 0.37 0.37 0.37 0.37 0.36 0.37 0.37 0.37 0.37 0.37 0.36 0.37 0.37 0.37 0.37 0.36 0.37 0.37 0.37 0.37 0.37 0.36 0.37 0.37 0.37 0.37 0.37 0.36 0.37 0.37 0.37 0.37 0.37 0.36 0.37 0.37 0.37 0.37 0.36 0.37 0.37 0.37 0.37 0.37 0.36 0.37 0.37 0.37 0.37 0.37 0.36 0.37 0.37 0.37 0.37 0.36 0.37 0.37 0.37 0.37 0.37 0.36 0.37 0.37 0.37 0.37 0.37 0.36 0.37 0.37 0.37 0.37 0.36 0.37 0.37 0.37 0.37 0.37 0.36 0.37 0.37 0.37 0.37 0.37 0.36 0.37 0.37 0.37 0.37 0.36 0.37 0.37 0.37 0.37 0.37 0.36 0.37 0.37 0.37 0.37 0.37 0.36 0.37 0.37 0.37 0.37 0.37 0.36 0.37 0.37 0.37 0.37 0.36 0.37 0.37 0.37 0.37 0.37 0.36 0.37 0.37 0.37 0.37 0.37 0.36 0.37 0.37 0.37 0.37 0.36 0.37 0.37 0.37 0.37 0.37 0.36 0.37 0.37 0.37 0.37 0.37 0.36 0.37 0.37 0.37 0.37 0.36 0.37 0.37 0.37 0.37 0.37 0.36 0.37 0.37 0.37 0.37 0.37 0.36 0.37 0.37 0.37 0.37 0.37 0.36 0.37 0.37 0.37 0.37 0.36 0.37 0.37 0.37 0.37 0.37 0.36 0.37 0.37 0.37 0.37 0.37 0.36 0.37 0.37 0.37 0.37 0.36 0.37 0.37 0.37 0.37 0.37 0.36 0.37 0.37 0.37 0.37 0.37 0.36 0.37 0.37 0.37 0.37 0.36 0.37 0.37 0.37 0.37 0.37 0.36 0.37 0.37 0.37 0.37 0.37 0.36 0.37 0.37 0.37 0.37 0.36 0.37 0.37 0.37 0.37 0.37 0.36 0.37 0.37 0.37 0.37 0.37 0.36 0.37 0.37 0.37 0.37 0.37 0.36 0.37 0.37 0.37 0.37 0.36 0.37 0.37 0.37 0.37 0.37 0.36 0.37 0.37 0.37 0.37 0.37 0.36 0.37 0.37 0.37 0.37 0.36 0.37 0.37 0.37 0.37 0.37 0.36 0.37 0.37 0.37 0.37 0.37 0.36 0.37 0.37 0.37 0.37 0.36 0.37 0.37 0.37 0.37 0.37 0.36 0.37 0.37 0.37 0.37 0.37 0.36 0.37 0.37 0.37 0.37 0.36 0.37 0.37 0.37 0.37 0.37 0.36 0.37 0.37 0.37 0.37 0.37 0.36 0.37 0.37 0.37 0.37 0.37 0.36 0.37 0.37 0.37 0.37 0.36 0.37 0.37 0.37 0.37 0.37 0.36 0.37 0.37 0.37 0.37 0.37 0.36 0.37 0.37 0.37 0.37 0.36 0.37 0.37 0.37 0.37 0.37 0.36 0.37 0.37 0.37 0.37 0.37 0.36 0.37 0.37 0.37 0.37 0.36 0.37 0.37 0.37 0.37 0.37 0.36 0.37 0.37 0.37 0.37 0.37 0.36 0.37 0.37 0.37 0.37 0.36 0.37 0.37 0.37 0.37 0.37 0.36 0.37 0.37 0.37 0.37 0.37 0.36 0.37 0.37 0.37 0.37 0.37 0.36 0.37 0.37 0.37 0.37 0.36 0.37 0.37 0.37 0.37 0.37 0.36 0.37 0.37 0.37 0.37 0.37 0.36 0.37 0.37 0.37 0.37 0.36 0.37 0.37 0.37 0.37 0.37 0.36 0.37 0.37 0.37 0.37 0.37 0.36 0.37 0.37 0.37 0.37 0.36 0.37 0.37 0.37 0.37 0.37 0.36 0.37 0.37 0.37 0.37 0.37 0.36 0.37" /><path
           id="path879"
           style="fill:none;stroke:#000000;stroke-width:1.07;stroke-linecap:round;stroke-linejoin:round;stroke-miterlimit:10;stroke-dasharray:none;stroke-opacity:1"
           d="m 21.53,293.86 h 206.99 v 81.89 H 21.53 Z" /></g></g><g
       id="g881" /><g
       id="g883" /><g
       id="g885" /><g
       id="g887" /><g
       id="g889" /><g
       id="g891" /><g
       id="g893" /><g
       id="g895" /><g
       id="g897" /><g
       id="g899" /><g
       id="g901" /><g
       id="g903" /><g
       id="g905" /><g
       id="g907" /><g
       id="g909" /><g
       id="g911"><text
         id="text915"
         style="font-variant:normal;font-weight:normal;font-size:8px;font-family:Helvetica;-inkscape-font-specification:Helvetica;writing-mode:lr-tb;fill:#000000;fill-opacity:1;fill-rule:nonzero;stroke:none"
         transform="matrix(1,0,0,-1,5.48,294.71)"><tspan
           id="tspan913"
           sodipodi:role="line"
           y="0"
           x="0 4.448 6.6719999">0.0</tspan></text><text
         id="text919"
         style="font-variant:normal;font-weight:normal;font-size:8px;font-family:Helvetica;-inkscape-font-specification:Helvetica;writing-mode:lr-tb;fill:#000000;fill-opacity:1;fill-rule:nonzero;stroke:none"
         transform="matrix(1,0,0,-1,5.48,309.6)"><tspan
           id="tspan917"
           sodipodi:role="line"
           y="0"
           x="0 4.448 6.6719999">0.5</tspan></text><text
         id="text923"
         style="font-variant:normal;font-weight:normal;font-size:8px;font-family:Helvetica;-inkscape-font-specification:Helvetica;writing-mode:lr-tb;fill:#000000;fill-opacity:1;fill-rule:nonzero;stroke:none"
         transform="matrix(1,0,0,-1,5.48,324.49)"><tspan
           id="tspan921"
           sodipodi:role="line"
           y="0"
           x="0 4.448 6.6719999">1.0</tspan></text><text
         id="text927"
         style="font-variant:normal;font-weight:normal;font-size:8px;font-family:Helvetica;-inkscape-font-specification:Helvetica;writing-mode:lr-tb;fill:#000000;fill-opacity:1;fill-rule:nonzero;stroke:none"
         transform="matrix(1,0,0,-1,5.48,339.38)"><tspan
           id="tspan925"
           sodipodi:role="line"
           y="0"
           x="0 4.448 6.6719999">1.5</tspan></text><text
         id="text931"
         style="font-variant:normal;font-weight:normal;font-size:8px;font-family:Helvetica;-inkscape-font-specification:Helvetica;writing-mode:lr-tb;fill:#000000;fill-opacity:1;fill-rule:nonzero;stroke:none"
         transform="matrix(1,0,0,-1,5.48,354.27)"><tspan
           id="tspan929"
           sodipodi:role="line"
           y="0"
           x="0 4.448 6.6719999">2.0</tspan></text><text
         id="text935"
         style="font-variant:normal;font-weight:normal;font-size:8px;font-family:Helvetica;-inkscape-font-specification:Helvetica;writing-mode:lr-tb;fill:#000000;fill-opacity:1;fill-rule:nonzero;stroke:none"
         transform="matrix(1,0,0,-1,5.48,369.16)"><tspan
           id="tspan933"
           sodipodi:role="line"
           y="0"
           x="0 4.448 6.6719999">2.5</tspan></text></g><g
       id="g937" /><g
       id="g939"><path
         id="path941"
         style="fill:none;stroke:#333333;stroke-width:1.07;stroke-linecap:butt;stroke-linejoin:round;stroke-miterlimit:10;stroke-dasharray:none;stroke-opacity:1"
         d="m 18.79,297.59 h 2.74" /><path
         id="path943"
         style="fill:none;stroke:#333333;stroke-width:1.07;stroke-linecap:butt;stroke-linejoin:round;stroke-miterlimit:10;stroke-dasharray:none;stroke-opacity:1"
         d="m 18.79,312.48 h 2.74" /><path
         id="path945"
         style="fill:none;stroke:#333333;stroke-width:1.07;stroke-linecap:butt;stroke-linejoin:round;stroke-miterlimit:10;stroke-dasharray:none;stroke-opacity:1"
         d="m 18.79,327.36 h 2.74" /><path
         id="path947"
         style="fill:none;stroke:#333333;stroke-width:1.07;stroke-linecap:butt;stroke-linejoin:round;stroke-miterlimit:10;stroke-dasharray:none;stroke-opacity:1"
         d="m 18.79,342.25 h 2.74" /><path
         id="path949"
         style="fill:none;stroke:#333333;stroke-width:1.07;stroke-linecap:butt;stroke-linejoin:round;stroke-miterlimit:10;stroke-dasharray:none;stroke-opacity:1"
         d="m 18.79,357.14 h 2.74" /><path
         id="path951"
         style="fill:none;stroke:#333333;stroke-width:1.07;stroke-linecap:butt;stroke-linejoin:round;stroke-miterlimit:10;stroke-dasharray:none;stroke-opacity:1"
         d="m 18.79,372.03 h 2.74" /></g><g
       id="g953" /><g
       id="g955" /><g
       id="g957" /><g
       id="g959" /><g
       id="g961" /><g
       id="g963" /><g
       id="g965" /><g
       id="g967" /><g
       id="g969" /><g
       id="g971"><path
         id="path973"
         style="fill:none;stroke:#333333;stroke-width:1.07;stroke-linecap:butt;stroke-linejoin:round;stroke-miterlimit:10;stroke-dasharray:none;stroke-opacity:1"
         d="m 27.51,291.12 v 2.74" /><path
         id="path975"
         style="fill:none;stroke:#333333;stroke-width:1.07;stroke-linecap:butt;stroke-linejoin:round;stroke-miterlimit:10;stroke-dasharray:none;stroke-opacity:1"
         d="m 72.97,291.12 v 2.74" /><path
         id="path977"
         style="fill:none;stroke:#333333;stroke-width:1.07;stroke-linecap:butt;stroke-linejoin:round;stroke-miterlimit:10;stroke-dasharray:none;stroke-opacity:1"
         d="m 118.43,291.12 v 2.74" /><path
         id="path979"
         style="fill:none;stroke:#333333;stroke-width:1.07;stroke-linecap:butt;stroke-linejoin:round;stroke-miterlimit:10;stroke-dasharray:none;stroke-opacity:1"
         d="m 163.89,291.12 v 2.74" /><path
         id="path981"
         style="fill:none;stroke:#333333;stroke-width:1.07;stroke-linecap:butt;stroke-linejoin:round;stroke-miterlimit:10;stroke-dasharray:none;stroke-opacity:1"
         d="m 209.34,291.12 v 2.74" /></g><g
       id="g983" /><g
       id="g985"><text
         id="text989"
         style="font-variant:normal;font-weight:normal;font-size:8px;font-family:Helvetica;-inkscape-font-specification:Helvetica;writing-mode:lr-tb;fill:#000000;fill-opacity:1;fill-rule:nonzero;stroke:none"
         transform="matrix(1,0,0,-1,25.29,283.19)"><tspan
           id="tspan987"
           y="0"
           x="0">0</tspan></text><text
         id="text993"
         style="font-variant:normal;font-weight:normal;font-size:8px;font-family:Helvetica;-inkscape-font-specification:Helvetica;writing-mode:lr-tb;fill:#000000;fill-opacity:1;fill-rule:nonzero;stroke:none"
         transform="matrix(1,0,0,-1,70.75,283.19)"><tspan
           id="tspan991"
           y="0"
           x="0">2</tspan></text><text
         id="text997"
         style="font-variant:normal;font-weight:normal;font-size:8px;font-family:Helvetica;-inkscape-font-specification:Helvetica;writing-mode:lr-tb;fill:#000000;fill-opacity:1;fill-rule:nonzero;stroke:none"
         transform="matrix(1,0,0,-1,116.2,283.19)"><tspan
           id="tspan995"
           y="0"
           x="0">4</tspan></text><text
         id="text1001"
         style="font-variant:normal;font-weight:normal;font-size:8px;font-family:Helvetica;-inkscape-font-specification:Helvetica;writing-mode:lr-tb;fill:#000000;fill-opacity:1;fill-rule:nonzero;stroke:none"
         transform="matrix(1,0,0,-1,161.66,283.19)"><tspan
           id="tspan999"
           y="0"
           x="0">6</tspan></text><text
         id="text1005"
         style="font-variant:normal;font-weight:normal;font-size:8px;font-family:Helvetica;-inkscape-font-specification:Helvetica;writing-mode:lr-tb;fill:#000000;fill-opacity:1;fill-rule:nonzero;stroke:none"
         transform="matrix(1,0,0,-1,207.12,283.19)"><tspan
           id="tspan1003"
           y="0"
           x="0">8</tspan></text></g><g
       id="g1007" /><g
       id="g1009" /><g
       id="g1011" /><g
       id="g1013" /><g
       id="g1015" /><g
       id="g1017"><text
         id="text1021"
         style="font-variant:normal;font-weight:normal;font-size:10px;font-family:Helvetica;-inkscape-font-specification:Helvetica;writing-mode:lr-tb;fill:#000000;fill-opacity:1;fill-rule:nonzero;stroke:none"
         transform="matrix(1,0,0,-1,113.2,271.58)"><tspan
           id="tspan1019"
           sodipodi:role="line"
           y="0"
           x="0 4.75 10.31 12.53 18.09">value</tspan></text></g><g
       id="g1023" /><g
       id="g1025" /><g
       id="g1027" /><g
       id="g1029" /><g
       id="g1031" /><g
       id="g1033" /><g
       id="g1035" /><g
       id="g1037" /><g
       id="g1039" /><g
       id="g1041" /><g
       id="g1043" /><g
       id="g1045" /><g
       id="g1047" /><g
       id="g1049"><path
         id="path1051"
         style="fill:#ffffff;fill-opacity:1;fill-rule:nonzero;stroke:none"
         d="m 127.39,356.89 h 17.28 v 17.28 h -17.28 z" /></g><g
       id="g1053" /><g
       id="g1055"><path
         id="path1057"
         style="fill:none;stroke:#e6ab02;stroke-width:1.07;stroke-linecap:butt;stroke-linejoin:round;stroke-miterlimit:10;stroke-dasharray:none;stroke-opacity:1"
         d="m 129.12,365.53 h 13.82" /></g><g
       id="g1059" /><g
       id="g1061"><path
         id="path1063"
         style="fill:#ffffff;fill-opacity:1;fill-rule:nonzero;stroke:none"
         d="m 127.39,339.61 h 17.28 v 17.28 h -17.28 z" /></g><g
       id="g1065" /><g
       id="g1067"><path
         id="path1069"
         style="fill:none;stroke:#525252;stroke-width:1.07;stroke-linecap:butt;stroke-linejoin:round;stroke-miterlimit:10;stroke-dasharray:none;stroke-opacity:1"
         d="m 129.12,348.25 h 13.82" /></g><g
       id="g1071" /><g
       id="g1073" /><g
       id="g1075" /><g
       id="g1077"><text
         id="text1081"
         style="font-variant:normal;font-weight:normal;font-size:8px;font-family:Helvetica;-inkscape-font-specification:Helvetica;writing-mode:lr-tb;fill:#000000;fill-opacity:1;fill-rule:nonzero;stroke:none"
         transform="matrix(1,0,0,-1,147.66,362.66)"><tspan
           id="tspan1079"
           sodipodi:role="line"
           y="0"
           x="0 4.448 7.2319999 9.0080004 13.456 16.120001 18.344 20.120001 24.568001 26.552 31 33.863998 40.528 44.976002 47.200001 48.976002 53.424">prior information</tspan></text></g><g
       id="g1083" /><g
       id="g1085" /><g
       id="g1087" /><g
       id="g1089" /><g
       id="g1091"><text
         id="text1095"
         style="font-variant:normal;font-weight:normal;font-size:8px;font-family:Helvetica;-inkscape-font-specification:Helvetica;writing-mode:lr-tb;fill:#000000;fill-opacity:1;fill-rule:nonzero;stroke:none"
         transform="matrix(1,0,0,-1,147.66,345.38)"><tspan
           id="tspan1093"
           sodipodi:role="line"
           y="0"
           x="0 4 5.776 10.224 16.888">sigma</tspan></text></g><g
       id="g1097" /><g
       id="g1099" /><g
       id="g1101" /><g
       id="g1103" /><g
       id="g1105" /><g
       id="g1107" /><g
       transform="translate(-22.5,6)"
       id="g1109"><text
         id="text1113"
         style="font-variant:normal;font-weight:normal;font-size:10px;font-family:Helvetica;-inkscape-font-specification:Helvetica;writing-mode:lr-tb;fill:#000000;fill-opacity:1;fill-rule:nonzero;stroke:none"
         transform="matrix(1,0,0,-1,21.53,383.34)"><tspan
           id="tspan1111"
           sodipodi:role="line"
           y="0"
           x="0 5.5599999 8.8900003 17.23 22.790001 28.35 31.129999">a) beta</tspan></text></g><g
       id="g1115" /><g
       id="g1117" /><g
       id="g1119" /><g
       id="g1121" /><g
       id="g1123" /><g
       id="g1125" /><g
       id="g1127" /><g
       id="g1129" /><g
       id="g1131" /><g
       id="g1133" /><g
       id="g1135" /><g
       id="g1137" /><g
       id="g1139" /><g
       id="g1141" /><g
       id="g1143"><g
         clip-path="url(#clipPath1149)"
         id="g1145"><path
           id="path1151"
           style="fill:#ffffff;fill-opacity:1;fill-rule:nonzero;stroke:#ffffff;stroke-width:1.07;stroke-linecap:round;stroke-linejoin:round;stroke-miterlimit:10;stroke-dasharray:none;stroke-opacity:1"
           d="M 234,264 H 468 V 396 H 234 Z" /></g></g><g
       id="g1153" /><g
       id="g1155"><g
         clip-path="url(#clipPath1161)"
         id="g1157"><path
           id="path1163"
           style="fill:#ffffff;fill-opacity:1;fill-rule:nonzero;stroke:none"
           d="m 259.98,293.86 h 202.54 v 81.89 H 259.98 Z" /><path
           id="path1165"
           style="fill:none;stroke:#1b9e77;stroke-width:1.07;stroke-linecap:butt;stroke-linejoin:round;stroke-miterlimit:10;stroke-dasharray:none;stroke-opacity:1"
           d="m 269.19,297.59 h 0.36 0.36 l 0.36,0.01 h 0.36 0.36 0.36 l 0.36,0.01 h 0.36 l 0.36,0.01 h 0.36 l 0.36,0.01 h 0.36 l 0.36,0.01 0.36,0.01 0.36,0.01 0.36,0.02 0.36,0.01 0.36,0.02 0.36,0.02 0.36,0.02 0.36,0.02 0.36,0.02 0.36,0.03 0.36,0.03 0.36,0.03 0.36,0.04 0.36,0.04 0.36,0.04 0.36,0.04 0.37,0.05 0.36,0.05 0.36,0.06 0.36,0.06 0.36,0.06 0.36,0.07 0.36,0.07 0.36,0.07 0.36,0.08 0.36,0.09 0.36,0.08 0.36,0.1 0.36,0.09 0.36,0.1 0.36,0.11 0.36,0.1 0.36,0.11 0.36,0.12 0.36,0.12 0.36,0.12 0.36,0.13 0.36,0.13 0.36,0.13 0.36,0.13 0.36,0.14 0.36,0.14 0.36,0.14 0.36,0.14 0.36,0.14 0.36,0.15 0.37,0.14 0.36,0.15 0.36,0.15 0.36,0.14 0.36,0.15 0.36,0.14 0.36,0.15 0.36,0.14 0.36,0.15 0.36,0.15 0.36,0.14 0.36,0.15 0.36,0.14 0.36,0.15 0.36,0.15 0.36,0.14 0.36,0.15 0.36,0.15 0.36,0.16 0.36,0.15 0.36,0.15 0.36,0.16 0.36,0.16 0.36,0.16 0.36,0.16 0.36,0.16 0.36,0.16 0.36,0.16 0.36,0.16 0.36,0.16 0.37,0.15 0.36,0.16 0.36,0.14 0.36,0.15 0.36,0.14 0.36,0.14 0.36,0.12 0.36,0.12 0.36,0.12 0.36,0.1 0.36,0.1 0.36,0.09 0.36,0.07 0.36,0.07 0.36,0.06 0.36,0.05 0.36,0.05 0.36,0.03 0.36,0.02 0.36,0.02 0.36,0.01 h 0.36 0.36 l 0.36,-0.01 0.36,-0.02 0.36,-0.02 0.36,-0.02 0.36,-0.02 0.36,-0.03 0.36,-0.02 0.37,-0.03 0.36,-0.02 0.36,-0.03 0.36,-0.02 0.36,-0.02 0.36,-0.01 0.36,-0.02 0.36,-0.01 h 0.36 l 0.36,-0.01 h 0.36 l 0.36,0.01 0.36,0.01 0.36,0.01 0.36,0.02 0.36,0.02 0.36,0.02 0.36,0.02 0.36,0.03 0.36,0.02 0.36,0.02 0.36,0.02 0.36,0.02 0.36,0.02 0.36,0.01 0.36,0.01 h 0.36 l 0.36,-0.01 0.36,-0.01 0.36,-0.02 0.36,-0.03 0.37,-0.04 0.36,-0.05 0.36,-0.06 0.36,-0.07 0.36,-0.07 0.36,-0.09 0.36,-0.09 0.36,-0.11 0.36,-0.11 0.36,-0.11 0.36,-0.12 0.36,-0.13 0.36,-0.13 0.36,-0.13 0.36,-0.14 0.36,-0.13 0.36,-0.14 0.36,-0.13 0.36,-0.14 0.36,-0.13 0.36,-0.13 0.36,-0.12 0.36,-0.12 0.36,-0.12 0.36,-0.12 0.36,-0.11 0.36,-0.1 0.36,-0.1 0.36,-0.1 0.36,-0.09 0.37,-0.08 0.36,-0.08 0.36,-0.08 0.36,-0.08 0.36,-0.06 0.36,-0.07 0.36,-0.06 0.36,-0.06 0.36,-0.05 0.36,-0.05 0.36,-0.05 0.36,-0.04 0.36,-0.05 0.36,-0.04 0.36,-0.03 0.36,-0.04 0.36,-0.03 0.36,-0.03 0.36,-0.02 0.36,-0.03 0.36,-0.02 0.36,-0.03 0.36,-0.02 0.36,-0.02 0.36,-0.02 0.36,-0.02 0.36,-0.02 0.36,-0.02 0.36,-0.02 0.36,-0.02 0.37,-0.02 0.36,-0.03 0.36,-0.02 0.36,-0.02 0.36,-0.03 0.36,-0.03 0.36,-0.02 0.36,-0.03 0.36,-0.03 0.36,-0.04 0.36,-0.03 0.36,-0.03 0.36,-0.04 0.36,-0.03 0.36,-0.04 0.36,-0.04 0.36,-0.04 0.36,-0.04 0.36,-0.04 0.36,-0.04 0.36,-0.04 0.36,-0.04 0.36,-0.04 0.36,-0.04 0.36,-0.04 0.36,-0.04 0.36,-0.04 0.36,-0.05 0.36,-0.04 0.36,-0.04 0.36,-0.04 0.37,-0.05 0.36,-0.04 0.36,-0.05 0.36,-0.04 0.36,-0.05 0.36,-0.05 0.36,-0.05 0.36,-0.04 0.36,-0.05 0.36,-0.06 0.36,-0.05 0.36,-0.05 0.36,-0.05 0.36,-0.06 0.36,-0.05 0.36,-0.05 0.36,-0.06 0.36,-0.06 0.36,-0.05 0.36,-0.06 0.36,-0.05 0.36,-0.06 0.36,-0.06 0.36,-0.05 0.36,-0.06 0.36,-0.05 0.36,-0.05 0.36,-0.06 0.36,-0.05 0.36,-0.05 0.37,-0.05 0.36,-0.05 0.36,-0.05 0.36,-0.04 0.36,-0.05 0.36,-0.04 0.36,-0.04 0.36,-0.04 0.36,-0.04 0.36,-0.03 0.36,-0.04 0.36,-0.03 0.36,-0.03 0.36,-0.03 0.36,-0.03 0.36,-0.03 0.36,-0.02 0.36,-0.03 0.36,-0.02 0.36,-0.02 0.36,-0.02 0.36,-0.02 0.36,-0.02 0.36,-0.02 0.36,-0.02 0.36,-0.02 0.36,-0.02 0.36,-0.01 0.36,-0.02 0.36,-0.02 0.37,-0.02 0.36,-0.03 0.36,-0.02 0.36,-0.02 0.36,-0.03 0.36,-0.02 0.36,-0.03 0.36,-0.03 0.36,-0.03 0.36,-0.03 0.36,-0.04 0.36,-0.03 0.36,-0.04 0.36,-0.03 0.36,-0.04 0.36,-0.04 0.36,-0.04 0.36,-0.04 0.36,-0.04 0.36,-0.03 0.36,-0.04 0.36,-0.04 0.36,-0.04 0.36,-0.03 0.36,-0.04 0.36,-0.03 0.36,-0.03 0.36,-0.03 0.36,-0.03 0.36,-0.03 0.37,-0.03 0.36,-0.02 0.36,-0.02 0.36,-0.03 0.36,-0.01 0.36,-0.02 0.36,-0.02 0.36,-0.02 0.36,-0.01 0.36,-0.01 0.36,-0.02 0.36,-0.01 0.36,-0.01 0.36,-0.01 h 0.36 l 0.36,-0.01 0.36,-0.01 h 0.36 l 0.36,-0.01 h 0.36 l 0.36,-0.01 h 0.36 0.36 l 0.36,-0.01 h 0.36 0.36 0.36 0.36 0.36 0.36 l 0.36,0.01 h 0.37 0.36 0.36 l 0.36,0.01 h 0.36 0.36 l 0.36,0.01 h 0.36 0.36 0.36 0.36 0.36 0.36 0.36 0.36 0.36 0.36 l 0.36,-0.01 0.36,-0.01 h 0.36 l 0.36,-0.01 0.36,-0.01 0.36,-0.01 0.36,-0.01 0.36,-0.01 0.36,-0.02 0.36,-0.01 0.36,-0.01 0.36,-0.02 0.36,-0.01 0.37,-0.02 0.36,-0.02 0.36,-0.01 0.36,-0.02 0.36,-0.01 0.36,-0.02 0.36,-0.01 0.36,-0.02 0.36,-0.01 0.36,-0.01 0.36,-0.02 0.36,-0.01 0.36,-0.01 h 0.36 l 0.36,-0.01 0.36,-0.01 h 0.36 0.36 0.36 0.36 0.36 0.36 0.36 l 0.36,0.01 h 0.36 l 0.36,0.01 0.36,0.01 0.36,0.01 0.36,0.01 0.36,0.01 0.37,0.01 0.36,0.01 0.36,0.01 0.36,0.02 0.36,0.01 0.36,0.01 0.36,0.01 0.36,0.01 0.36,0.01 0.36,0.01 0.36,0.01 0.36,0.01 0.36,0.01 0.36,0.01 h 0.36 l 0.36,0.01 h 0.36 0.36 0.36 0.36 0.36 0.36 0.36 0.36 l 0.36,-0.01 h 0.36 l 0.36,-0.01 h 0.36 l 0.36,-0.01 0.36,-0.01 0.36,-0.01 h 0.37 l 0.36,-0.01 0.36,-0.01 0.36,-0.01 0.36,-0.01 h 0.36 l 0.36,-0.01 0.36,-0.01 0.36,-0.01 0.36,-0.01 h 0.36 l 0.36,-0.01 0.36,-0.01 h 0.36 l 0.36,-0.01 0.36,-0.01 h 0.36 l 0.36,-0.01 h 0.36 l 0.36,-0.01 0.36,-0.01 h 0.36 l 0.36,-0.01 0.36,-0.01 h 0.36 l 0.36,-0.01 0.36,-0.01 h 0.36 l 0.36,-0.01 0.36,-0.01 h 0.37 l 0.36,-0.01 0.36,-0.01 0.36,-0.01 h 0.36 l 0.36,-0.01 0.36,-0.01 0.36,-0.01 h 0.36 l 0.36,-0.01 0.36,-0.01 h 0.36 l 0.36,-0.01 0.36,-0.01 h 0.36 l 0.36,-0.01 0.36,-0.01 h 0.36 l 0.36,-0.01 h 0.36 l 0.36,-0.01 h 0.36 0.36 l 0.36,-0.01 h 0.36 l 0.36,-0.01 h 0.36 0.36" /><path
           id="path1167"
           style="fill:none;stroke:#d95f02;stroke-width:1.07;stroke-linecap:butt;stroke-linejoin:round;stroke-miterlimit:10;stroke-dasharray:none;stroke-opacity:1"
           d="m 269.19,327.2 0.36,12.99 0.36,12.58 0.36,10.14 0.36,6.45 0.36,2.67 0.36,-0.19 0.36,-1.82 0.36,-2.39 0.36,-2.44 0.36,-2.43 0.36,-2.55 0.36,-2.77 0.36,-3 0.36,-3.1 0.36,-3.19 0.36,-3.43 0.36,-3.89 0.36,-4.34 0.36,-4.38 0.36,-3.91 0.36,-3.12 0.36,-2.26 0.36,-1.49 0.36,-0.86 0.36,-0.47 0.36,-0.38 0.36,-0.6 0.36,-0.96 0.36,-1.31 0.37,-1.48 0.36,-1.48 0.36,-1.35 0.36,-1.13 0.36,-0.83 0.36,-0.51 0.36,-0.26 0.36,-0.16 0.36,-0.29 0.36,-0.58 0.36,-0.91 0.36,-1.11 0.36,-1.09 0.36,-0.91 0.36,-0.67 0.36,-0.48 0.36,-0.37 0.36,-0.29 0.36,-0.19 0.36,-0.1 0.36,-0.05 0.36,-0.06 0.36,-0.06 0.36,0.07 0.36,0.26 0.36,0.41 0.36,0.29 0.36,-0.06 0.36,-0.53 0.36,-0.88 0.37,-0.99 0.36,-0.88 0.36,-0.68 0.36,-0.46 0.36,-0.27 0.36,-0.14 0.36,-0.05 0.36,-0.03 0.36,-0.06 0.36,-0.1 0.36,-0.14 0.36,-0.13 0.36,-0.11 0.36,-0.07 0.36,-0.05 0.36,-0.03 0.36,-0.02 0.36,-0.01 h 0.36 l 0.36,0.01 h 0.36 l 0.36,-0.01 0.36,-0.01 0.36,-0.03 0.36,-0.03 0.36,-0.03 0.36,-0.02 0.36,-0.02 h 0.36 0.36 0.37 0.36 0.36 l 0.36,0.01 0.36,0.02 0.36,0.03 0.36,0.04 0.36,0.04 0.36,0.04 0.36,0.05 0.36,0.04 0.36,0.02 0.36,-0.01 0.36,-0.05 0.36,-0.07 0.36,-0.06 0.36,-0.05 0.36,-0.03 0.36,-0.02 h 0.36 0.36 0.36 0.36 0.36 0.36 0.36 0.36 0.36 0.36 0.36 0.37 0.36 0.36 0.36 0.36 0.36 0.36 0.36 0.36 0.36 0.36 0.36 0.36 0.36 0.36 0.36 0.36 0.36 0.36 0.36 0.36 0.36 0.36 0.36 0.36 0.36 0.36 0.36 0.36 0.36 0.36 0.37 0.36 0.36 0.36 0.36 0.36 0.36 0.36 0.36 0.36 0.36 0.36 0.36 0.36 0.36 0.36 0.36 0.36 0.36 0.36 0.36 0.36 0.36 0.36 0.36 0.36 0.36 0.36 0.36 0.36 0.37 0.36 0.36 0.36 0.36 0.36 0.36 0.36 0.36 0.36 0.36 0.36 0.36 0.36 0.36 0.36 0.36 0.36 0.36 0.36 0.36 0.36 0.36 0.36 0.36 0.36 0.36 0.36 0.36 0.36 0.37 0.36 0.36 0.36 0.36 0.36 0.36 0.36 0.36 0.36 0.36 0.36 0.36 0.36 0.36 0.36 0.36 0.36 0.36 0.36 0.36 0.36 0.36 0.36 0.36 0.36 0.36 0.36 0.36 0.36 0.36 0.37 0.36 0.36 0.36 0.36 0.36 0.36 0.36 0.36 0.36 0.36 0.36 0.36 0.36 0.36 0.36 0.36 0.36 0.36 0.36 0.36 0.36 0.36 0.36 0.36 0.36 0.36 0.36 0.36 0.36 0.37 0.36 0.36 0.36 0.36 0.36 0.36 0.36 0.36 0.36 0.36 0.36 0.36 0.36 0.36 0.36 0.36 0.36 0.36 0.36 0.36 0.36 0.36 0.36 0.36 0.36 0.36 0.36 0.36 0.36 0.37 0.36 0.36 0.36 0.36 0.36 0.36 0.36 0.36 0.36 0.36 0.36 0.36 0.36 0.36 0.36 0.36 0.36 0.36 0.36 0.36 0.36 0.36 0.36 0.36 0.36 0.36 0.36 0.36 0.36 0.37 0.36 0.36 0.36 0.36 0.36 0.36 0.36 0.36 0.36 0.36 0.36 0.36 0.36 0.36 0.36 0.36 0.36 0.36 0.36 0.36 0.36 0.36 0.36 0.36 0.36 0.36 0.36 0.36 0.36 0.36 0.37 0.36 0.36 0.36 0.36 0.36 0.36 0.36 0.36 0.36 0.36 0.36 0.36 0.36 0.36 0.36 0.36 0.36 0.36 0.36 0.36 0.36 0.36 0.36 0.36 0.36 0.36 0.36 0.36 0.36 0.37 0.36 0.36 0.36 0.36 0.36 0.36 0.36 0.36 0.36 0.36 0.36 0.36 0.36 0.36 0.36 0.36 0.36 0.36 0.36 0.36 0.36 0.36 0.36 0.36 0.36 0.36 0.36 0.36 0.36 0.37 0.36 0.36 0.36 0.36 0.36 0.36 0.36 0.36 0.36 0.36 0.36 0.36 0.36 0.36 0.36 0.36 0.36 0.36 0.36 0.36 0.36 0.36 0.36 0.36 0.36 0.36 0.36 0.36 0.36 0.36 0.37 0.36 0.36 0.36 0.36 0.36 0.36 0.36 0.36 0.36 0.36 0.36 0.36 0.36 0.36 0.36 0.36 0.36 0.36 0.36 0.36 0.36 0.36 0.36 0.36 0.36 0.36 0.36 0.36 0.36 0.37 0.36 0.36 0.36 0.36 0.36 0.36 0.36 0.36 0.36 0.36 0.36 0.36 0.36 0.36 0.36 0.36 0.36 0.36 0.36 0.36 0.36 0.36 0.36 0.36 0.36 0.36 0.36" /><path
           id="path1169"
           style="fill:none;stroke:#000000;stroke-width:1.07;stroke-linecap:round;stroke-linejoin:round;stroke-miterlimit:10;stroke-dasharray:none;stroke-opacity:1"
           d="m 259.98,293.86 h 202.54 v 81.89 H 259.98 Z" /></g></g><g
       id="g1171" /><g
       id="g1173" /><g
       id="g1175" /><g
       id="g1177" /><g
       id="g1179" /><g
       id="g1181" /><g
       id="g1183" /><g
       id="g1185" /><g
       id="g1187" /><g
       id="g1189" /><g
       id="g1191" /><g
       id="g1193" /><g
       id="g1195" /><g
       id="g1197" /><g
       id="g1199" /><g
       id="g1201"><text
         id="text1205"
         style="font-variant:normal;font-weight:normal;font-size:8px;font-family:Helvetica;-inkscape-font-specification:Helvetica;writing-mode:lr-tb;fill:#000000;fill-opacity:1;fill-rule:nonzero;stroke:none"
         transform="matrix(1,0,0,-1,243.93,294.71)"><tspan
           id="tspan1203"
           sodipodi:role="line"
           y="0"
           x="0 4.448 6.6719999">0.0</tspan></text><text
         id="text1209"
         style="font-variant:normal;font-weight:normal;font-size:8px;font-family:Helvetica;-inkscape-font-specification:Helvetica;writing-mode:lr-tb;fill:#000000;fill-opacity:1;fill-rule:nonzero;stroke:none"
         transform="matrix(1,0,0,-1,243.93,313.56)"><tspan
           id="tspan1207"
           sodipodi:role="line"
           y="0"
           x="0 4.448 6.6719999">2.5</tspan></text><text
         id="text1213"
         style="font-variant:normal;font-weight:normal;font-size:8px;font-family:Helvetica;-inkscape-font-specification:Helvetica;writing-mode:lr-tb;fill:#000000;fill-opacity:1;fill-rule:nonzero;stroke:none"
         transform="matrix(1,0,0,-1,243.93,332.4)"><tspan
           id="tspan1211"
           sodipodi:role="line"
           y="0"
           x="0 4.448 6.6719999">5.0</tspan></text><text
         id="text1217"
         style="font-variant:normal;font-weight:normal;font-size:8px;font-family:Helvetica;-inkscape-font-specification:Helvetica;writing-mode:lr-tb;fill:#000000;fill-opacity:1;fill-rule:nonzero;stroke:none"
         transform="matrix(1,0,0,-1,243.93,351.25)"><tspan
           id="tspan1215"
           sodipodi:role="line"
           y="0"
           x="0 4.448 6.6719999">7.5</tspan></text><text
         id="text1221"
         style="font-variant:normal;font-weight:normal;font-size:8px;font-family:Helvetica;-inkscape-font-specification:Helvetica;writing-mode:lr-tb;fill:#000000;fill-opacity:1;fill-rule:nonzero;stroke:none"
         transform="matrix(1,0,0,-1,239.48,370.09)"><tspan
           id="tspan1219"
           sodipodi:role="line"
           y="0"
           x="0 4.448 8.8959999 11.12">10.0</tspan></text></g><g
       id="g1223" /><g
       id="g1225"><path
         id="path1227"
         style="fill:none;stroke:#333333;stroke-width:1.07;stroke-linecap:butt;stroke-linejoin:round;stroke-miterlimit:10;stroke-dasharray:none;stroke-opacity:1"
         d="m 257.24,297.59 h 2.74" /><path
         id="path1229"
         style="fill:none;stroke:#333333;stroke-width:1.07;stroke-linecap:butt;stroke-linejoin:round;stroke-miterlimit:10;stroke-dasharray:none;stroke-opacity:1"
         d="m 257.24,316.43 h 2.74" /><path
         id="path1231"
         style="fill:none;stroke:#333333;stroke-width:1.07;stroke-linecap:butt;stroke-linejoin:round;stroke-miterlimit:10;stroke-dasharray:none;stroke-opacity:1"
         d="m 257.24,335.27 h 2.74" /><path
         id="path1233"
         style="fill:none;stroke:#333333;stroke-width:1.07;stroke-linecap:butt;stroke-linejoin:round;stroke-miterlimit:10;stroke-dasharray:none;stroke-opacity:1"
         d="m 257.24,354.12 h 2.74" /><path
         id="path1235"
         style="fill:none;stroke:#333333;stroke-width:1.07;stroke-linecap:butt;stroke-linejoin:round;stroke-miterlimit:10;stroke-dasharray:none;stroke-opacity:1"
         d="m 257.24,372.96 h 2.74" /></g><g
       id="g1237" /><g
       id="g1239" /><g
       id="g1241" /><g
       id="g1243" /><g
       id="g1245" /><g
       id="g1247" /><g
       id="g1249" /><g
       id="g1251" /><g
       id="g1253" /><g
       id="g1255"><path
         id="path1257"
         style="fill:none;stroke:#333333;stroke-width:1.07;stroke-linecap:butt;stroke-linejoin:round;stroke-miterlimit:10;stroke-dasharray:none;stroke-opacity:1"
         d="m 269.14,291.12 v 2.74" /><path
         id="path1259"
         style="fill:none;stroke:#333333;stroke-width:1.07;stroke-linecap:butt;stroke-linejoin:round;stroke-miterlimit:10;stroke-dasharray:none;stroke-opacity:1"
         d="m 309.27,291.12 v 2.74" /><path
         id="path1261"
         style="fill:none;stroke:#333333;stroke-width:1.07;stroke-linecap:butt;stroke-linejoin:round;stroke-miterlimit:10;stroke-dasharray:none;stroke-opacity:1"
         d="m 349.4,291.12 v 2.74" /><path
         id="path1263"
         style="fill:none;stroke:#333333;stroke-width:1.07;stroke-linecap:butt;stroke-linejoin:round;stroke-miterlimit:10;stroke-dasharray:none;stroke-opacity:1"
         d="m 389.53,291.12 v 2.74" /><path
         id="path1265"
         style="fill:none;stroke:#333333;stroke-width:1.07;stroke-linecap:butt;stroke-linejoin:round;stroke-miterlimit:10;stroke-dasharray:none;stroke-opacity:1"
         d="m 429.66,291.12 v 2.74" /></g><g
       id="g1267" /><g
       id="g1269"><text
         id="text1273"
         style="font-variant:normal;font-weight:normal;font-size:8px;font-family:Helvetica;-inkscape-font-specification:Helvetica;writing-mode:lr-tb;fill:#000000;fill-opacity:1;fill-rule:nonzero;stroke:none"
         transform="matrix(1,0,0,-1,263.58,283.19)"><tspan
           id="tspan1271"
           sodipodi:role="line"
           y="0"
           x="0 4.448 6.6719999">0.0</tspan></text><text
         id="text1277"
         style="font-variant:normal;font-weight:normal;font-size:8px;font-family:Helvetica;-inkscape-font-specification:Helvetica;writing-mode:lr-tb;fill:#000000;fill-opacity:1;fill-rule:nonzero;stroke:none"
         transform="matrix(1,0,0,-1,303.71,283.19)"><tspan
           id="tspan1275"
           sodipodi:role="line"
           y="0"
           x="0 4.448 6.6719999">0.5</tspan></text><text
         id="text1281"
         style="font-variant:normal;font-weight:normal;font-size:8px;font-family:Helvetica;-inkscape-font-specification:Helvetica;writing-mode:lr-tb;fill:#000000;fill-opacity:1;fill-rule:nonzero;stroke:none"
         transform="matrix(1,0,0,-1,343.84,283.19)"><tspan
           id="tspan1279"
           sodipodi:role="line"
           y="0"
           x="0 4.448 6.6719999">1.0</tspan></text><text
         id="text1285"
         style="font-variant:normal;font-weight:normal;font-size:8px;font-family:Helvetica;-inkscape-font-specification:Helvetica;writing-mode:lr-tb;fill:#000000;fill-opacity:1;fill-rule:nonzero;stroke:none"
         transform="matrix(1,0,0,-1,383.97,283.19)"><tspan
           id="tspan1283"
           sodipodi:role="line"
           y="0"
           x="0 4.448 6.6719999">1.5</tspan></text><text
         id="text1289"
         style="font-variant:normal;font-weight:normal;font-size:8px;font-family:Helvetica;-inkscape-font-specification:Helvetica;writing-mode:lr-tb;fill:#000000;fill-opacity:1;fill-rule:nonzero;stroke:none"
         transform="matrix(1,0,0,-1,424.1,283.19)"><tspan
           id="tspan1287"
           sodipodi:role="line"
           y="0"
           x="0 4.448 6.6719999">2.0</tspan></text></g><g
       id="g1291" /><g
       id="g1293" /><g
       id="g1295" /><g
       id="g1297" /><g
       id="g1299" /><g
       id="g1301"><text
         id="text1305"
         style="font-variant:normal;font-weight:normal;font-size:10px;font-family:Helvetica;-inkscape-font-specification:Helvetica;writing-mode:lr-tb;fill:#000000;fill-opacity:1;fill-rule:nonzero;stroke:none"
         transform="matrix(1,0,0,-1,349.42,271.58)"><tspan
           id="tspan1303"
           sodipodi:role="line"
           y="0"
           x="0 4.75 10.31 12.53 18.09">value</tspan></text></g><g
       id="g1307" /><g
       id="g1309" /><g
       id="g1311" /><g
       id="g1313" /><g
       id="g1315" /><g
       id="g1317" /><g
       id="g1319" /><g
       id="g1321" /><g
       id="g1323" /><g
       id="g1325" /><g
       id="g1327" /><g
       id="g1329" /><g
       id="g1331" /><g
       id="g1333"><path
         id="path1335"
         style="fill:#ffffff;fill-opacity:1;fill-rule:nonzero;stroke:none"
         d="m 363.83,356.89 h 17.28 v 17.28 h -17.28 z" /></g><g
       id="g1337" /><g
       id="g1339"><path
         id="path1341"
         style="fill:none;stroke:#1b9e77;stroke-width:1.07;stroke-linecap:butt;stroke-linejoin:round;stroke-miterlimit:10;stroke-dasharray:none;stroke-opacity:1"
         d="m 365.56,365.53 h 13.82" /></g><g
       id="g1343" /><g
       id="g1345"><path
         id="path1347"
         style="fill:#ffffff;fill-opacity:1;fill-rule:nonzero;stroke:none"
         d="m 363.83,339.61 h 17.28 v 17.28 h -17.28 z" /></g><g
       id="g1349" /><g
       id="g1351"><path
         id="path1353"
         style="fill:none;stroke:#d95f02;stroke-width:1.07;stroke-linecap:butt;stroke-linejoin:round;stroke-miterlimit:10;stroke-dasharray:none;stroke-opacity:1"
         d="m 365.56,348.25 h 13.82" /></g><g
       id="g1355" /><g
       id="g1357" /><g
       id="g1359" /><g
       id="g1361"><text
         id="text1365"
         style="font-variant:normal;font-weight:normal;font-size:8px;font-family:Helvetica;-inkscape-font-specification:Helvetica;writing-mode:lr-tb;fill:#000000;fill-opacity:1;fill-rule:nonzero;stroke:none"
         transform="matrix(1,0,0,-1,384.1,362.66)"><tspan
           id="tspan1363"
           sodipodi:role="line"
           y="0"
           x="0 1.776 6.224 10.672 12.448 16.448 20.896 23.120001 27.568001 30.232 32.456001 36.256001 40.703999 42.48 46.928001 51.375999">indicator values</tspan></text></g><g
       id="g1367" /><g
       id="g1369" /><g
       id="g1371" /><g
       id="g1373" /><g
       id="g1375"><text
         id="text1379"
         style="font-variant:normal;font-weight:normal;font-size:8px;font-family:Helvetica;-inkscape-font-specification:Helvetica;writing-mode:lr-tb;fill:#000000;fill-opacity:1;fill-rule:nonzero;stroke:none"
         transform="matrix(1,0,0,-1,384.1,345.38)"><tspan
           id="tspan1377"
           sodipodi:role="line"
           y="0"
           x="0 2.224 4.8080001 9.2559996 11.032 13.256">traits</tspan></text></g><g
       id="g1381" /><g
       id="g1383" /><g
       id="g1385" /><g
       id="g1387" /><g
       id="g1389" /><g
       id="g1391" /><g
       id="g1393" /><g
       id="g1395" /><g
       id="g1397" /><g
       id="g1399" /><g
       id="g1401" /><g
       id="g1403" /><g
       id="g1405" /><g
       id="g1407" /><g
       id="g1409" /><g
       id="g1411" /><g
       id="g1413" /><g
       id="g1415" /><g
       id="g1417" /><g
       id="g1419" /><g
       id="g1421" /><g
       id="g1423"><g
         clip-path="url(#clipPath1429)"
         id="g1425"><path
           id="path1431"
           style="fill:#ffffff;fill-opacity:1;fill-rule:nonzero;stroke:#ffffff;stroke-width:1.07;stroke-linecap:round;stroke-linejoin:round;stroke-miterlimit:10;stroke-dasharray:none;stroke-opacity:1"
           d="M 0,132 H 234 V 264 H 0 Z" /></g></g><g
       id="g1433" /><g
       id="g1435"><g
         clip-path="url(#clipPath1441)"
         id="g1437"><path
           id="path1443"
           style="fill:#ffffff;fill-opacity:1;fill-rule:nonzero;stroke:none"
           d="m 21.53,161.86 h 206.99 v 81.89 H 21.53 Z" /><path
           id="path1445"
           style="fill:none;stroke:#e6ab02;stroke-width:1.07;stroke-linecap:butt;stroke-linejoin:round;stroke-miterlimit:10;stroke-dasharray:none;stroke-opacity:1"
           d="m 30.94,166.8 0.37,0.15 0.37,0.15 0.36,0.17 0.37,0.19 0.37,0.19 0.37,0.21 0.37,0.22 0.37,0.23 0.36,0.23 0.37,0.25 0.37,0.26 0.37,0.27 0.37,0.28 0.36,0.28 0.37,0.29 0.37,0.29 0.37,0.3 0.37,0.31 0.37,0.31 0.36,0.32 0.37,0.31 0.37,0.33 0.37,0.32 0.37,0.33 0.37,0.33 0.36,0.34 0.37,0.34 0.37,0.35 0.37,0.35 0.37,0.36 0.37,0.37 0.36,0.37 0.37,0.38 0.37,0.38 0.37,0.39 0.37,0.4 0.36,0.41 0.37,0.41 0.37,0.42 0.37,0.42 0.37,0.43 0.37,0.42 0.36,0.43 0.37,0.42 0.37,0.42 0.37,0.41 0.37,0.39 0.37,0.39 0.36,0.37 0.37,0.36 0.37,0.33 0.37,0.31 0.37,0.29 0.36,0.27 0.37,0.24 0.37,0.22 0.37,0.18 0.37,0.16 0.37,0.14 0.36,0.11 0.37,0.09 0.37,0.07 0.37,0.04 0.37,0.03 0.37,0.01 0.36,-0.01 0.37,-0.02 0.37,-0.03 0.37,-0.04 0.37,-0.06 0.36,-0.06 0.37,-0.06 0.37,-0.08 0.37,-0.07 0.37,-0.09 0.37,-0.09 0.36,-0.09 0.37,-0.1 0.37,-0.1 0.37,-0.11 0.37,-0.11 0.37,-0.11 0.36,-0.13 0.37,-0.12 0.37,-0.14 0.37,-0.13 0.37,-0.15 0.36,-0.15 0.37,-0.16 0.37,-0.16 0.37,-0.17 0.37,-0.17 0.37,-0.18 0.36,-0.18 0.37,-0.19 0.37,-0.2 0.37,-0.19 0.37,-0.21 0.37,-0.2 0.36,-0.21 0.37,-0.21 0.37,-0.21 0.37,-0.21 0.37,-0.22 0.37,-0.21 0.36,-0.22 0.37,-0.22 0.37,-0.21 0.37,-0.22 0.37,-0.22 0.36,-0.21 0.37,-0.21 0.37,-0.22 0.37,-0.21 0.37,-0.21 0.37,-0.21 0.36,-0.2 0.37,-0.21 0.37,-0.2 0.37,-0.2 0.37,-0.19 0.37,-0.19 0.36,-0.18 0.37,-0.18 0.37,-0.17 0.37,-0.17 0.37,-0.16 0.36,-0.15 0.37,-0.15 0.37,-0.13 0.37,-0.13 0.37,-0.13 0.37,-0.11 0.36,-0.11 0.37,-0.1 0.37,-0.09 0.37,-0.09 0.37,-0.08 0.37,-0.08 0.36,-0.08 0.37,-0.08 0.37,-0.07 0.37,-0.08 0.37,-0.07 0.36,-0.08 0.37,-0.08 0.37,-0.08 0.37,-0.09 0.37,-0.09 0.37,-0.09 0.36,-0.1 0.37,-0.1 0.37,-0.11 0.37,-0.11 0.37,-0.11 0.37,-0.12 0.36,-0.12 0.37,-0.13 0.37,-0.12 0.37,-0.13 0.37,-0.12 0.36,-0.13 0.37,-0.12 0.37,-0.13 0.37,-0.12 0.37,-0.12 0.37,-0.11 0.36,-0.12 0.37,-0.11 0.37,-0.11 0.37,-0.11 0.37,-0.1 0.37,-0.11 0.36,-0.09 0.37,-0.1 0.37,-0.1 0.37,-0.09 0.37,-0.09 0.37,-0.09 0.36,-0.08 0.37,-0.09 0.37,-0.08 0.37,-0.08 0.37,-0.08 0.36,-0.07 0.37,-0.08 0.37,-0.07 0.37,-0.07 0.37,-0.07 0.37,-0.07 0.36,-0.06 0.37,-0.06 0.37,-0.06 0.37,-0.06 0.37,-0.06 0.37,-0.05 0.36,-0.06 0.37,-0.05 0.37,-0.05 0.37,-0.04 0.37,-0.05 0.36,-0.04 0.37,-0.04 0.37,-0.04 0.37,-0.04 0.37,-0.04 0.37,-0.03 0.36,-0.04 0.37,-0.03 0.37,-0.03 0.37,-0.03 0.37,-0.02 0.37,-0.03 0.36,-0.02 0.37,-0.02 0.37,-0.02 0.37,-0.01 0.37,-0.02 0.36,-0.01 0.37,-0.01 0.37,-0.01 0.37,-0.01 0.37,-0.01 0.37,-0.01 h 0.36 0.37 0.37 0.37 0.37 0.37 0.36 0.37 0.37 0.37 l 0.37,0.01 h 0.37 0.36 0.37 0.37 0.37 0.37 0.36 0.37 l 0.37,-0.01 h 0.37 l 0.37,-0.01 0.37,-0.01 0.36,-0.01 0.37,-0.01 0.37,-0.01 0.37,-0.01 0.37,-0.02 0.37,-0.02 0.36,-0.01 0.37,-0.02 0.37,-0.03 0.37,-0.02 0.37,-0.02 0.36,-0.03 0.37,-0.03 0.37,-0.03 0.37,-0.03 0.37,-0.03 0.37,-0.03 0.36,-0.03 0.37,-0.04 0.37,-0.03 0.37,-0.04 0.37,-0.03 0.37,-0.04 0.36,-0.03 0.37,-0.03 0.37,-0.04 0.37,-0.03 0.37,-0.03 0.36,-0.02 0.37,-0.03 0.37,-0.02 0.37,-0.02 0.37,-0.02 0.37,-0.01 0.36,-0.01 0.37,-0.01 h 0.37 0.37 0.37 0.37 l 0.36,0.01 h 0.37 l 0.37,0.01 0.37,0.01 h 0.37 l 0.36,0.01 h 0.37 l 0.37,0.01 h 0.37 l 0.37,-0.01 h 0.37 l 0.36,-0.01 0.37,-0.01 0.37,-0.02 0.37,-0.01 0.37,-0.02 0.37,-0.03 0.36,-0.02 0.37,-0.03 0.37,-0.03 0.37,-0.03 0.37,-0.03 0.37,-0.03 0.36,-0.04 0.37,-0.03 0.37,-0.03 0.37,-0.03 0.37,-0.04 0.36,-0.03 0.37,-0.03 0.37,-0.04 0.37,-0.03 0.37,-0.04 0.37,-0.03 0.36,-0.04 0.37,-0.03 0.37,-0.04 0.37,-0.04 0.37,-0.04 0.37,-0.04 0.36,-0.04 0.37,-0.04 0.37,-0.04 0.37,-0.04 0.37,-0.05 0.36,-0.04 0.37,-0.04 0.37,-0.04 0.37,-0.03 0.37,-0.04 0.37,-0.03 0.36,-0.04 0.37,-0.03 0.37,-0.02 0.37,-0.03 0.37,-0.02 0.37,-0.02 0.36,-0.02 0.37,-0.01 0.37,-0.02 0.37,-0.01 0.37,-0.01 h 0.36 l 0.37,-0.01 0.37,-0.01 h 0.37 l 0.37,-0.01 h 0.37 l 0.36,-0.01 h 0.37 0.37 l 0.37,-0.01 h 0.37 l 0.37,-0.01 h 0.36 l 0.37,-0.01 h 0.37 l 0.37,-0.01 h 0.37 l 0.36,-0.01 0.37,-0.01 h 0.37 l 0.37,-0.01 h 0.37 l 0.37,-0.01 0.36,-0.01 h 0.37 l 0.37,-0.01 h 0.37 l 0.37,-0.01 h 0.37 l 0.36,-0.01 h 0.37 0.37 l 0.37,-0.01 h 0.37 0.37 0.36 0.37 0.37 0.37 0.37 0.36 0.37 0.37 0.37 0.37 0.37 0.36 0.37 0.37 0.37 0.37 0.37 0.36 0.37 0.37 l 0.37,-0.01 h 0.37 0.36 0.37 l 0.37,-0.01 h 0.37 0.37 0.37 l 0.36,-0.01 h 0.37 0.37 0.37 0.37 0.37 0.36 0.37 l 0.37,0.01 h 0.37 0.37 0.36 0.37 l 0.37,0.01 h 0.37 0.37 l 0.37,0.01 h 0.36 0.37 0.37 l 0.37,0.01 h 0.37 0.37 0.36 0.37 0.37 0.37 0.37 l 0.36,-0.01 h 0.37 0.37 l 0.37,-0.01 h 0.37 l 0.37,-0.01 h 0.36 0.37 l 0.37,-0.01 h 0.37 l 0.37,-0.01 h 0.37 l 0.36,-0.01 h 0.37 0.37 0.37 0.37 l 0.37,-0.01 h 0.36 0.37 l 0.37,0.01 h 0.37 0.37 0.36 0.37 0.37 l 0.37,0.01 h 0.37 0.37 0.36 0.37 l 0.37,0.01 h 0.37 0.37 0.37 0.36 0.37 0.37 0.37 0.37 0.36 0.37 l 0.37,-0.01 h 0.37 0.37 0.37 l 0.36,-0.01 h 0.37 0.37 l 0.37,-0.01 h 0.37 0.37 l 0.36,-0.01 h 0.37 0.37 l 0.37,-0.01 h 0.37 l 0.36,-0.01 h 0.37 0.37 l 0.37,-0.01 h 0.37 0.37 l 0.36,-0.01 h 0.37 0.37 l 0.37,-0.01 h 0.37 l 0.37,-0.01 h 0.36 0.37" /><path
           id="path1447"
           style="fill:none;stroke:#525252;stroke-width:1.07;stroke-linecap:butt;stroke-linejoin:round;stroke-miterlimit:10;stroke-dasharray:none;stroke-opacity:1"
           d="m 30.94,165.59 h 0.37 0.37 l 0.36,0.01 0.37,0.02 0.37,0.03 0.37,0.03 0.37,0.03 0.37,0.01 0.36,-0.01 0.37,-0.03 0.37,-0.02 0.37,-0.02 h 0.37 l 0.36,0.03 0.37,0.08 0.37,0.14 0.37,0.2 0.37,0.3 0.37,0.39 0.36,0.52 0.37,0.63 0.37,0.71 0.37,0.72 0.37,0.62 0.37,0.45 0.36,0.24 0.37,0.08 0.37,0.01 0.37,0.07 0.37,0.23 0.37,0.48 0.36,0.85 0.37,1.41 0.37,2.23 0.37,3.29 0.37,4.45 0.36,5.37 0.37,5.66 0.37,5.12 0.37,3.91 0.37,2.53 0.37,1.5 0.36,0.95 0.37,0.6 0.37,0.32 0.37,0.31 0.37,0.87 0.37,1.97 0.36,3.25 0.37,4.2 0.37,4.58 0.37,4.45 0.37,4 0.36,3.31 0.37,2.32 0.37,1.04 0.37,-0.36 0.37,-1.56 0.37,-2.23 0.36,-2.3 0.37,-1.91 0.37,-1.38 0.37,-0.97 0.37,-0.78 0.37,-0.81 0.36,-1.1 0.37,-1.65 0.37,-2.44 0.37,-3.22 0.37,-3.58 0.36,-3.33 0.37,-2.61 0.37,-1.79 0.37,-1.29 0.37,-1.32 0.37,-1.78 0.36,-2.39 0.37,-2.92 0.37,-3.3 0.37,-3.49 0.37,-3.53 0.37,-3.37 0.36,-3.05 0.37,-2.6 0.37,-2.14 0.37,-1.74 0.37,-1.38 0.36,-1.08 0.37,-0.81 0.37,-0.62 0.37,-0.56 0.37,-0.6 0.37,-0.69 0.36,-0.75 0.37,-0.73 0.37,-0.61 0.37,-0.45 0.37,-0.3 0.37,-0.2 0.36,-0.16 0.37,-0.12 0.37,-0.11 0.37,-0.09 0.37,-0.08 0.37,-0.06 0.36,-0.04 0.37,-0.03 0.37,-0.02 0.37,-0.01 h 0.37 0.36 0.37 0.37 0.37 0.37 0.37 0.36 0.37 0.37 0.37 0.37 0.37 0.36 0.37 0.37 0.37 0.37 0.36 0.37 0.37 0.37 0.37 0.37 0.36 0.37 0.37 0.37 0.37 0.37 0.36 0.37 0.37 0.37 0.37 0.36 0.37 0.37 0.37 0.37 0.37 0.36 0.37 0.37 0.37 0.37 0.37 0.36 0.37 0.37 0.37 0.37 0.36 0.37 0.37 0.37 0.37 0.37 0.36 0.37 0.37 0.37 0.37 0.37 0.36 0.37 0.37 0.37 0.37 0.37 0.36 0.37 0.37 0.37 0.37 0.36 0.37 0.37 0.37 0.37 0.37 0.36 0.37 0.37 0.37 0.37 0.37 0.36 0.37 0.37 0.37 0.37 0.36 0.37 0.37 0.37 0.37 0.37 0.36 0.37 0.37 0.37 0.37 0.37 0.36 0.37 0.37 0.37 0.37 0.36 0.37 0.37 0.37 0.37 0.37 0.36 0.37 0.37 0.37 0.37 0.37 0.36 0.37 0.37 0.37 0.37 0.37 0.36 0.37 0.37 0.37 0.37 0.36 0.37 0.37 0.37 0.37 0.37 0.36 0.37 0.37 0.37 0.37 0.37 0.36 0.37 0.37 0.37 0.37 0.36 0.37 0.37 0.37 0.37 0.37 0.36 0.37 0.37 0.37 0.37 0.37 0.36 0.37 0.37 0.37 0.37 0.36 0.37 0.37 0.37 0.37 0.37 0.36 0.37 0.37 0.37 0.37 0.37 0.36 0.37 0.37 0.37 0.37 0.36 0.37 0.37 0.37 0.37 0.37 0.36 0.37 0.37 0.37 0.37 0.37 0.36 0.37 0.37 0.37 0.37 0.37 0.36 0.37 0.37 0.37 0.37 0.36 0.37 0.37 0.37 0.37 0.37 0.36 0.37 0.37 0.37 0.37 0.37 0.36 0.37 0.37 0.37 0.37 0.36 0.37 0.37 0.37 0.37 0.37 0.36 0.37 0.37 0.37 0.37 0.37 0.36 0.37 0.37 0.37 0.37 0.36 0.37 0.37 0.37 0.37 0.37 0.36 0.37 0.37 0.37 0.37 0.37 0.36 0.37 0.37 0.37 0.37 0.36 0.37 0.37 0.37 0.37 0.37 0.36 0.37 0.37 0.37 0.37 0.37 0.36 0.37 0.37 0.37 0.37 0.37 0.36 0.37 0.37 0.37 0.37 0.36 0.37 0.37 0.37 0.37 0.37 0.36 0.37 0.37 0.37 0.37 0.37 0.36 0.37 0.37 0.37 0.37 0.36 0.37 0.37 0.37 0.37 0.37 0.36 0.37 0.37 0.37 0.37 0.37 0.36 0.37 0.37 0.37 0.37 0.36 0.37 0.37 0.37 0.37 0.37 0.36 0.37 0.37 0.37 0.37 0.37 0.36 0.37 0.37 0.37 0.37 0.36 0.37 0.37 0.37 0.37 0.37 0.36 0.37 0.37 0.37 0.37 0.37 0.36 0.37 0.37 0.37 0.37 0.37 0.36 0.37 0.37 0.37 0.37 0.36 0.37 0.37 0.37 0.37 0.37 0.36 0.37 0.37 0.37 0.37 0.37 0.36 0.37 0.37 0.37 0.37 0.36 0.37 0.37 0.37 0.37 0.37 0.36 0.37 0.37 0.37 0.37 0.37 0.36 0.37 0.37 0.37 0.37 0.36 0.37 0.37 0.37 0.37 0.37 0.36 0.37 0.37 0.37 0.37 0.37 0.36 0.37" /><path
           id="path1449"
           style="fill:none;stroke:#000000;stroke-width:1.07;stroke-linecap:round;stroke-linejoin:round;stroke-miterlimit:10;stroke-dasharray:none;stroke-opacity:1"
           d="m 21.53,161.86 h 206.99 v 81.89 H 21.53 Z" /></g></g><g
       id="g1451" /><g
       id="g1453" /><g
       id="g1455" /><g
       id="g1457" /><g
       id="g1459" /><g
       id="g1461" /><g
       id="g1463" /><g
       id="g1465" /><g
       id="g1467" /><g
       id="g1469" /><g
       id="g1471" /><g
       id="g1473" /><g
       id="g1475" /><g
       id="g1477" /><g
       id="g1479" /><g
       id="g1481"><text
         id="text1485"
         style="font-variant:normal;font-weight:normal;font-size:8px;font-family:Helvetica;-inkscape-font-specification:Helvetica;writing-mode:lr-tb;fill:#000000;fill-opacity:1;fill-rule:nonzero;stroke:none"
         transform="matrix(1,0,0,-1,5.48,162.71)"><tspan
           id="tspan1483"
           sodipodi:role="line"
           y="0"
           x="0 4.448 6.6719999">0.0</tspan></text><text
         id="text1489"
         style="font-variant:normal;font-weight:normal;font-size:8px;font-family:Helvetica;-inkscape-font-specification:Helvetica;writing-mode:lr-tb;fill:#000000;fill-opacity:1;fill-rule:nonzero;stroke:none"
         transform="matrix(1,0,0,-1,5.48,184.38)"><tspan
           id="tspan1487"
           sodipodi:role="line"
           y="0"
           x="0 4.448 6.6719999">2.5</tspan></text><text
         id="text1493"
         style="font-variant:normal;font-weight:normal;font-size:8px;font-family:Helvetica;-inkscape-font-specification:Helvetica;writing-mode:lr-tb;fill:#000000;fill-opacity:1;fill-rule:nonzero;stroke:none"
         transform="matrix(1,0,0,-1,5.48,206.04)"><tspan
           id="tspan1491"
           sodipodi:role="line"
           y="0"
           x="0 4.448 6.6719999">5.0</tspan></text><text
         id="text1497"
         style="font-variant:normal;font-weight:normal;font-size:8px;font-family:Helvetica;-inkscape-font-specification:Helvetica;writing-mode:lr-tb;fill:#000000;fill-opacity:1;fill-rule:nonzero;stroke:none"
         transform="matrix(1,0,0,-1,5.48,227.7)"><tspan
           id="tspan1495"
           sodipodi:role="line"
           y="0"
           x="0 4.448 6.6719999">7.5</tspan></text></g><g
       id="g1499" /><g
       id="g1501"><path
         id="path1503"
         style="fill:none;stroke:#333333;stroke-width:1.07;stroke-linecap:butt;stroke-linejoin:round;stroke-miterlimit:10;stroke-dasharray:none;stroke-opacity:1"
         d="m 18.79,165.59 h 2.74" /><path
         id="path1505"
         style="fill:none;stroke:#333333;stroke-width:1.07;stroke-linecap:butt;stroke-linejoin:round;stroke-miterlimit:10;stroke-dasharray:none;stroke-opacity:1"
         d="m 18.79,187.25 h 2.74" /><path
         id="path1507"
         style="fill:none;stroke:#333333;stroke-width:1.07;stroke-linecap:butt;stroke-linejoin:round;stroke-miterlimit:10;stroke-dasharray:none;stroke-opacity:1"
         d="m 18.79,208.91 h 2.74" /><path
         id="path1509"
         style="fill:none;stroke:#333333;stroke-width:1.07;stroke-linecap:butt;stroke-linejoin:round;stroke-miterlimit:10;stroke-dasharray:none;stroke-opacity:1"
         d="m 18.79,230.57 h 2.74" /></g><g
       id="g1511" /><g
       id="g1513" /><g
       id="g1515" /><g
       id="g1517" /><g
       id="g1519" /><g
       id="g1521" /><g
       id="g1523" /><g
       id="g1525" /><g
       id="g1527" /><g
       id="g1529"><path
         id="path1531"
         style="fill:none;stroke:#333333;stroke-width:1.07;stroke-linecap:butt;stroke-linejoin:round;stroke-miterlimit:10;stroke-dasharray:none;stroke-opacity:1"
         d="m 21.77,159.12 v 2.74" /><path
         id="path1533"
         style="fill:none;stroke:#333333;stroke-width:1.07;stroke-linecap:butt;stroke-linejoin:round;stroke-miterlimit:10;stroke-dasharray:none;stroke-opacity:1"
         d="m 75.06,159.12 v 2.74" /><path
         id="path1535"
         style="fill:none;stroke:#333333;stroke-width:1.07;stroke-linecap:butt;stroke-linejoin:round;stroke-miterlimit:10;stroke-dasharray:none;stroke-opacity:1"
         d="m 128.36,159.12 v 2.74" /><path
         id="path1537"
         style="fill:none;stroke:#333333;stroke-width:1.07;stroke-linecap:butt;stroke-linejoin:round;stroke-miterlimit:10;stroke-dasharray:none;stroke-opacity:1"
         d="m 181.66,159.12 v 2.74" /></g><g
       id="g1539" /><g
       id="g1541"><text
         id="text1545"
         style="font-variant:normal;font-weight:normal;font-size:8px;font-family:Helvetica;-inkscape-font-specification:Helvetica;writing-mode:lr-tb;fill:#000000;fill-opacity:1;fill-rule:nonzero;stroke:none"
         transform="matrix(1,0,0,-1,16.21,151.19)"><tspan
           id="tspan1543"
           sodipodi:role="line"
           y="0"
           x="0 4.448 6.6719999">0.0</tspan></text><text
         id="text1549"
         style="font-variant:normal;font-weight:normal;font-size:8px;font-family:Helvetica;-inkscape-font-specification:Helvetica;writing-mode:lr-tb;fill:#000000;fill-opacity:1;fill-rule:nonzero;stroke:none"
         transform="matrix(1,0,0,-1,69.5,151.19)"><tspan
           id="tspan1547"
           sodipodi:role="line"
           y="0"
           x="0 4.448 6.6719999">0.5</tspan></text><text
         id="text1553"
         style="font-variant:normal;font-weight:normal;font-size:8px;font-family:Helvetica;-inkscape-font-specification:Helvetica;writing-mode:lr-tb;fill:#000000;fill-opacity:1;fill-rule:nonzero;stroke:none"
         transform="matrix(1,0,0,-1,122.8,151.19)"><tspan
           id="tspan1551"
           sodipodi:role="line"
           y="0"
           x="0 4.448 6.6719999">1.0</tspan></text><text
         id="text1557"
         style="font-variant:normal;font-weight:normal;font-size:8px;font-family:Helvetica;-inkscape-font-specification:Helvetica;writing-mode:lr-tb;fill:#000000;fill-opacity:1;fill-rule:nonzero;stroke:none"
         transform="matrix(1,0,0,-1,176.1,151.19)"><tspan
           id="tspan1555"
           sodipodi:role="line"
           y="0"
           x="0 4.448 6.6719999">1.5</tspan></text></g><g
       id="g1559" /><g
       id="g1561" /><g
       id="g1563" /><g
       id="g1565" /><g
       id="g1567" /><g
       id="g1569"><text
         id="text1573"
         style="font-variant:normal;font-weight:normal;font-size:10px;font-family:Helvetica;-inkscape-font-specification:Helvetica;writing-mode:lr-tb;fill:#000000;fill-opacity:1;fill-rule:nonzero;stroke:none"
         transform="matrix(1,0,0,-1,113.2,139.58)"><tspan
           id="tspan1571"
           sodipodi:role="line"
           y="0"
           x="0 4.75 10.31 12.53 18.09">value</tspan></text></g><g
       id="g1575" /><g
       id="g1577" /><g
       id="g1579" /><g
       id="g1581" /><g
       id="g1583" /><g
       id="g1585" /><g
       id="g1587" /><g
       transform="translate(-22.5,6)"
       id="g1589"><text
         id="text1593"
         style="font-variant:normal;font-weight:normal;font-size:10px;font-family:Helvetica;-inkscape-font-specification:Helvetica;writing-mode:lr-tb;fill:#000000;fill-opacity:1;fill-rule:nonzero;stroke:none"
         transform="matrix(1,0,0,-1,21.53,251.34)"><tspan
           id="tspan1591"
           sodipodi:role="line"
           y="0"
           x="0 5.5599999 8.8900003 17.23 22.790001 28.35 36.68 45.009998">b) gamma</tspan></text></g><g
       id="g1595" /><g
       id="g1597" /><g
       id="g1599" /><g
       id="g1601" /><g
       id="g1603" /><g
       id="g1605" /><g
       id="g1607" /><g
       id="g1609" /><g
       id="g1611" /><g
       id="g1613" /><g
       id="g1615" /><g
       id="g1617" /><g
       id="g1619" /><g
       id="g1621" /><g
       id="g1623"><g
         clip-path="url(#clipPath1629)"
         id="g1625"><path
           id="path1631"
           style="fill:#ffffff;fill-opacity:1;fill-rule:nonzero;stroke:#ffffff;stroke-width:1.07;stroke-linecap:round;stroke-linejoin:round;stroke-miterlimit:10;stroke-dasharray:none;stroke-opacity:1"
           d="M 234,132 H 468 V 264 H 234 Z" /></g></g><g
       id="g1633" /><g
       id="g1635"><g
         clip-path="url(#clipPath1641)"
         id="g1637"><path
           id="path1643"
           style="fill:#ffffff;fill-opacity:1;fill-rule:nonzero;stroke:none"
           d="m 255.53,161.86 h 206.99 v 81.89 H 255.53 Z" /><path
           id="path1645"
           style="fill:none;stroke:#1b9e77;stroke-width:1.07;stroke-linecap:butt;stroke-linejoin:round;stroke-miterlimit:10;stroke-dasharray:none;stroke-opacity:1"
           d="m 264.94,204.68 0.37,10.07 0.37,8.92 0.36,7.02 0.37,4.83 0.37,2.83 0.37,1.31 0.37,0.37 0.37,-0.11 0.36,-0.3 0.37,-0.37 0.37,-0.44 0.37,-0.55 0.37,-0.7 0.36,-0.87 0.37,-1.04 0.37,-1.2 0.37,-1.37 0.37,-1.56 0.37,-1.73 0.36,-1.9 0.37,-2.05 0.37,-2.16 0.37,-2.21 0.37,-2.19 0.37,-2.09 0.36,-1.88 0.37,-1.55 0.37,-1.14 0.37,-0.75 0.37,-0.53 0.37,-0.61 0.36,-1.03 0.37,-1.74 0.37,-2.48 0.37,-3.06 0.37,-3.31 0.36,-3.23 0.37,-2.93 0.37,-2.58 0.37,-2.28 0.37,-2.06 0.37,-1.84 0.36,-1.6 0.37,-1.33 0.37,-1.05 0.37,-0.8 0.37,-0.6 0.37,-0.45 0.36,-0.31 0.37,-0.19 0.37,-0.07 0.37,0.02 0.37,0.06 0.36,0.03 0.37,-0.07 0.37,-0.25 0.37,-0.48 0.37,-0.69 0.37,-0.85 0.36,-0.94 0.37,-0.91 0.37,-0.82 0.37,-0.67 0.37,-0.49 0.37,-0.34 0.36,-0.24 0.37,-0.2 0.37,-0.21 0.37,-0.24 0.37,-0.29 0.36,-0.3 0.37,-0.31 0.37,-0.29 0.37,-0.26 0.37,-0.23 0.37,-0.19 0.36,-0.17 0.37,-0.14 0.37,-0.13 0.37,-0.13 0.37,-0.15 0.37,-0.16 0.36,-0.19 0.37,-0.21 0.37,-0.22 0.37,-0.2 0.37,-0.18 0.36,-0.15 0.37,-0.11 0.37,-0.07 0.37,-0.04 0.37,-0.01 0.37,-0.01 0.36,-0.02 0.37,-0.05 0.37,-0.08 0.37,-0.09 0.37,-0.1 0.37,-0.09 0.36,-0.08 0.37,-0.07 0.37,-0.04 0.37,-0.04 0.37,-0.02 0.37,-0.01 h 0.36 l 0.37,0.01 0.37,0.01 0.37,0.01 h 0.37 0.36 l 0.37,-0.02 0.37,-0.01 h 0.37 0.37 l 0.37,0.01 0.36,0.02 0.37,0.02 0.37,0.02 0.37,0.01 0.37,0.01 h 0.37 0.36 0.37 0.37 0.37 l 0.37,0.01 0.36,0.01 0.37,0.01 0.37,0.01 h 0.37 0.37 l 0.37,-0.01 0.36,-0.01 0.37,-0.01 0.37,-0.01 0.37,-0.01 0.37,-0.02 0.37,-0.02 0.36,-0.02 0.37,-0.03 0.37,-0.02 0.37,-0.02 0.37,-0.02 0.36,-0.01 h 0.37 0.37 0.37 0.37 0.37 0.36 0.37 0.37 0.37 0.37 0.37 l 0.36,0.01 0.37,0.01 0.37,0.01 0.37,0.02 0.37,0.03 0.36,0.04 0.37,0.03 0.37,0.02 0.37,0.02 h 0.37 l 0.37,-0.01 0.36,-0.02 0.37,-0.03 0.37,-0.03 0.37,-0.03 0.37,-0.03 0.37,-0.02 0.36,-0.01 0.37,-0.01 h 0.37 0.37 0.37 0.37 0.36 0.37 0.37 0.37 0.37 0.36 0.37 l 0.37,0.01 0.37,0.02 0.37,0.02 0.37,0.02 0.36,0.02 0.37,0.02 h 0.37 0.37 l 0.37,-0.02 0.37,-0.02 0.36,-0.02 0.37,-0.02 0.37,-0.02 h 0.37 l 0.37,-0.01 h 0.36 0.37 0.37 0.37 0.37 0.37 0.36 0.37 0.37 0.37 0.37 0.37 0.36 0.37 0.37 0.37 0.37 0.36 0.37 0.37 0.37 0.37 0.37 0.36 0.37 0.37 0.37 0.37 0.37 0.36 0.37 0.37 0.37 0.37 0.37 0.36 0.37 0.37 0.37 0.37 0.36 0.37 0.37 0.37 0.37 0.37 0.36 0.37 0.37 0.37 0.37 0.37 0.36 0.37 0.37 0.37 0.37 0.36 0.37 0.37 0.37 0.37 0.37 0.36 0.37 0.37 0.37 0.37 0.37 0.36 0.37 0.37 0.37 0.37 0.36 0.37 0.37 0.37 0.37 0.37 0.36 0.37 0.37 0.37 0.37 0.37 0.36 0.37 0.37 0.37 0.37 0.36 0.37 0.37 0.37 0.37 0.37 0.36 0.37 0.37 0.37 0.37 0.37 0.36 0.37 0.37 0.37 0.37 0.37 0.36 0.37 0.37 0.37 0.37 0.36 0.37 0.37 0.37 0.37 0.37 0.36 0.37 0.37 0.37 0.37 0.37 0.36 0.37 0.37 0.37 0.37 0.36 0.37 0.37 0.37 0.37 0.37 0.36 0.37 0.37 0.37 0.37 0.37 0.36 0.37 0.37 0.37 0.37 0.36 0.37 0.37 0.37 0.37 0.37 0.36 0.37 0.37 0.37 0.37 0.37 0.36 0.37 0.37 0.37 0.37 0.36 0.37 0.37 0.37 0.37 0.37 0.36 0.37 0.37 0.37 0.37 0.37 0.36 0.37 0.37 0.37 0.37 0.37 0.36 0.37 0.37 0.37 0.37 0.36 0.37 0.37 0.37 0.37 0.37 0.36 0.37 0.37 0.37 0.37 0.37 0.36 0.37 0.37 0.37 0.37 0.36 0.37 0.37 0.37 0.37 0.37 0.36 0.37 0.37 0.37 0.37 0.37 0.36 0.37 0.37 0.37 0.37 0.36 0.37 0.37 0.37 0.37 0.37 0.36 0.37 0.37 0.37 0.37 0.37 0.36 0.37 0.37 0.37 0.37 0.36 0.37 0.37 0.37 0.37 0.37 0.36 0.37 0.37 0.37 0.37 0.37 0.36 0.37 0.37 0.37 0.37 0.37 0.36 0.37 0.37 0.37 0.37 0.36 0.37 0.37 0.37 0.37 0.37 0.36 0.37 0.37 0.37 0.37 0.37 0.36 0.37 0.37 0.37 0.37 0.36 0.37 0.37 0.37 0.37 0.37 0.36 0.37 0.37 0.37 0.37 0.37 0.36 0.37 0.37 0.37 0.37 0.36 0.37 0.37 0.37 0.37 0.37 0.36 0.37 0.37 0.37 0.37 0.37 0.36 0.37" /><path
           id="path1647"
           style="fill:none;stroke:#d95f02;stroke-width:1.07;stroke-linecap:butt;stroke-linejoin:round;stroke-miterlimit:10;stroke-dasharray:none;stroke-opacity:1"
           d="m 264.94,167.93 0.37,0.4 0.37,0.44 0.36,0.47 0.37,0.51 0.37,0.55 0.37,0.57 0.37,0.6 0.37,0.62 0.36,0.63 0.37,0.64 0.37,0.64 0.37,0.64 0.37,0.63 0.36,0.63 0.37,0.61 0.37,0.6 0.37,0.58 0.37,0.57 0.37,0.56 0.36,0.55 0.37,0.54 0.37,0.54 0.37,0.53 0.37,0.54 0.37,0.53 0.36,0.55 0.37,0.54 0.37,0.55 0.37,0.55 0.37,0.56 0.37,0.55 0.36,0.55 0.37,0.54 0.37,0.53 0.37,0.52 0.37,0.5 0.36,0.48 0.37,0.45 0.37,0.43 0.37,0.4 0.37,0.37 0.37,0.33 0.36,0.31 0.37,0.28 0.37,0.25 0.37,0.22 0.37,0.18 0.37,0.15 0.36,0.13 0.37,0.09 0.37,0.07 0.37,0.04 h 0.37 l 0.36,-0.02 0.37,-0.06 0.37,-0.08 0.37,-0.11 0.37,-0.14 0.37,-0.17 0.36,-0.19 0.37,-0.22 0.37,-0.24 0.37,-0.27 0.37,-0.29 0.37,-0.31 0.36,-0.33 0.37,-0.34 0.37,-0.36 0.37,-0.37 0.37,-0.39 0.36,-0.39 0.37,-0.4 0.37,-0.41 0.37,-0.41 0.37,-0.4 0.37,-0.41 0.36,-0.39 0.37,-0.38 0.37,-0.37 0.37,-0.35 0.37,-0.33 0.37,-0.31 0.36,-0.28 0.37,-0.26 0.37,-0.24 0.37,-0.21 0.37,-0.18 0.36,-0.16 0.37,-0.14 0.37,-0.12 0.37,-0.1 0.37,-0.1 0.37,-0.09 0.36,-0.09 0.37,-0.08 0.37,-0.09 0.37,-0.1 0.37,-0.11 0.37,-0.12 0.36,-0.14 0.37,-0.15 0.37,-0.18 0.37,-0.19 0.37,-0.22 0.37,-0.23 0.36,-0.26 0.37,-0.27 0.37,-0.29 0.37,-0.3 0.37,-0.31 0.36,-0.33 0.37,-0.34 0.37,-0.34 0.37,-0.34 0.37,-0.35 0.37,-0.34 0.36,-0.34 0.37,-0.33 0.37,-0.33 0.37,-0.31 0.37,-0.31 0.37,-0.29 0.36,-0.27 0.37,-0.27 0.37,-0.25 0.37,-0.23 0.37,-0.21 0.36,-0.2 0.37,-0.17 0.37,-0.16 0.37,-0.15 0.37,-0.13 0.37,-0.11 0.36,-0.11 0.37,-0.08 0.37,-0.08 0.37,-0.07 0.37,-0.06 0.37,-0.06 0.36,-0.05 0.37,-0.05 0.37,-0.05 0.37,-0.04 0.37,-0.05 0.36,-0.04 0.37,-0.05 0.37,-0.04 0.37,-0.04 0.37,-0.05 0.37,-0.05 0.36,-0.04 0.37,-0.05 0.37,-0.05 0.37,-0.04 0.37,-0.06 0.37,-0.05 0.36,-0.06 0.37,-0.06 0.37,-0.06 0.37,-0.07 0.37,-0.08 0.36,-0.08 0.37,-0.08 0.37,-0.08 0.37,-0.08 0.37,-0.08 0.37,-0.07 0.36,-0.06 0.37,-0.05 0.37,-0.04 0.37,-0.02 h 0.37 l 0.37,0.02 0.36,0.04 0.37,0.07 0.37,0.09 0.37,0.11 0.37,0.14 0.37,0.14 0.36,0.15 0.37,0.16 0.37,0.15 0.37,0.15 0.37,0.13 0.36,0.1 0.37,0.07 0.37,0.04 0.37,0.01 0.37,-0.03 0.37,-0.08 0.36,-0.11 0.37,-0.16 0.37,-0.19 0.37,-0.23 0.37,-0.24 0.37,-0.27 0.36,-0.28 0.37,-0.29 0.37,-0.29 0.37,-0.29 0.37,-0.27 0.36,-0.27 0.37,-0.25 0.37,-0.24 0.37,-0.21 0.37,-0.2 0.37,-0.18 0.36,-0.15 0.37,-0.14 0.37,-0.12 0.37,-0.11 0.37,-0.09 0.37,-0.07 0.36,-0.07 0.37,-0.05 0.37,-0.05 0.37,-0.03 0.37,-0.02 0.36,-0.02 0.37,-0.01 h 0.37 0.37 l 0.37,0.01 0.37,0.02 0.36,0.03 0.37,0.02 0.37,0.04 0.37,0.03 0.37,0.04 0.37,0.04 0.36,0.04 0.37,0.04 0.37,0.04 0.37,0.03 0.37,0.03 0.37,0.03 0.36,0.02 0.37,0.02 h 0.37 0.37 0.37 l 0.36,-0.02 0.37,-0.02 0.37,-0.03 0.37,-0.04 0.37,-0.04 0.37,-0.05 0.36,-0.05 0.37,-0.06 0.37,-0.06 0.37,-0.06 0.37,-0.06 0.37,-0.06 0.36,-0.06 0.37,-0.06 0.37,-0.06 0.37,-0.05 0.37,-0.05 0.36,-0.05 0.37,-0.04 0.37,-0.04 0.37,-0.04 0.37,-0.03 0.37,-0.03 0.36,-0.03 0.37,-0.03 0.37,-0.02 0.37,-0.02 0.37,-0.02 0.37,-0.02 0.36,-0.02 0.37,-0.02 0.37,-0.02 0.37,-0.02 0.37,-0.02 0.36,-0.02 0.37,-0.02 0.37,-0.02 0.37,-0.02 0.37,-0.02 0.37,-0.03 0.36,-0.02 0.37,-0.02 0.37,-0.02 0.37,-0.02 0.37,-0.02 0.37,-0.02 0.36,-0.02 0.37,-0.02 0.37,-0.02 0.37,-0.01 0.37,-0.01 0.36,-0.01 0.37,-0.01 0.37,-0.01 0.37,-0.01 h 0.37 l 0.37,-0.01 h 0.36 0.37 0.37 0.37 0.37 0.37 0.36 0.37 0.37 0.37 0.37 l 0.37,0.01 h 0.36 0.37 0.37 0.37 0.37 l 0.36,-0.01 h 0.37 0.37 0.37 l 0.37,-0.01 h 0.37 0.36 l 0.37,-0.01 h 0.37 l 0.37,-0.01 0.37,-0.01 h 0.37 l 0.36,-0.01 0.37,-0.01 0.37,-0.01 h 0.37 l 0.37,-0.01 0.36,-0.01 0.37,-0.01 h 0.37 l 0.37,-0.01 0.37,-0.01 h 0.37 l 0.36,-0.01 h 0.37 0.37 0.37 0.37 0.37 0.36 0.37 0.37 l 0.37,0.01 h 0.37 l 0.36,0.01 h 0.37 l 0.37,0.01 h 0.37 l 0.37,0.01 h 0.37 0.36 l 0.37,0.01 h 0.37 0.37 0.37 0.37 0.36 0.37 l 0.37,-0.01 h 0.37 0.37 0.36 l 0.37,-0.01 h 0.37 0.37 0.37 l 0.37,-0.01 h 0.36 0.37 0.37 0.37 0.37 l 0.37,-0.01 h 0.36 0.37 0.37 0.37 l 0.37,-0.01 h 0.37 0.36 0.37 l 0.37,-0.01 h 0.37 0.37 l 0.36,-0.01 h 0.37 0.37 0.37 0.37 l 0.37,-0.01 h 0.36 0.37 0.37 0.37 0.37 0.37 0.36 0.37 0.37 0.37 0.37 0.36 0.37 0.37 0.37 0.37 0.37 0.36 0.37 0.37 0.37 0.37 0.37 0.36 0.37 0.37 0.37 0.37 0.36 0.37 0.37 0.37 0.37 0.37 0.36 0.37 0.37 0.37 0.37 0.37 0.36 l 0.37,0.01 h 0.37 0.37 0.37 0.36 l 0.37,0.01 h 0.37 0.37 l 0.37,0.01 h 0.37 0.36 0.37 0.37 0.37 l 0.37,0.01 h 0.37 0.36 l 0.37,-0.01 h 0.37 0.37 0.37 0.37 l 0.36,-0.01 h 0.37 0.37 0.37 l 0.37,-0.01 h 0.36 0.37 0.37 0.37 l 0.37,-0.01 h 0.37 0.36 0.37 0.37 0.37 0.37 0.37 0.36 0.37 0.37 0.37 0.37 0.36 0.37 0.37 0.37 0.37 0.37 0.36 0.37 0.37 0.37 0.37 0.37 0.36 0.37 0.37 l 0.37,0.01 h 0.37 0.36 0.37 0.37 l 0.37,0.01 h 0.37 0.37 l 0.36,0.01 h 0.37 0.37 0.37 0.37 0.37 l 0.36,0.01 h 0.37" /><path
           id="path1649"
           style="fill:none;stroke:#000000;stroke-width:1.07;stroke-linecap:round;stroke-linejoin:round;stroke-miterlimit:10;stroke-dasharray:none;stroke-opacity:1"
           d="m 255.53,161.86 h 206.99 v 81.89 H 255.53 Z" /></g></g><g
       id="g1651" /><g
       id="g1653" /><g
       id="g1655" /><g
       id="g1657" /><g
       id="g1659" /><g
       id="g1661" /><g
       id="g1663" /><g
       id="g1665" /><g
       id="g1667" /><g
       id="g1669" /><g
       id="g1671" /><g
       id="g1673" /><g
       id="g1675" /><g
       id="g1677" /><g
       id="g1679" /><g
       id="g1681"><text
         id="text1685"
         style="font-variant:normal;font-weight:normal;font-size:8px;font-family:Helvetica;-inkscape-font-specification:Helvetica;writing-mode:lr-tb;fill:#000000;fill-opacity:1;fill-rule:nonzero;stroke:none"
         transform="matrix(1,0,0,-1,239.48,162.71)"><tspan
           id="tspan1683"
           sodipodi:role="line"
           y="0"
           x="0 4.448 6.6719999">0.0</tspan></text><text
         id="text1689"
         style="font-variant:normal;font-weight:normal;font-size:8px;font-family:Helvetica;-inkscape-font-specification:Helvetica;writing-mode:lr-tb;fill:#000000;fill-opacity:1;fill-rule:nonzero;stroke:none"
         transform="matrix(1,0,0,-1,239.48,186.14)"><tspan
           id="tspan1687"
           sodipodi:role="line"
           y="0"
           x="0 4.448 6.6719999">0.5</tspan></text><text
         id="text1693"
         style="font-variant:normal;font-weight:normal;font-size:8px;font-family:Helvetica;-inkscape-font-specification:Helvetica;writing-mode:lr-tb;fill:#000000;fill-opacity:1;fill-rule:nonzero;stroke:none"
         transform="matrix(1,0,0,-1,239.48,209.57)"><tspan
           id="tspan1691"
           sodipodi:role="line"
           y="0"
           x="0 4.448 6.6719999">1.0</tspan></text><text
         id="text1697"
         style="font-variant:normal;font-weight:normal;font-size:8px;font-family:Helvetica;-inkscape-font-specification:Helvetica;writing-mode:lr-tb;fill:#000000;fill-opacity:1;fill-rule:nonzero;stroke:none"
         transform="matrix(1,0,0,-1,239.48,233)"><tspan
           id="tspan1695"
           sodipodi:role="line"
           y="0"
           x="0 4.448 6.6719999">1.5</tspan></text></g><g
       id="g1699" /><g
       id="g1701"><path
         id="path1703"
         style="fill:none;stroke:#333333;stroke-width:1.07;stroke-linecap:butt;stroke-linejoin:round;stroke-miterlimit:10;stroke-dasharray:none;stroke-opacity:1"
         d="m 252.79,165.59 h 2.74" /><path
         id="path1705"
         style="fill:none;stroke:#333333;stroke-width:1.07;stroke-linecap:butt;stroke-linejoin:round;stroke-miterlimit:10;stroke-dasharray:none;stroke-opacity:1"
         d="m 252.79,189.01 h 2.74" /><path
         id="path1707"
         style="fill:none;stroke:#333333;stroke-width:1.07;stroke-linecap:butt;stroke-linejoin:round;stroke-miterlimit:10;stroke-dasharray:none;stroke-opacity:1"
         d="m 252.79,212.44 h 2.74" /><path
         id="path1709"
         style="fill:none;stroke:#333333;stroke-width:1.07;stroke-linecap:butt;stroke-linejoin:round;stroke-miterlimit:10;stroke-dasharray:none;stroke-opacity:1"
         d="m 252.79,235.87 h 2.74" /></g><g
       id="g1711" /><g
       id="g1713" /><g
       id="g1715" /><g
       id="g1717" /><g
       id="g1719" /><g
       id="g1721" /><g
       id="g1723" /><g
       id="g1725" /><g
       id="g1727" /><g
       id="g1729"><path
         id="path1731"
         style="fill:none;stroke:#333333;stroke-width:1.07;stroke-linecap:butt;stroke-linejoin:round;stroke-miterlimit:10;stroke-dasharray:none;stroke-opacity:1"
         d="m 264.69,159.12 v 2.74" /><path
         id="path1733"
         style="fill:none;stroke:#333333;stroke-width:1.07;stroke-linecap:butt;stroke-linejoin:round;stroke-miterlimit:10;stroke-dasharray:none;stroke-opacity:1"
         d="m 318.46,159.12 v 2.74" /><path
         id="path1735"
         style="fill:none;stroke:#333333;stroke-width:1.07;stroke-linecap:butt;stroke-linejoin:round;stroke-miterlimit:10;stroke-dasharray:none;stroke-opacity:1"
         d="m 372.23,159.12 v 2.74" /><path
         id="path1737"
         style="fill:none;stroke:#333333;stroke-width:1.07;stroke-linecap:butt;stroke-linejoin:round;stroke-miterlimit:10;stroke-dasharray:none;stroke-opacity:1"
         d="m 426.01,159.12 v 2.74" /></g><g
       id="g1739" /><g
       id="g1741"><text
         id="text1745"
         style="font-variant:normal;font-weight:normal;font-size:8px;font-family:Helvetica;-inkscape-font-specification:Helvetica;writing-mode:lr-tb;fill:#000000;fill-opacity:1;fill-rule:nonzero;stroke:none"
         transform="matrix(1,0,0,-1,259.13,151.19)"><tspan
           id="tspan1743"
           sodipodi:role="line"
           y="0"
           x="0 4.448 6.6719999">0.0</tspan></text><text
         id="text1749"
         style="font-variant:normal;font-weight:normal;font-size:8px;font-family:Helvetica;-inkscape-font-specification:Helvetica;writing-mode:lr-tb;fill:#000000;fill-opacity:1;fill-rule:nonzero;stroke:none"
         transform="matrix(1,0,0,-1,312.9,151.19)"><tspan
           id="tspan1747"
           sodipodi:role="line"
           y="0"
           x="0 4.448 6.6719999">2.5</tspan></text><text
         id="text1753"
         style="font-variant:normal;font-weight:normal;font-size:8px;font-family:Helvetica;-inkscape-font-specification:Helvetica;writing-mode:lr-tb;fill:#000000;fill-opacity:1;fill-rule:nonzero;stroke:none"
         transform="matrix(1,0,0,-1,366.67,151.19)"><tspan
           id="tspan1751"
           sodipodi:role="line"
           y="0"
           x="0 4.448 6.6719999">5.0</tspan></text><text
         id="text1757"
         style="font-variant:normal;font-weight:normal;font-size:8px;font-family:Helvetica;-inkscape-font-specification:Helvetica;writing-mode:lr-tb;fill:#000000;fill-opacity:1;fill-rule:nonzero;stroke:none"
         transform="matrix(1,0,0,-1,420.45,151.19)"><tspan
           id="tspan1755"
           sodipodi:role="line"
           y="0"
           x="0 4.448 6.6719999">7.5</tspan></text></g><g
       id="g1759" /><g
       id="g1761" /><g
       id="g1763" /><g
       id="g1765" /><g
       id="g1767" /><g
       id="g1769"><text
         id="text1773"
         style="font-variant:normal;font-weight:normal;font-size:10px;font-family:Helvetica;-inkscape-font-specification:Helvetica;writing-mode:lr-tb;fill:#000000;fill-opacity:1;fill-rule:nonzero;stroke:none"
         transform="matrix(1,0,0,-1,347.2,139.58)"><tspan
           id="tspan1771"
           sodipodi:role="line"
           y="0"
           x="0 4.75 10.31 12.53 18.09">value</tspan></text></g><g
       id="g1775" /><g
       id="g1777" /><g
       id="g1779" /><g
       id="g1781" /><g
       id="g1783" /><g
       id="g1785" /><g
       id="g1787" /><g
       id="g1789" /><g
       id="g1791" /><g
       id="g1793" /><g
       id="g1795" /><g
       id="g1797" /><g
       id="g1799" /><g
       id="g1801" /><g
       id="g1803" /><g
       id="g1805" /><g
       id="g1807" /><g
       id="g1809" /><g
       id="g1811" /><g
       id="g1813" /><g
       id="g1815" /><g
       id="g1817" /><g
       id="g1819"><g
         clip-path="url(#clipPath1825)"
         id="g1821"><path
           id="path1827"
           style="fill:#ffffff;fill-opacity:1;fill-rule:nonzero;stroke:#ffffff;stroke-width:1.07;stroke-linecap:round;stroke-linejoin:round;stroke-miterlimit:10;stroke-dasharray:none;stroke-opacity:1"
           d="M 0,0 H 234 V 132 H 0 Z" /></g></g><g
       id="g1829" /><g
       id="g1831"><g
         clip-path="url(#clipPath1837)"
         id="g1833"><path
           id="path1839"
           style="fill:#ffffff;fill-opacity:1;fill-rule:nonzero;stroke:none"
           d="m 19.31,29.86 h 209.21 v 81.89 H 19.31 Z" /><path
           id="path1841"
           style="fill:none;stroke:#e6ab02;stroke-width:1.07;stroke-linecap:butt;stroke-linejoin:round;stroke-miterlimit:10;stroke-dasharray:none;stroke-opacity:1"
           d="m 28.82,35.03 0.37,0.18 0.37,0.2 0.37,0.21 0.38,0.22 0.37,0.24 0.37,0.25 0.37,0.26 0.37,0.27 0.38,0.29 0.37,0.29 0.37,0.3 0.37,0.3 0.38,0.3 0.37,0.31 0.37,0.31 0.37,0.3 0.37,0.3 0.38,0.3 0.37,0.28 0.37,0.28 0.37,0.26 0.38,0.25 0.37,0.24 0.37,0.23 0.37,0.21 0.37,0.19 0.38,0.18 0.37,0.17 0.37,0.15 0.37,0.14 0.37,0.13 0.38,0.11 0.37,0.1 0.37,0.1 0.37,0.09 0.38,0.07 0.37,0.08 0.37,0.06 0.37,0.06 0.37,0.05 0.38,0.05 0.37,0.05 0.37,0.04 0.37,0.04 0.38,0.04 0.37,0.03 0.37,0.02 0.37,0.03 0.37,0.02 0.38,0.01 0.37,0.01 0.37,0.01 h 0.37 l 0.38,-0.01 0.37,-0.02 0.37,-0.02 0.37,-0.03 0.37,-0.04 0.38,-0.05 0.37,-0.06 0.37,-0.07 0.37,-0.09 0.38,-0.1 0.37,-0.1 0.37,-0.13 0.37,-0.13 0.37,-0.15 0.38,-0.16 0.37,-0.17 0.37,-0.18 0.37,-0.19 0.38,-0.2 0.37,-0.2 0.37,-0.21 0.37,-0.21 0.37,-0.22 0.38,-0.21 0.37,-0.21 0.37,-0.21 0.37,-0.2 0.37,-0.2 0.38,-0.19 0.37,-0.18 0.37,-0.17 0.37,-0.17 0.38,-0.15 0.37,-0.14 0.37,-0.13 0.37,-0.12 0.37,-0.11 0.38,-0.1 0.37,-0.1 0.37,-0.08 0.37,-0.08 0.38,-0.07 0.37,-0.07 0.37,-0.06 0.37,-0.06 0.37,-0.06 0.38,-0.05 0.37,-0.05 0.37,-0.06 0.37,-0.05 0.38,-0.05 0.37,-0.05 0.37,-0.05 0.37,-0.06 0.37,-0.05 0.38,-0.06 0.37,-0.05 0.37,-0.05 0.37,-0.06 0.38,-0.05 0.37,-0.06 0.37,-0.06 0.37,-0.05 0.37,-0.06 0.38,-0.05 0.37,-0.05 0.37,-0.06 0.37,-0.05 0.38,-0.06 0.37,-0.05 0.37,-0.06 0.37,-0.05 0.37,-0.05 0.38,-0.06 0.37,-0.05 0.37,-0.06 0.37,-0.05 0.37,-0.05 0.38,-0.05 0.37,-0.05 0.37,-0.05 0.37,-0.05 0.38,-0.05 0.37,-0.04 0.37,-0.05 0.37,-0.04 0.37,-0.04 0.38,-0.04 0.37,-0.03 0.37,-0.04 0.37,-0.03 0.38,-0.02 0.37,-0.03 0.37,-0.03 0.37,-0.02 0.37,-0.02 0.38,-0.02 0.37,-0.02 0.37,-0.01 0.37,-0.02 0.38,-0.01 0.37,-0.02 0.37,-0.01 0.37,-0.01 0.37,-0.01 0.38,-0.02 0.37,-0.01 0.37,-0.01 0.37,-0.01 0.38,-0.02 0.37,-0.01 0.37,-0.01 0.37,-0.02 0.37,-0.01 0.38,-0.02 0.37,-0.01 0.37,-0.02 0.37,-0.02 0.38,-0.02 0.37,-0.01 0.37,-0.02 0.37,-0.02 0.37,-0.02 0.38,-0.02 0.37,-0.02 0.37,-0.02 0.37,-0.02 0.37,-0.02 0.38,-0.01 0.37,-0.02 0.37,-0.01 0.37,-0.01 0.38,-0.01 h 0.37 l 0.37,-0.01 h 0.37 0.37 0.38 0.37 0.37 l 0.37,0.01 0.38,0.01 h 0.37 l 0.37,0.01 0.37,0.01 0.37,0.01 0.38,0.01 0.37,0.01 0.37,0.01 0.37,0.01 0.38,0.01 h 0.37 l 0.37,0.01 h 0.37 0.37 0.38 0.37 l 0.37,-0.01 0.37,-0.01 0.38,-0.01 0.37,-0.01 0.37,-0.01 0.37,-0.02 0.37,-0.02 0.38,-0.02 0.37,-0.02 0.37,-0.03 0.37,-0.02 0.38,-0.03 0.37,-0.03 0.37,-0.02 0.37,-0.03 0.37,-0.02 0.38,-0.03 0.37,-0.02 0.37,-0.03 0.37,-0.02 0.37,-0.02 0.38,-0.02 0.37,-0.02 0.37,-0.02 0.37,-0.02 0.38,-0.02 0.37,-0.02 0.37,-0.01 0.37,-0.02 0.37,-0.01 0.38,-0.02 0.37,-0.01 0.37,-0.01 0.37,-0.02 0.38,-0.01 0.37,-0.01 0.37,-0.01 h 0.37 l 0.37,-0.01 0.38,-0.01 h 0.37 l 0.37,-0.01 h 0.37 0.38 0.37 0.37 0.37 0.37 0.38 l 0.37,0.01 0.37,0.01 0.37,0.01 0.38,0.01 0.37,0.01 0.37,0.01 0.37,0.02 0.37,0.01 0.38,0.02 0.37,0.02 0.37,0.02 0.37,0.03 0.38,0.02 0.37,0.02 0.37,0.03 0.37,0.03 0.37,0.02 0.38,0.03 0.37,0.03 0.37,0.03 0.37,0.03 0.37,0.03 0.38,0.02 0.37,0.03 0.37,0.02 0.37,0.02 0.38,0.02 0.37,0.01 0.37,0.01 h 0.37 l 0.37,0.01 0.38,-0.01 0.37,-0.01 0.37,-0.01 0.37,-0.02 0.38,-0.02 0.37,-0.03 0.37,-0.03 0.37,-0.04 0.37,-0.04 0.38,-0.04 0.37,-0.04 0.37,-0.04 0.37,-0.04 0.38,-0.05 0.37,-0.04 0.37,-0.04 0.37,-0.04 0.37,-0.03 0.38,-0.04 0.37,-0.03 0.37,-0.03 0.37,-0.03 0.38,-0.02 0.37,-0.03 0.37,-0.02 0.37,-0.02 0.37,-0.02 0.38,-0.02 0.37,-0.02 0.37,-0.02 0.37,-0.02 0.38,-0.01 0.37,-0.02 0.37,-0.02 0.37,-0.02 0.37,-0.01 0.38,-0.02 0.37,-0.02 0.37,-0.01 0.37,-0.02 0.37,-0.01 0.38,-0.02 0.37,-0.01 0.37,-0.01 0.37,-0.01 0.38,-0.02 0.37,-0.01 h 0.37 l 0.37,-0.01 0.37,-0.01 0.38,-0.01 h 0.37 l 0.37,-0.01 h 0.37 l 0.38,-0.01 h 0.37 0.37 l 0.37,-0.01 h 0.37 0.38 0.37 l 0.37,-0.01 h 0.37 0.38 0.37 0.37 0.37 l 0.37,-0.01 h 0.38 0.37 0.37 0.37 0.38 0.37 l 0.37,-0.01 h 0.37 0.37 0.38 0.37 0.37 0.37 0.38 0.37 0.37 0.37 0.37 0.38 0.37 0.37 0.37 0.37 0.38 0.37 0.37 0.37 l 0.38,0.01 h 0.37 0.37 0.37 0.37 0.38 0.37 0.37 0.37 0.38 0.37 0.37 0.37 0.37 0.38 0.37 0.37 0.37 0.38 0.37 0.37 0.37 0.37 0.38 0.37 0.37 0.37 0.38 0.37 0.37 l 0.37,-0.01 h 0.37 0.38 0.37 0.37 0.37 0.38 0.37 0.37 0.37 0.37 0.38 l 0.37,-0.01 h 0.37 0.37 0.37 0.38 0.37 0.37 l 0.37,-0.01 h 0.38 0.37 0.37 0.37 0.37 0.38 0.37 0.37 0.37 0.38 0.37 0.37 0.37 0.37 0.38 0.37 0.37 0.37 0.38 0.37 0.37 0.37 0.37 0.38 0.37 0.37 0.37 0.38 0.37 0.37 0.37 0.37 0.38 0.37 0.37 0.37 0.38 0.37 0.37 0.37 0.37 0.38 0.37 0.37 0.37 0.37 0.38 0.37 l 0.37,0.01 h 0.37 0.38 0.37 0.37 0.37 0.37 0.38 0.37 0.37 0.37 0.38 0.37 0.37 0.37 0.37 0.38 0.37 0.37 0.37 0.38 0.37 0.37 0.37 0.37 0.38 0.37 l 0.37,-0.01" /><path
           id="path1843"
           style="fill:none;stroke:#525252;stroke-width:1.07;stroke-linecap:butt;stroke-linejoin:round;stroke-miterlimit:10;stroke-dasharray:none;stroke-opacity:1"
           d="m 28.82,33.59 h 0.37 0.37 0.37 0.38 0.37 0.37 0.37 0.37 0.38 0.37 0.37 0.37 0.38 0.37 0.37 0.37 0.37 l 0.38,0.03 0.37,0.08 0.37,0.11 0.37,0.11 0.38,0.17 0.37,0.21 0.37,0.09 0.37,-0.03 0.37,0.1 0.38,0.41 0.37,0.5 0.37,0.26 0.37,0.54 0.37,1.74 0.38,3.11 0.37,4.19 0.37,4.39 0.37,3.99 0.38,4.36 0.37,5 0.37,5.13 0.37,5.28 0.37,5.58 0.38,6.39 0.37,8.29 0.37,9.03 0.37,5.38 0.38,-0.43 0.37,-3.94 0.37,-4.5 0.37,-2.88 0.37,-1.22 0.38,-3.85 0.37,-9.3 0.37,-11.65 0.37,-10.45 0.38,-7.72 0.37,-4.89 0.37,-3.12 0.37,-2.5 0.37,-2.09 0.38,-1.71 0.37,-1.33 0.37,-0.78 0.37,-0.49 0.38,-0.45 0.37,-0.5 0.37,-0.4 0.37,-0.19 0.37,-0.05 h 0.38 0.37 0.37 0.37 0.38 0.37 0.37 0.37 0.37 0.38 0.37 0.37 0.37 0.37 0.38 0.37 0.37 0.37 0.38 0.37 0.37 0.37 0.37 0.38 0.37 0.37 0.37 0.38 0.37 0.37 0.37 0.37 0.38 0.37 0.37 0.37 0.38 0.37 0.37 0.37 0.37 0.38 0.37 0.37 0.37 0.38 0.37 0.37 0.37 0.37 0.38 0.37 0.37 0.37 0.38 0.37 0.37 0.37 0.37 0.38 0.37 0.37 0.37 0.37 0.38 0.37 0.37 0.37 0.38 0.37 0.37 0.37 0.37 0.38 0.37 0.37 0.37 0.38 0.37 0.37 0.37 0.37 0.38 0.37 0.37 0.37 0.38 0.37 0.37 0.37 0.37 0.38 0.37 0.37 0.37 0.38 0.37 0.37 0.37 0.37 0.38 0.37 0.37 0.37 0.38 0.37 0.37 0.37 0.37 0.38 0.37 0.37 0.37 0.37 0.38 0.37 0.37 0.37 0.38 0.37 0.37 0.37 0.37 0.38 0.37 0.37 0.37 0.38 0.37 0.37 0.37 0.37 0.38 0.37 0.37 0.37 0.38 0.37 0.37 0.37 0.37 0.38 0.37 0.37 0.37 0.38 0.37 0.37 0.37 0.37 0.38 0.37 0.37 0.37 0.38 0.37 0.37 0.37 0.37 0.38 0.37 0.37 0.37 0.37 0.38 0.37 0.37 0.37 0.38 0.37 0.37 0.37 0.37 0.38 0.37 0.37 0.37 0.38 0.37 0.37 0.37 0.37 0.38 0.37 0.37 0.37 0.38 0.37 0.37 0.37 0.37 0.38 0.37 0.37 0.37 0.38 0.37 0.37 0.37 0.37 0.38 0.37 0.37 0.37 0.38 0.37 0.37 0.37 0.37 0.38 0.37 0.37 0.37 0.37 0.38 0.37 0.37 0.37 0.38 0.37 0.37 0.37 0.37 0.38 0.37 0.37 0.37 0.38 0.37 0.37 0.37 0.37 0.38 0.37 0.37 0.37 0.38 0.37 0.37 0.37 0.37 0.38 0.37 0.37 0.37 0.38 0.37 0.37 0.37 0.37 0.38 0.37 0.37 0.37 0.38 0.37 0.37 0.37 0.37 0.38 0.37 0.37 0.37 0.37 0.38 0.37 0.37 0.37 0.38 0.37 0.37 0.37 0.37 0.38 0.37 0.37 0.37 0.38 0.37 0.37 0.37 0.37 0.38 0.37 0.37 0.37 0.38 0.37 0.37 0.37 0.37 0.38 0.37 0.37 0.37 0.38 0.37 0.37 0.37 0.37 0.38 0.37 0.37 0.37 0.38 0.37 0.37 0.37 0.37 0.38 0.37 0.37 0.37 0.37 0.38 0.37 0.37 0.37 0.38 0.37 0.37 0.37 0.37 0.38 0.37 0.37 0.37 0.38 0.37 0.37 0.37 0.37 0.38 0.37 0.37 0.37 0.38 0.37 0.37 0.37 0.37 0.38 0.37 0.37 0.37 0.38 0.37 0.37 0.37 0.37 0.38 0.37 0.37 0.37 0.38 0.37 0.37 0.37 0.37 0.38 0.37 0.37 0.37 0.37 0.38 0.37 0.37 0.37 0.38 0.37 0.37 0.37 0.37 0.38 0.37 0.37 0.37 0.38 0.37 0.37 0.37 0.37 0.38 0.37 0.37 0.37 0.38 0.37 0.37 0.37 0.37 0.38 0.37 0.37 0.37 0.38 0.37 0.37 0.37 0.37 0.38 0.37 0.37 0.37 0.38 0.37 0.37 0.37 0.37 0.38 0.37 0.37 0.37 0.37 0.38 0.37 0.37 0.37 0.38 0.37 0.37 0.37 0.37 0.38 0.37 0.37 0.37 0.38 0.37 0.37 0.37 0.37 0.38 0.37 0.37 0.37 0.38 0.37 0.37 0.37 0.37 0.38 0.37 0.37" /><path
           id="path1845"
           style="fill:none;stroke:#000000;stroke-width:1.07;stroke-linecap:round;stroke-linejoin:round;stroke-miterlimit:10;stroke-dasharray:none;stroke-opacity:1"
           d="m 19.31,29.86 h 209.21 v 81.89 H 19.31 Z" /></g></g><g
       id="g1847" /><g
       id="g1849" /><g
       id="g1851" /><g
       id="g1853" /><g
       id="g1855" /><g
       id="g1857" /><g
       id="g1859" /><g
       id="g1861" /><g
       id="g1863" /><g
       id="g1865" /><g
       id="g1867" /><g
       id="g1869" /><g
       id="g1871" /><g
       id="g1873" /><g
       id="g1875" /><g
       id="g1877"><text
         id="text1881"
         style="font-variant:normal;font-weight:normal;font-size:8px;font-family:Helvetica;-inkscape-font-specification:Helvetica;writing-mode:lr-tb;fill:#000000;fill-opacity:1;fill-rule:nonzero;stroke:none"
         transform="matrix(1,0,0,-1,9.93,30.71)"><tspan
           id="tspan1879"
           y="0"
           x="0">0</tspan></text><text
         id="text1885"
         style="font-variant:normal;font-weight:normal;font-size:8px;font-family:Helvetica;-inkscape-font-specification:Helvetica;writing-mode:lr-tb;fill:#000000;fill-opacity:1;fill-rule:nonzero;stroke:none"
         transform="matrix(1,0,0,-1,9.93,49.85)"><tspan
           id="tspan1883"
           y="0"
           x="0">3</tspan></text><text
         id="text1889"
         style="font-variant:normal;font-weight:normal;font-size:8px;font-family:Helvetica;-inkscape-font-specification:Helvetica;writing-mode:lr-tb;fill:#000000;fill-opacity:1;fill-rule:nonzero;stroke:none"
         transform="matrix(1,0,0,-1,9.93,68.99)"><tspan
           id="tspan1887"
           y="0"
           x="0">6</tspan></text><text
         id="text1893"
         style="font-variant:normal;font-weight:normal;font-size:8px;font-family:Helvetica;-inkscape-font-specification:Helvetica;writing-mode:lr-tb;fill:#000000;fill-opacity:1;fill-rule:nonzero;stroke:none"
         transform="matrix(1,0,0,-1,9.93,88.13)"><tspan
           id="tspan1891"
           y="0"
           x="0">9</tspan></text><text
         id="text1897"
         style="font-variant:normal;font-weight:normal;font-size:8px;font-family:Helvetica;-inkscape-font-specification:Helvetica;writing-mode:lr-tb;fill:#000000;fill-opacity:1;fill-rule:nonzero;stroke:none"
         transform="matrix(1,0,0,-1,5.48,107.27)"><tspan
           id="tspan1895"
           sodipodi:role="line"
           y="0"
           x="0 4.448">12</tspan></text></g><g
       id="g1899" /><g
       id="g1901"><path
         id="path1903"
         style="fill:none;stroke:#333333;stroke-width:1.07;stroke-linecap:butt;stroke-linejoin:round;stroke-miterlimit:10;stroke-dasharray:none;stroke-opacity:1"
         d="m 16.57,33.59 h 2.74" /><path
         id="path1905"
         style="fill:none;stroke:#333333;stroke-width:1.07;stroke-linecap:butt;stroke-linejoin:round;stroke-miterlimit:10;stroke-dasharray:none;stroke-opacity:1"
         d="m 16.57,52.72 h 2.74" /><path
         id="path1907"
         style="fill:none;stroke:#333333;stroke-width:1.07;stroke-linecap:butt;stroke-linejoin:round;stroke-miterlimit:10;stroke-dasharray:none;stroke-opacity:1"
         d="m 16.57,71.86 h 2.74" /><path
         id="path1909"
         style="fill:none;stroke:#333333;stroke-width:1.07;stroke-linecap:butt;stroke-linejoin:round;stroke-miterlimit:10;stroke-dasharray:none;stroke-opacity:1"
         d="m 16.57,91 h 2.74" /><path
         id="path1911"
         style="fill:none;stroke:#333333;stroke-width:1.07;stroke-linecap:butt;stroke-linejoin:round;stroke-miterlimit:10;stroke-dasharray:none;stroke-opacity:1"
         d="m 16.57,110.14 h 2.74" /></g><g
       id="g1913" /><g
       id="g1915" /><g
       id="g1917" /><g
       id="g1919" /><g
       id="g1921" /><g
       id="g1923" /><g
       id="g1925" /><g
       id="g1927" /><g
       id="g1929" /><g
       id="g1931"><path
         id="path1933"
         style="fill:none;stroke:#333333;stroke-width:1.07;stroke-linecap:butt;stroke-linejoin:round;stroke-miterlimit:10;stroke-dasharray:none;stroke-opacity:1"
         d="m 24.18,27.12 v 2.74" /><path
         id="path1935"
         style="fill:none;stroke:#333333;stroke-width:1.07;stroke-linecap:butt;stroke-linejoin:round;stroke-miterlimit:10;stroke-dasharray:none;stroke-opacity:1"
         d="m 86.69,27.12 v 2.74" /><path
         id="path1937"
         style="fill:none;stroke:#333333;stroke-width:1.07;stroke-linecap:butt;stroke-linejoin:round;stroke-miterlimit:10;stroke-dasharray:none;stroke-opacity:1"
         d="m 149.2,27.12 v 2.74" /><path
         id="path1939"
         style="fill:none;stroke:#333333;stroke-width:1.07;stroke-linecap:butt;stroke-linejoin:round;stroke-miterlimit:10;stroke-dasharray:none;stroke-opacity:1"
         d="m 211.71,27.12 v 2.74" /></g><g
       id="g1941" /><g
       id="g1943"><text
         id="text1947"
         style="font-variant:normal;font-weight:normal;font-size:8px;font-family:Helvetica;-inkscape-font-specification:Helvetica;writing-mode:lr-tb;fill:#000000;fill-opacity:1;fill-rule:nonzero;stroke:none"
         transform="matrix(1,0,0,-1,21.95,19.19)"><tspan
           id="tspan1945"
           y="0"
           x="0">0</tspan></text><text
         id="text1951"
         style="font-variant:normal;font-weight:normal;font-size:8px;font-family:Helvetica;-inkscape-font-specification:Helvetica;writing-mode:lr-tb;fill:#000000;fill-opacity:1;fill-rule:nonzero;stroke:none"
         transform="matrix(1,0,0,-1,84.46,19.19)"><tspan
           id="tspan1949"
           y="0"
           x="0">1</tspan></text><text
         id="text1955"
         style="font-variant:normal;font-weight:normal;font-size:8px;font-family:Helvetica;-inkscape-font-specification:Helvetica;writing-mode:lr-tb;fill:#000000;fill-opacity:1;fill-rule:nonzero;stroke:none"
         transform="matrix(1,0,0,-1,146.97,19.19)"><tspan
           id="tspan1953"
           y="0"
           x="0">2</tspan></text><text
         id="text1959"
         style="font-variant:normal;font-weight:normal;font-size:8px;font-family:Helvetica;-inkscape-font-specification:Helvetica;writing-mode:lr-tb;fill:#000000;fill-opacity:1;fill-rule:nonzero;stroke:none"
         transform="matrix(1,0,0,-1,209.48,19.19)"><tspan
           id="tspan1957"
           y="0"
           x="0">3</tspan></text></g><g
       id="g1961" /><g
       id="g1963" /><g
       id="g1965" /><g
       id="g1967" /><g
       id="g1969" /><g
       id="g1971"><text
         id="text1975"
         style="font-variant:normal;font-weight:normal;font-size:10px;font-family:Helvetica;-inkscape-font-specification:Helvetica;writing-mode:lr-tb;fill:#000000;fill-opacity:1;fill-rule:nonzero;stroke:none"
         transform="matrix(1,0,0,-1,112.09,7.58)"><tspan
           id="tspan1973"
           sodipodi:role="line"
           y="0"
           x="0 4.75 10.31 12.53 18.09">value</tspan></text></g><g
       id="g1977" /><g
       id="g1979" /><g
       id="g1981" /><g
       id="g1983" /><g
       id="g1985" /><g
       id="g1987" /><g
       id="g1989" /><g
       transform="translate(-22.5,6)"
       id="g1991"><text
         id="text1995"
         style="font-variant:normal;font-weight:normal;font-size:10px;font-family:Helvetica;-inkscape-font-specification:Helvetica;writing-mode:lr-tb;fill:#000000;fill-opacity:1;fill-rule:nonzero;stroke:none"
         transform="matrix(1,0,0,-1,19.31,119.34)"><tspan
           id="tspan1993"
           sodipodi:role="line"
           y="0"
           x="0 5 8.3299999 16.67 22.23 24.450001 30.01 35.57">c) alpha</tspan></text></g><g
       id="g1997" /><g
       id="g1999" /><g
       id="g2001" /><g
       id="g2003" /><g
       id="g2005" /><g
       id="g2007" /><g
       id="g2009" /></g></svg>
