<?xml version="1.0" encoding="UTF-8" standalone="no"?>
<svg
   xmlns:svg="http://www.w3.org/2000/svg"
   xmlns="http://www.w3.org/2000/svg"
   xmlns:sodipodi="http://sodipodi.sourceforge.net/DTD/sodipodi-0.dtd"
   xmlns:inkscape="http://www.inkscape.org/namespaces/inkscape"
   inkscape:version="1.1-dev (48d18c81, 2020-07-08)"
   sodipodi:docname="skewness.svg"
   viewBox="0 0 614.39996 288"
   height="288"
   width="614.39996"
   xml:space="preserve"
   id="svg823"
   version="1.1"><defs
     id="defs827"><clipPath
       id="clipPath861"
       clipPathUnits="userSpaceOnUse"><path
         id="path859"
         d="M 0,0 H 230.4 V 216 H 0 Z" /></clipPath><clipPath
       id="clipPath873"
       clipPathUnits="userSpaceOnUse"><path
         id="path871"
         d="M 38,32.87 H 224.92 V 195.76 H 38 Z" /></clipPath><clipPath
       id="clipPath1067"
       clipPathUnits="userSpaceOnUse"><path
         id="path1065"
         d="M 230.4,0 H 460.8 V 216 H 230.4 Z" /></clipPath><clipPath
       id="clipPath1079"
       clipPathUnits="userSpaceOnUse"><path
         id="path1077"
         d="M 263.96,35.2 H 455.33 V 195.76 H 263.96 Z" /></clipPath></defs><sodipodi:namedview
     inkscape:current-layer="g829"
     inkscape:window-maximized="0"
     inkscape:window-y="23"
     inkscape:window-x="0"
     inkscape:cy="80.151512"
     inkscape:cx="288.468"
     inkscape:zoom="1.2913044"
     fit-margin-bottom="0"
     fit-margin-right="0"
     fit-margin-left="0"
     fit-margin-top="0"
     showgrid="false"
     id="namedview825"
     inkscape:window-height="747"
     inkscape:window-width="1337"
     inkscape:pageshadow="2"
     inkscape:pageopacity="0"
     guidetolerance="10"
     gridtolerance="10"
     objecttolerance="10"
     borderopacity="1"
     bordercolor="#666666"
     pagecolor="#ffffff" /><g
     transform="matrix(1.3333333,0,0,-1.3333333,0,287.99999)"
     inkscape:label="skewness"
     inkscape:groupmode="layer"
     id="g829"><g
       id="g831" /><g
       id="g833" /><g
       id="g835" /><g
       id="g837" /><g
       id="g839" /><g
       id="g841" /><g
       id="g843" /><g
       id="g845" /><g
       id="g847" /><g
       id="g849" /><g
       id="g851" /><g
       id="g853" /><g
       id="g855"><g
         clip-path="url(#clipPath861)"
         id="g857"><path
           id="path863"
           style="fill:#ffffff;fill-opacity:1;fill-rule:nonzero;stroke:#ffffff;stroke-width:1.07;stroke-linecap:round;stroke-linejoin:round;stroke-miterlimit:10;stroke-dasharray:none;stroke-opacity:1"
           d="M 0,0 H 230.4 V 216 H 0 Z" /></g></g><g
       id="g865" /><g
       id="g867"><g
         clip-path="url(#clipPath873)"
         id="g869"><path
           id="path875"
           style="fill:#ffffff;fill-opacity:1;fill-rule:nonzero;stroke:none"
           d="M 38,32.87 H 224.92 V 195.76 H 38 Z" /><path
           id="path877"
           style="fill:none;stroke:#000000;stroke-width:1.07;stroke-linecap:butt;stroke-linejoin:round;stroke-miterlimit:10;stroke-dasharray:none;stroke-opacity:1"
           d="m 46.5,40.27 0.33,0.01 h 0.33 l 0.34,0.01 0.33,0.02 0.33,0.02 0.33,0.03 0.34,0.04 0.33,0.06 0.33,0.08 0.33,0.12 0.34,0.15 0.33,0.19 0.33,0.25 0.33,0.31 0.34,0.39 0.33,0.47 0.33,0.58 0.34,0.69 0.33,0.82 0.33,0.98 0.33,1.14 0.34,1.31 0.33,1.49 0.33,1.69 0.33,1.88 0.34,2.06 0.33,2.24 0.33,2.41 0.33,2.57 0.34,2.73 0.33,2.88 0.33,3.01 0.33,3.16 0.34,3.27 0.33,3.39 0.33,3.48 0.33,3.58 0.34,3.65 0.33,3.71 0.33,3.76 0.33,3.79 0.34,3.82 0.33,3.83 0.33,3.84 0.33,3.85 0.34,3.84 0.33,3.84 0.33,3.82 0.33,3.78 0.34,3.74 0.33,3.66 0.33,3.56 0.33,3.42 0.34,3.27 0.33,3.08 0.33,2.91 0.33,2.72 0.34,2.54 0.33,2.38 0.33,2.25 0.33,2.13 0.34,2.04 0.33,1.97 0.33,1.9 0.33,1.84 0.34,1.77 0.33,1.69 0.33,1.56 0.33,1.43 0.34,1.27 0.33,1.08 0.33,0.89 0.33,0.7 0.34,0.52 0.33,0.36 0.33,0.22 0.33,0.11 0.34,0.03 0.33,-0.02 0.33,-0.07 0.33,-0.08 0.34,-0.1 0.33,-0.1 0.33,-0.12 0.33,-0.15 0.34,-0.19 0.33,-0.28 0.33,-0.37 0.33,-0.48 0.34,-0.62 0.33,-0.75 0.33,-0.88 0.34,-1 0.33,-1.1 0.33,-1.18 0.33,-1.24 0.34,-1.27 0.33,-1.29 0.33,-1.3 0.33,-1.32 0.34,-1.32 0.33,-1.33 0.33,-1.36 0.33,-1.39 0.34,-1.42 0.33,-1.45 0.33,-1.48 0.33,-1.5 0.34,-1.52 0.33,-1.53 0.33,-1.51 0.33,-1.5 0.34,-1.47 0.33,-1.44 0.33,-1.4 0.33,-1.37 0.34,-1.33 0.33,-1.3 0.33,-1.29 0.33,-1.27 0.34,-1.29 0.33,-1.3 0.33,-1.34 0.33,-1.37 0.34,-1.41 0.33,-1.46 0.33,-1.48 0.33,-1.49 0.34,-1.51 0.33,-1.51 0.33,-1.49 0.33,-1.48 0.34,-1.46 0.33,-1.43 0.33,-1.4 0.33,-1.36 0.34,-1.34 0.33,-1.31 0.33,-1.28 0.33,-1.26 0.34,-1.23 0.33,-1.2 0.33,-1.17 0.33,-1.12 0.34,-1.08 0.33,-1.02 0.33,-0.99 0.33,-0.96 0.34,-0.95 0.33,-0.96 0.33,-0.98 0.33,-1.02 0.34,-1.07 0.33,-1.1 0.33,-1.14 0.33,-1.14 0.34,-1.15 0.33,-1.12 0.33,-1.1 0.33,-1.07 0.34,-1.02 0.33,-1 0.33,-0.96 0.33,-0.92 0.34,-0.88 0.33,-0.85 0.33,-0.82 0.34,-0.77 0.33,-0.75 0.33,-0.71 0.33,-0.7 0.34,-0.69 0.33,-0.7 0.33,-0.71 0.33,-0.73 0.34,-0.78 0.33,-0.81 0.33,-0.85 0.33,-0.88 0.34,-0.89 0.33,-0.9 0.33,-0.88 0.33,-0.84 0.34,-0.8 0.33,-0.75 0.33,-0.71 0.33,-0.67 0.34,-0.64 0.33,-0.62 0.33,-0.59 0.33,-0.59 0.34,-0.57 0.33,-0.55 0.33,-0.53 0.33,-0.52 0.34,-0.49 0.33,-0.48 0.33,-0.47 0.33,-0.46 0.34,-0.46 0.33,-0.46 0.33,-0.47 0.33,-0.48 0.34,-0.49 0.33,-0.49 0.33,-0.48 0.33,-0.49 0.34,-0.48 0.33,-0.47 0.33,-0.46 0.33,-0.45 0.34,-0.45 0.33,-0.43 0.33,-0.42 0.33,-0.42 0.34,-0.39 0.33,-0.39 0.33,-0.36 0.33,-0.35 0.34,-0.33 0.33,-0.31 0.33,-0.29 0.33,-0.27 0.34,-0.26 0.33,-0.25 0.33,-0.25 0.33,-0.26 0.34,-0.27 0.33,-0.28 0.33,-0.31 0.33,-0.33 0.34,-0.35 0.33,-0.36 0.33,-0.35 0.33,-0.35 0.34,-0.33 0.33,-0.31 0.33,-0.28 0.34,-0.25 0.33,-0.23 0.33,-0.21 0.33,-0.19 0.34,-0.19 0.33,-0.18 0.33,-0.18 0.33,-0.18 0.34,-0.18 0.33,-0.19 0.33,-0.18 0.33,-0.18 0.34,-0.19 0.33,-0.2 0.33,-0.19 0.33,-0.2 0.34,-0.21 0.33,-0.21 0.33,-0.21 0.33,-0.2 0.34,-0.2 0.33,-0.2 0.33,-0.19 0.33,-0.19 0.34,-0.18 0.33,-0.18 0.33,-0.17 0.33,-0.17 0.34,-0.16 0.33,-0.16 0.33,-0.15 0.33,-0.14 0.34,-0.13 0.33,-0.12 0.33,-0.12 0.33,-0.1 0.34,-0.1 0.33,-0.09 0.33,-0.08 0.33,-0.09 0.34,-0.08 0.33,-0.09 0.33,-0.09 0.33,-0.1 0.34,-0.1 0.33,-0.09 0.33,-0.09 0.33,-0.09 0.34,-0.08 0.33,-0.07 0.33,-0.07 0.33,-0.06 0.34,-0.06 0.33,-0.07 0.33,-0.08 0.33,-0.09 0.34,-0.09 0.33,-0.11 0.33,-0.11 0.33,-0.13 0.34,-0.12 0.33,-0.14 0.33,-0.13 0.33,-0.14 0.34,-0.13 0.33,-0.14 0.33,-0.14 0.33,-0.13 0.34,-0.12 0.33,-0.11 0.33,-0.09 0.33,-0.08 0.34,-0.06 0.33,-0.04 0.33,-0.02 h 0.34 l 0.33,0.01 0.33,0.02 0.33,0.03 0.34,0.02 0.33,0.01 0.33,0.01 0.33,-0.01 0.34,-0.03 0.33,-0.04 0.33,-0.06 0.33,-0.06 0.34,-0.06 0.33,-0.07 0.33,-0.06 0.33,-0.06 0.34,-0.05 0.33,-0.05 0.33,-0.05 0.33,-0.05 0.34,-0.06 0.33,-0.06 0.33,-0.06 0.33,-0.07 0.34,-0.08 0.33,-0.08 0.33,-0.09 0.33,-0.08 0.34,-0.08 0.33,-0.08 0.33,-0.07 0.33,-0.06 0.34,-0.04 0.33,-0.04 0.33,-0.02 0.33,-0.01 0.34,0.01 0.33,0.01 0.33,0.02 0.33,0.02 0.34,0.02 0.33,0.01 0.33,0.01 0.33,-0.01 0.34,-0.01 0.33,-0.02 0.33,-0.02 0.33,-0.03 0.34,-0.03 0.33,-0.03 0.33,-0.03 0.33,-0.03 0.34,-0.02 0.33,-0.03 0.33,-0.02 0.33,-0.03 0.34,-0.02 0.33,-0.03 0.33,-0.03 0.33,-0.03 0.34,-0.04 0.33,-0.03 0.33,-0.03 0.33,-0.03 0.34,-0.03 0.33,-0.03 0.33,-0.02 0.33,-0.02 0.34,-0.01 0.33,-0.01 h 0.33 l 0.34,-0.01 h 0.33 0.33 l 0.33,-0.01 h 0.34 l 0.33,-0.02 0.33,-0.01 0.33,-0.03 0.34,-0.02 0.33,-0.03 0.33,-0.03 0.33,-0.03 0.34,-0.03 0.33,-0.03 0.33,-0.02 0.33,-0.02 0.34,-0.02 0.33,-0.01 0.33,-0.01 0.33,-0.01 0.34,-0.01 0.33,-0.01 0.33,-0.01 h 0.33 l 0.34,-0.01 0.33,-0.01 0.33,-0.01 0.33,-0.02 0.34,-0.01 0.33,-0.01 0.33,-0.01 0.33,-0.01 h 0.34 l 0.33,0.01 h 0.33 l 0.33,0.01 0.34,0.01 0.33,0.01 h 0.33 0.33 0.34 l 0.33,-0.02 0.33,-0.01 0.33,-0.02 0.34,-0.02 0.33,-0.02 0.33,-0.01 0.33,-0.02 0.34,-0.01 0.33,-0.01 0.33,-0.01 0.33,-0.01 h 0.34 0.33 0.33 l 0.33,0.01 h 0.34 l 0.33,0.01 0.33,0.01 h 0.33 0.34 0.33 l 0.33,-0.01 h 0.33 l 0.34,-0.02 0.33,-0.01 0.33,-0.01 0.33,-0.01 0.34,-0.01 0.33,-0.01 0.33,-0.01 0.33,-0.01 0.34,-0.01 0.33,-0.01 0.33,-0.02 0.34,-0.01 0.33,-0.02 0.33,-0.01 0.33,-0.02 0.34,-0.01 0.33,-0.01 0.33,-0.02 h 0.33 l 0.34,-0.01 h 0.33 0.33 0.33 0.34 0.33 l 0.33,-0.01 h 0.33 0.34 l 0.33,-0.01 0.33,-0.01 0.33,-0.01 0.34,-0.01 0.33,-0.01 0.33,-0.01 0.33,-0.01 h 0.34 0.33 0.33 0.33 0.34 0.33 l 0.33,0.01 h 0.33 0.34 l 0.33,0.01 h 0.33 0.33 0.34 0.33 0.33 0.33 0.34 l 0.33,-0.01 h 0.33 l 0.33,-0.01 h 0.34 l 0.33,-0.01 h 0.33 l 0.33,-0.01 0.34,-0.01 0.33,-0.01 0.33,-0.01 0.33,-0.01" /><path
           id="path879"
           style="fill:none;stroke:#ff0000;stroke-width:1.07;stroke-linecap:butt;stroke-linejoin:round;stroke-miterlimit:10;stroke-dasharray:4.27, 4.27;stroke-dashoffset:0;stroke-opacity:1"
           d="M 80.48,32.87 V 195.76" /><path
           id="path881"
           style="fill:none;stroke:#000000;stroke-width:1.07;stroke-linecap:round;stroke-linejoin:round;stroke-miterlimit:10;stroke-dasharray:none;stroke-opacity:1"
           d="M 38,32.87 H 224.92 V 195.76 H 38 Z" /></g></g><g
       id="g883" /><g
       id="g885" /><g
       id="g887" /><g
       id="g889" /><g
       id="g891" /><g
       id="g893" /><g
       id="g895" /><g
       id="g897" /><g
       id="g899" /><g
       id="g901" /><g
       id="g903" /><g
       id="g905" /><g
       id="g907" /><g
       id="g909" /><g
       id="g911" /><g
       id="g913"><text
         id="text917"
         style="font-variant:normal;font-weight:normal;font-size:8px;font-family:Helvetica;-inkscape-font-specification:Helvetica;writing-mode:lr-tb;fill:#000000;fill-opacity:1;fill-rule:nonzero;stroke:none"
         transform="matrix(1,0,0,-1,17.5,37.4)"><tspan
           id="tspan915"
           sodipodi:role="line"
           y="0"
           x="0 4.448 6.6719999 11.12">0.00</tspan></text><text
         id="text921"
         style="font-variant:normal;font-weight:normal;font-size:8px;font-family:Helvetica;-inkscape-font-specification:Helvetica;writing-mode:lr-tb;fill:#000000;fill-opacity:1;fill-rule:nonzero;stroke:none"
         transform="matrix(1,0,0,-1,17.5,78.65)"><tspan
           id="tspan919"
           sodipodi:role="line"
           y="0"
           x="0 4.448 6.6719999 11.12">0.25</tspan></text><text
         id="text925"
         style="font-variant:normal;font-weight:normal;font-size:8px;font-family:Helvetica;-inkscape-font-specification:Helvetica;writing-mode:lr-tb;fill:#000000;fill-opacity:1;fill-rule:nonzero;stroke:none"
         transform="matrix(1,0,0,-1,17.5,119.89)"><tspan
           id="tspan923"
           sodipodi:role="line"
           y="0"
           x="0 4.448 6.6719999 11.12">0.50</tspan></text><text
         id="text929"
         style="font-variant:normal;font-weight:normal;font-size:8px;font-family:Helvetica;-inkscape-font-specification:Helvetica;writing-mode:lr-tb;fill:#000000;fill-opacity:1;fill-rule:nonzero;stroke:none"
         transform="matrix(1,0,0,-1,17.5,161.14)"><tspan
           id="tspan927"
           sodipodi:role="line"
           y="0"
           x="0 4.448 6.6719999 11.12">0.75</tspan></text></g><g
       id="g931" /><g
       id="g933"><path
         id="path935"
         style="fill:none;stroke:#333333;stroke-width:1.07;stroke-linecap:butt;stroke-linejoin:round;stroke-miterlimit:10;stroke-dasharray:none;stroke-opacity:1"
         d="M 35.26,40.27 H 38" /><path
         id="path937"
         style="fill:none;stroke:#333333;stroke-width:1.07;stroke-linecap:butt;stroke-linejoin:round;stroke-miterlimit:10;stroke-dasharray:none;stroke-opacity:1"
         d="M 35.26,81.52 H 38" /><path
         id="path939"
         style="fill:none;stroke:#333333;stroke-width:1.07;stroke-linecap:butt;stroke-linejoin:round;stroke-miterlimit:10;stroke-dasharray:none;stroke-opacity:1"
         d="M 35.26,122.77 H 38" /><path
         id="path941"
         style="fill:none;stroke:#333333;stroke-width:1.07;stroke-linecap:butt;stroke-linejoin:round;stroke-miterlimit:10;stroke-dasharray:none;stroke-opacity:1"
         d="M 35.26,164.02 H 38" /></g><g
       id="g943" /><g
       id="g945" /><g
       id="g947" /><g
       id="g949" /><g
       id="g951" /><g
       id="g953" /><g
       id="g955" /><g
       id="g957" /><g
       id="g959" /><g
       id="g961"><path
         id="path963"
         style="fill:none;stroke:#333333;stroke-width:1.07;stroke-linecap:butt;stroke-linejoin:round;stroke-miterlimit:10;stroke-dasharray:none;stroke-opacity:1"
         d="m 80.48,30.13 v 2.74" /><path
         id="path965"
         style="fill:none;stroke:#333333;stroke-width:1.07;stroke-linecap:butt;stroke-linejoin:round;stroke-miterlimit:10;stroke-dasharray:none;stroke-opacity:1"
         d="m 148.45,30.13 v 2.74" /><path
         id="path967"
         style="fill:none;stroke:#333333;stroke-width:1.07;stroke-linecap:butt;stroke-linejoin:round;stroke-miterlimit:10;stroke-dasharray:none;stroke-opacity:1"
         d="m 216.42,30.13 v 2.74" /></g><g
       id="g969" /><g
       id="g971"><text
         id="text975"
         style="font-variant:normal;font-weight:normal;font-size:8px;font-family:Helvetica;-inkscape-font-specification:Helvetica;writing-mode:lr-tb;fill:#000000;fill-opacity:1;fill-rule:nonzero;stroke:none"
         transform="matrix(1,0,0,-1,78.26,22.2)"><tspan
           id="tspan973"
           y="0"
           x="0">2</tspan></text><text
         id="text979"
         style="font-variant:normal;font-weight:normal;font-size:8px;font-family:Helvetica;-inkscape-font-specification:Helvetica;writing-mode:lr-tb;fill:#000000;fill-opacity:1;fill-rule:nonzero;stroke:none"
         transform="matrix(1,0,0,-1,146.23,22.2)"><tspan
           id="tspan977"
           y="0"
           x="0">4</tspan></text><text
         id="text983"
         style="font-variant:normal;font-weight:normal;font-size:8px;font-family:Helvetica;-inkscape-font-specification:Helvetica;writing-mode:lr-tb;fill:#000000;fill-opacity:1;fill-rule:nonzero;stroke:none"
         transform="matrix(1,0,0,-1,214.2,22.2)"><tspan
           id="tspan981"
           y="0"
           x="0">6</tspan></text></g><g
       id="g985" /><g
       id="g987" /><g
       id="g989" /><g
       id="g991" /><g
       id="g993" /><g
       id="g995"><text
         id="text999"
         style="font-variant:normal;font-weight:normal;font-size:10px;font-family:Symbol;-inkscape-font-specification:Symbol;writing-mode:lr-tb;fill:#000000;fill-opacity:1;fill-rule:nonzero;stroke:none"
         transform="matrix(1,0,0,-1,128.86,7.74)"><tspan
           id="tspan997"
           y="0"
           x="0">ν</tspan></text><text
         id="text1003"
         style="font-variant:normal;font-weight:normal;font-size:10px;font-family:Helvetica;-inkscape-font-specification:Helvetica;writing-mode:lr-tb;fill:#000000;fill-opacity:1;fill-rule:nonzero;stroke:none"
         transform="matrix(1,0,0,-1,129.12,10.89)"><tspan
           id="tspan1001"
           y="0"
           x="0">^</tspan></text></g><g
       id="g1005" /><g
       id="g1007"><text
         id="text1011"
         style="font-variant:normal;font-weight:normal;font-size:10px;font-family:Helvetica;-inkscape-font-specification:Helvetica;writing-mode:lr-tb;fill:#000000;fill-opacity:1;fill-rule:nonzero;stroke:none"
         transform="matrix(0,1,1,0,12.66,98.47)"><tspan
           id="tspan1009"
           sodipodi:role="line"
           y="0"
           x="0 5.5599999 11.12 16.68 21.68 23.9 26.68">density</tspan></text></g><g
       id="g1013" /><g
       id="g1015" /><g
       id="g1017" /><g
       id="g1019" /><g
       id="g1021" /><g
       transform="translate(16.5,1.5)"
       id="g1023"><text
         id="text1027"
         style="font-variant:normal;font-weight:normal;font-size:10px;font-family:Helvetica;-inkscape-font-specification:Helvetica;writing-mode:lr-tb;fill:#000000;fill-opacity:1;fill-rule:nonzero;stroke:none"
         transform="matrix(1,0,0,-1,38,203.34)"><tspan
           id="tspan1025"
           sodipodi:role="line"
           y="0"
           x="0 5.3600001 10.11 15.67 18.9 24.459999 30.02 35.580002 38.360001 43.360001 48.919998 52.650002 55.43 60.990002 65.989998 68.209999 73.209999 75.989998 81.550003 84.330002 87.110001 92.669998 94.889999 99.889999 102.67 106.15 108.37 113.73 119.29 122.07 124.29 129.85001 135.41">average kurtosis of distributions</tspan></text></g><g
       id="g1029" /><g
       id="g1031" /><g
       id="g1033" /><g
       id="g1035" /><g
       id="g1037" /><g
       id="g1039" /><g
       id="g1041" /><g
       id="g1043" /><g
       id="g1045" /><g
       id="g1047" /><g
       id="g1049" /><g
       id="g1051" /><g
       id="g1053" /><g
       id="g1055" /><g
       id="g1057" /><g
       id="g1059" /><g
       id="g1061"><g
         clip-path="url(#clipPath1067)"
         id="g1063"><path
           id="path1069"
           style="fill:#ffffff;fill-opacity:1;fill-rule:nonzero;stroke:#ffffff;stroke-width:1.07;stroke-linecap:round;stroke-linejoin:round;stroke-miterlimit:10;stroke-dasharray:none;stroke-opacity:1"
           d="M 230.4,0 H 460.8 V 216 H 230.4 Z" /></g></g><g
       id="g1071" /><g
       transform="translate(-9)"
       id="g1073"><g
         clip-path="url(#clipPath1079)"
         id="g1075"><path
           id="path1081"
           style="fill:#ffffff;fill-opacity:1;fill-rule:nonzero;stroke:none"
           d="M 263.96,35.2 H 455.33 V 195.76 H 263.96 Z" /><path
           id="path1083"
           style="fill:none;stroke:#000000;stroke-width:1.07;stroke-linecap:butt;stroke-linejoin:round;stroke-miterlimit:10;stroke-dasharray:none;stroke-opacity:1"
           d="m 272.65,42.5 h 0.34 0.34 0.34 0.35 0.34 0.34 0.34 0.34 0.34 0.34 0.34 0.34 0.34 0.34 0.34 0.34 0.34 0.34 0.34 0.34 0.34 0.34 0.34 0.34 0.34 0.35 0.34 0.34 0.34 0.34 0.34 0.34 0.34 0.34 0.34 0.34 0.34 0.34 0.34 0.34 0.34 0.34 0.34 0.34 0.34 0.34 0.34 0.35 0.34 0.34 0.34 0.34 0.34 0.34 0.34 0.34 0.34 0.34 0.34 0.34 0.34 0.34 0.34 0.34 0.34 0.34 0.34 0.34 0.34 0.34 0.35 0.34 0.34 0.34 0.34 0.34 0.34 0.34 0.34 0.34 0.34 0.34 0.34 0.34 0.34 0.34 0.34 0.34 0.34 0.34 0.34 0.34 0.35 0.34 0.34 0.34 0.34 0.34 0.34 0.34 0.34 0.34 0.34 0.34 0.34 0.34 0.34 0.34 0.34 0.34 0.34 0.34 0.34 0.34 0.35 0.34 0.34 0.34 0.34 0.34 0.34 0.34 0.34 0.34 0.34 0.34 0.34 0.34 0.34 0.34 0.34 0.34 0.34 0.34 0.34 0.34 0.34 0.35 0.34 0.34 0.34 0.34 0.34 0.34 0.34 0.34 0.34 0.34 0.34 0.34 0.34 0.34 0.34 0.34 0.34 0.34 0.34 0.34 0.34 l 0.35,0.01 h 0.34 0.34 l 0.34,0.01 0.34,0.01 h 0.34 l 0.34,0.02 0.34,0.01 0.34,0.02 0.34,0.02 0.34,0.02 0.34,0.03 0.34,0.04 0.34,0.03 0.34,0.05 0.34,0.05 0.34,0.05 0.34,0.06 0.34,0.06 0.34,0.06 0.34,0.06 0.34,0.06 0.34,0.07 0.35,0.06 0.34,0.05 0.34,0.05 0.34,0.05 0.34,0.04 0.34,0.03 0.34,0.03 0.34,0.02 0.34,0.02 0.34,0.01 0.34,0.01 0.34,0.01 0.34,0.01 0.34,0.02 0.34,0.02 0.34,0.02 0.34,0.03 0.34,0.05 0.34,0.05 0.34,0.06 0.34,0.06 0.34,0.08 0.35,0.08 0.34,0.09 0.34,0.09 0.34,0.1 0.34,0.1 0.34,0.1 0.34,0.1 0.34,0.11 0.34,0.1 0.34,0.11 0.34,0.11 0.34,0.12 0.34,0.13 0.34,0.14 0.34,0.14 0.34,0.17 0.34,0.18 0.34,0.2 0.34,0.22 0.34,0.25 0.34,0.27 0.34,0.29 0.35,0.31 0.34,0.35 0.34,0.36 0.34,0.39 0.34,0.41 0.34,0.43 0.34,0.46 0.34,0.47 0.34,0.5 0.34,0.51 0.34,0.54 0.34,0.55 0.34,0.57 0.34,0.59 0.34,0.61 0.34,0.63 0.34,0.66 0.34,0.68 0.34,0.7 0.34,0.73 0.34,0.76 0.34,0.8 0.34,0.82 0.35,0.87 0.34,0.9 0.34,0.93 0.34,0.97 0.34,1.01 0.34,1.04 0.34,1.07 0.34,1.1 0.34,1.13 0.34,1.14 0.34,1.15 0.34,1.16 0.34,1.16 0.34,1.15 0.34,1.15 0.34,1.12 0.34,1.1 0.34,1.08 0.34,1.05 0.34,1.01 0.34,0.98 0.34,0.95 0.35,0.92 0.34,0.89 0.34,0.85 0.34,0.84 0.34,0.83 0.34,0.82 0.34,0.81 0.34,0.83 0.34,0.85 0.34,0.87 0.34,0.92 0.34,0.96 0.34,1.01 0.34,1.08 0.34,1.14 0.34,1.21 0.34,1.29 0.34,1.36 0.34,1.44 0.34,1.51 0.34,1.58 0.34,1.63 0.35,1.68 0.34,1.73 0.34,1.76 0.34,1.79 0.34,1.8 0.34,1.81 0.34,1.81 0.34,1.8 0.34,1.79 0.34,1.77 0.34,1.76 0.34,1.75 0.34,1.72 0.34,1.72 0.34,1.7 0.34,1.7 0.34,1.71 0.34,1.71 0.34,1.71 0.34,1.73 0.34,1.75 0.34,1.76 0.34,1.78 0.35,1.79 0.34,1.8 0.34,1.82 0.34,1.81 0.34,1.83 0.34,1.81 0.34,1.81 0.34,1.78 0.34,1.77 0.34,1.74 0.34,1.71 0.34,1.66 0.34,1.63 0.34,1.57 0.34,1.52 0.34,1.45 0.34,1.39 0.34,1.32 0.34,1.25 0.34,1.18 0.34,1.09 0.34,1.02 0.35,0.94 0.34,0.85 0.34,0.77 0.34,0.7 0.34,0.62 0.34,0.56 0.34,0.49 0.34,0.42 0.34,0.36 0.34,0.29 0.34,0.23 0.34,0.17 0.34,0.11 0.34,0.05 0.34,-0.02 0.34,-0.08 0.34,-0.15 0.34,-0.23 0.34,-0.31 0.34,-0.38 0.34,-0.46 0.34,-0.55 0.35,-0.61 0.34,-0.7 0.34,-0.77 0.34,-0.86 0.34,-0.92 0.34,-0.99 0.34,-1.04 0.34,-1.08 0.34,-1.13 0.34,-1.14 0.34,-1.16 0.34,-1.16 0.34,-1.14 0.34,-1.12 0.34,-1.08 0.34,-1.04 0.34,-0.99 0.34,-0.94 0.34,-0.88 0.34,-0.83 0.34,-0.79 0.34,-0.76 0.34,-0.74 0.35,-0.75 0.34,-0.77 0.34,-0.8 0.34,-0.86 0.34,-0.94 0.34,-1.04 0.34,-1.15 0.34,-1.27 0.34,-1.4 0.34,-1.52 0.34,-1.65 0.34,-1.77 0.34,-1.9 0.34,-2.02 0.34,-2.12 0.34,-2.22 0.34,-2.29 0.34,-2.35 0.34,-2.4 0.34,-2.43 0.34,-2.45 0.34,-2.46 0.35,-2.45 0.34,-2.43 0.34,-2.39 0.34,-2.35 0.34,-2.3 0.34,-2.23 0.34,-2.16 0.34,-2.09 0.34,-2 0.34,-1.91 0.34,-1.84 0.34,-1.74 0.34,-1.67 0.34,-1.6 0.34,-1.53 0.34,-1.46 0.34,-1.41 0.34,-1.37 0.34,-1.34 0.34,-1.32 0.34,-1.31 0.34,-1.31 0.35,-1.31 0.34,-1.32 0.34,-1.33 0.34,-1.34 0.34,-1.36 0.34,-1.36 0.34,-1.36 0.34,-1.36 0.34,-1.35 0.34,-1.32 0.34,-1.3 0.34,-1.26 0.34,-1.23 0.34,-1.17 0.34,-1.13 0.34,-1.09 0.34,-1.03 0.34,-0.99 0.34,-0.94 0.34,-0.89 0.34,-0.85 0.34,-0.81 0.34,-0.78 0.35,-0.74 0.34,-0.72 0.34,-0.68 0.34,-0.66 0.34,-0.62 0.34,-0.6 0.34,-0.56 0.34,-0.55 0.34,-0.52 0.34,-0.49 0.34,-0.47 0.34,-0.46 0.34,-0.44 0.34,-0.42 0.34,-0.42 0.34,-0.4 0.34,-0.41 0.34,-0.4 0.34,-0.4 0.34,-0.4 0.34,-0.4 0.34,-0.39 0.35,-0.39 0.34,-0.38 0.34,-0.37 0.34,-0.36 0.34,-0.35 0.34,-0.32 0.34,-0.31 0.34,-0.28 0.34,-0.26 0.34,-0.24 0.34,-0.22 0.34,-0.2 0.34,-0.17 0.34,-0.16 0.34,-0.15 0.34,-0.12 0.34,-0.12 0.34,-0.1 0.34,-0.09 0.34,-0.09 0.34,-0.08 0.34,-0.07 0.34,-0.08 0.35,-0.07 0.34,-0.07 0.34,-0.07 0.34,-0.08 0.34,-0.07 0.34,-0.08 0.34,-0.09 0.34,-0.08 0.34,-0.09 0.34,-0.09 0.34,-0.1 0.34,-0.09 0.34,-0.1 0.34,-0.09 0.34,-0.09 0.34,-0.1" /><path
           id="path1085"
           style="fill:none;stroke:#ff0000;stroke-width:1.07;stroke-linecap:butt;stroke-linejoin:round;stroke-miterlimit:10;stroke-dasharray:4.27, 4.27;stroke-dashoffset:0;stroke-opacity:1"
           d="M 279.34,35.2 V 195.76" /><path
           id="path1087"
           style="fill:none;stroke:#000000;stroke-width:1.07;stroke-linecap:round;stroke-linejoin:round;stroke-miterlimit:10;stroke-dasharray:none;stroke-opacity:1"
           d="M 263.96,35.2 H 455.33 V 195.76 H 263.96 Z" /></g></g><g
       id="g1089" /><g
       id="g1091" /><g
       id="g1093" /><g
       id="g1095" /><g
       id="g1097" /><g
       id="g1099" /><g
       id="g1101" /><g
       id="g1103" /><g
       id="g1105" /><g
       id="g1107" /><g
       id="g1109" /><g
       id="g1111" /><g
       id="g1113" /><g
       id="g1115" /><g
       id="g1117" /><g
       transform="translate(-9)"
       id="g1119"><text
         id="text1123"
         style="font-variant:normal;font-weight:normal;font-size:8px;font-family:Helvetica;-inkscape-font-specification:Helvetica;writing-mode:lr-tb;fill:#000000;fill-opacity:1;fill-rule:nonzero;stroke:none"
         transform="matrix(1,0,0,-1,247.9,39.63)"><tspan
           id="tspan1121"
           sodipodi:role="line"
           y="0"
           x="0 4.448 6.6719999">0.0</tspan></text><text
         id="text1127"
         style="font-variant:normal;font-weight:normal;font-size:8px;font-family:Helvetica;-inkscape-font-specification:Helvetica;writing-mode:lr-tb;fill:#000000;fill-opacity:1;fill-rule:nonzero;stroke:none"
         transform="matrix(1,0,0,-1,247.9,84.89)"><tspan
           id="tspan1125"
           sodipodi:role="line"
           y="0"
           x="0 4.448 6.6719999">0.5</tspan></text><text
         id="text1131"
         style="font-variant:normal;font-weight:normal;font-size:8px;font-family:Helvetica;-inkscape-font-specification:Helvetica;writing-mode:lr-tb;fill:#000000;fill-opacity:1;fill-rule:nonzero;stroke:none"
         transform="matrix(1,0,0,-1,247.9,130.16)"><tspan
           id="tspan1129"
           sodipodi:role="line"
           y="0"
           x="0 4.448 6.6719999">1.0</tspan></text><text
         id="text1135"
         style="font-variant:normal;font-weight:normal;font-size:8px;font-family:Helvetica;-inkscape-font-specification:Helvetica;writing-mode:lr-tb;fill:#000000;fill-opacity:1;fill-rule:nonzero;stroke:none"
         transform="matrix(1,0,0,-1,247.9,175.43)"><tspan
           id="tspan1133"
           sodipodi:role="line"
           y="0"
           x="0 4.448 6.6719999">1.5</tspan></text></g><g
       id="g1137" /><g
       transform="translate(-9)"
       id="g1139"><path
         id="path1141"
         style="fill:none;stroke:#333333;stroke-width:1.07;stroke-linecap:butt;stroke-linejoin:round;stroke-miterlimit:10;stroke-dasharray:none;stroke-opacity:1"
         d="m 261.22,42.5 h 2.74" /><path
         id="path1143"
         style="fill:none;stroke:#333333;stroke-width:1.07;stroke-linecap:butt;stroke-linejoin:round;stroke-miterlimit:10;stroke-dasharray:none;stroke-opacity:1"
         d="m 261.22,87.77 h 2.74" /><path
         id="path1145"
         style="fill:none;stroke:#333333;stroke-width:1.07;stroke-linecap:butt;stroke-linejoin:round;stroke-miterlimit:10;stroke-dasharray:none;stroke-opacity:1"
         d="m 261.22,133.03 h 2.74" /><path
         id="path1147"
         style="fill:none;stroke:#333333;stroke-width:1.07;stroke-linecap:butt;stroke-linejoin:round;stroke-miterlimit:10;stroke-dasharray:none;stroke-opacity:1"
         d="m 261.22,178.3 h 2.74" /></g><g
       id="g1149" /><g
       id="g1151" /><g
       id="g1153" /><g
       id="g1155" /><g
       id="g1157" /><g
       id="g1159" /><g
       id="g1161" /><g
       id="g1163" /><g
       id="g1165" /><g
       transform="translate(-9)"
       id="g1167"><path
         id="path1169"
         style="fill:none;stroke:#333333;stroke-width:1.07;stroke-linecap:butt;stroke-linejoin:round;stroke-miterlimit:10;stroke-dasharray:none;stroke-opacity:1"
         d="M 279.34,32.46 V 35.2" /><path
         id="path1171"
         style="fill:none;stroke:#333333;stroke-width:1.07;stroke-linecap:butt;stroke-linejoin:round;stroke-miterlimit:10;stroke-dasharray:none;stroke-opacity:1"
         d="M 312.8,32.46 V 35.2" /><path
         id="path1173"
         style="fill:none;stroke:#333333;stroke-width:1.07;stroke-linecap:butt;stroke-linejoin:round;stroke-miterlimit:10;stroke-dasharray:none;stroke-opacity:1"
         d="M 346.26,32.46 V 35.2" /><path
         id="path1175"
         style="fill:none;stroke:#333333;stroke-width:1.07;stroke-linecap:butt;stroke-linejoin:round;stroke-miterlimit:10;stroke-dasharray:none;stroke-opacity:1"
         d="M 379.71,32.46 V 35.2" /><path
         id="path1177"
         style="fill:none;stroke:#333333;stroke-width:1.07;stroke-linecap:butt;stroke-linejoin:round;stroke-miterlimit:10;stroke-dasharray:none;stroke-opacity:1"
         d="M 413.17,32.46 V 35.2" /><path
         id="path1179"
         style="fill:none;stroke:#333333;stroke-width:1.07;stroke-linecap:butt;stroke-linejoin:round;stroke-miterlimit:10;stroke-dasharray:none;stroke-opacity:1"
         d="M 446.62,32.46 V 35.2" /></g><g
       id="g1181" /><g
       transform="translate(-9)"
       id="g1183"><text
         id="text1187"
         style="font-variant:normal;font-weight:normal;font-size:8px;font-family:Helvetica;-inkscape-font-specification:Helvetica;writing-mode:lr-tb;fill:#000000;fill-opacity:1;fill-rule:nonzero;stroke:none"
         transform="matrix(1,0,0,-1,273.78,24.53)"><tspan
           id="tspan1185"
           sodipodi:role="line"
           y="0"
           x="0 4.448 6.6719999">0.0</tspan></text><text
         id="text1191"
         style="font-variant:normal;font-weight:normal;font-size:8px;font-family:Helvetica;-inkscape-font-specification:Helvetica;writing-mode:lr-tb;fill:#000000;fill-opacity:1;fill-rule:nonzero;stroke:none"
         transform="matrix(1,0,0,-1,307.24,24.53)"><tspan
           id="tspan1189"
           sodipodi:role="line"
           y="0"
           x="0 4.448 6.6719999">0.5</tspan></text><text
         id="text1195"
         style="font-variant:normal;font-weight:normal;font-size:8px;font-family:Helvetica;-inkscape-font-specification:Helvetica;writing-mode:lr-tb;fill:#000000;fill-opacity:1;fill-rule:nonzero;stroke:none"
         transform="matrix(1,0,0,-1,340.7,24.53)"><tspan
           id="tspan1193"
           sodipodi:role="line"
           y="0"
           x="0 4.448 6.6719999">1.0</tspan></text><text
         id="text1199"
         style="font-variant:normal;font-weight:normal;font-size:8px;font-family:Helvetica;-inkscape-font-specification:Helvetica;writing-mode:lr-tb;fill:#000000;fill-opacity:1;fill-rule:nonzero;stroke:none"
         transform="matrix(1,0,0,-1,374.15,24.53)"><tspan
           id="tspan1197"
           sodipodi:role="line"
           y="0"
           x="0 4.448 6.6719999">1.5</tspan></text><text
         id="text1203"
         style="font-variant:normal;font-weight:normal;font-size:8px;font-family:Helvetica;-inkscape-font-specification:Helvetica;writing-mode:lr-tb;fill:#000000;fill-opacity:1;fill-rule:nonzero;stroke:none"
         transform="matrix(1,0,0,-1,407.61,24.53)"><tspan
           id="tspan1201"
           sodipodi:role="line"
           y="0"
           x="0 4.448 6.6719999">2.0</tspan></text><text
         id="text1207"
         style="font-variant:normal;font-weight:normal;font-size:8px;font-family:Helvetica;-inkscape-font-specification:Helvetica;writing-mode:lr-tb;fill:#000000;fill-opacity:1;fill-rule:nonzero;stroke:none"
         transform="matrix(1,0,0,-1,441.06,24.53)"><tspan
           id="tspan1205"
           sodipodi:role="line"
           y="0"
           x="0 4.448 6.6719999">2.5</tspan></text></g><g
       id="g1209" /><g
       id="g1211" /><g
       id="g1213" /><g
       id="g1215" /><g
       id="g1217" /><g
       transform="translate(-9)"
       id="g1219"><text
         id="text1223"
         style="font-variant:normal;font-weight:normal;font-size:10px;font-family:Symbol;-inkscape-font-specification:Symbol;writing-mode:lr-tb;fill:#000000;fill-opacity:1;fill-rule:nonzero;stroke:none"
         transform="matrix(1,0,0,-1,356.89,7.75)"><tspan
           id="tspan1221"
           y="0"
           x="0">λ</tspan></text><text
         id="text1227"
         style="font-variant:normal;font-weight:normal;font-size:10px;font-family:Helvetica;-inkscape-font-specification:Helvetica;writing-mode:lr-tb;fill:#000000;fill-opacity:1;fill-rule:nonzero;stroke:none"
         transform="matrix(1,0,0,-1,357.29,13.22)"><tspan
           id="tspan1225"
           y="0"
           x="0">^</tspan></text></g><g
       id="g1229" /><g
       id="g1237" /><g
       id="g1239" /><g
       id="g1241" /><g
       id="g1243" /><g
       id="g1245" /><g
       transform="translate(7.5,1.5)"
       id="g1247"><text
         id="text1251"
         style="font-variant:normal;font-weight:normal;font-size:10px;font-family:Helvetica;-inkscape-font-specification:Helvetica;writing-mode:lr-tb;fill:#000000;fill-opacity:1;fill-rule:nonzero;stroke:none"
         transform="matrix(1,0,0,-1,263.96,203.34)"><tspan
           id="tspan1249"
           sodipodi:role="line"
           y="0"
           x="0 5.3600001 10.11 15.67 18.9 24.459999 30.02 35.580002 38.360001 43.360001 48.16 53.52 60.740002 66.300003 71.860001 76.860001 81.860001 84.639999 90.199997 92.980003 95.760002 101.32 103.54 108.54 111.32 114.8 117.02 122.38 127.94 130.72 132.94 138.5 144.06">average skewness of distributions</tspan></text></g><g
       id="g1253" /><g
       id="g1255" /><g
       id="g1257" /><g
       id="g1259" /><g
       id="g1261" /><g
       id="g1263" /><g
       id="g1265" /><text
       xml:space="preserve"
       style="font-style:normal;font-weight:normal;font-size:7px;line-height:1.25;font-family:sans-serif;fill:#000000;fill-opacity:1;stroke:none;stroke-width:0.75"
       x="126.13635"
       y="-164.30809"
       id="text1044"
       transform="scale(1,-1)"><tspan
         sodipodi:role="line"
         id="tspan1042"
         style="font-style:italic;font-variant:normal;font-weight:normal;font-stretch:normal;font-size:7px;font-family:sans-serif;-inkscape-font-specification:'sans-serif Italic';fill:#ff0000;stroke-width:0.75"
         x="126.13635"
         y="-164.30809">waiting on the results</tspan><tspan
         sodipodi:role="line"
         style="font-style:italic;font-variant:normal;font-weight:normal;font-stretch:normal;font-size:7px;font-family:sans-serif;-inkscape-font-specification:'sans-serif Italic';fill:#ff0000;stroke-width:0.75"
         x="126.13635"
         y="-155.55809"
         id="tspan1046">for this panel</tspan></text><text
       transform="scale(1,-1)"
       id="text1047"
       y="-204.74724"
       x="36.151516"
       style="font-size:9.99998px;line-height:1.25;font-family:Hel;-inkscape-font-specification:Hel;stroke-width:0.75"
       xml:space="preserve"><tspan
         y="-204.74724"
         x="36.151516"
         style="font-style:normal;font-variant:normal;font-weight:normal;font-stretch:normal;font-family:Helvetica;-inkscape-font-specification:Helvetica;stroke-width:0.75"
         id="tspan1045"
         sodipodi:role="line">(a)</tspan></text><text
       transform="scale(1,-1)"
       xml:space="preserve"
       style="font-size:9.99998px;line-height:1.25;font-family:Hel;-inkscape-font-specification:Hel;stroke-width:0.75"
       x="252.53546"
       y="-204.74724"
       id="text1047-4"><tspan
         sodipodi:role="line"
         id="tspan1045-7"
         style="font-style:normal;font-variant:normal;font-weight:normal;font-stretch:normal;font-family:Helvetica;-inkscape-font-specification:Helvetica;stroke-width:0.75"
         x="252.53546"
         y="-204.74724">(b)</tspan></text></g></svg>
