<?xml version="1.0" encoding="UTF-8" standalone="no"?>
<svg
   xmlns:svg="http://www.w3.org/2000/svg"
   xmlns="http://www.w3.org/2000/svg"
   xmlns:sodipodi="http://sodipodi.sourceforge.net/DTD/sodipodi-0.dtd"
   xmlns:inkscape="http://www.inkscape.org/namespaces/inkscape"
   inkscape:version="1.1-dev (48d18c81, 2020-07-08)"
   sodipodi:docname="WAIC-plot.svg"
   viewBox="0 0 713.15668 384"
   height="384"
   width="713.15668"
   xml:space="preserve"
   id="svg8"
   version="1.1"><defs
     id="defs12"><clipPath
       id="clipPath26"
       clipPathUnits="userSpaceOnUse"><path
         id="path24"
         d="M 37.44,37.44 H 354.45 V 257.76 H 37.44 Z" /></clipPath><clipPath
       id="clipPath56"
       clipPathUnits="userSpaceOnUse"><path
         id="path54"
         d="M 84.38,37.44 H 354.44 V 257.76 H 84.38 Z" /></clipPath><clipPath
       id="clipPath110"
       clipPathUnits="userSpaceOnUse"><path
         id="path108"
         d="M 0,0 H 370.29 V 288 H 0 Z" /></clipPath><clipPath
       id="clipPath122"
       clipPathUnits="userSpaceOnUse"><path
         id="path120"
         d="M 37.44,37.44 H 354.45 V 257.76 H 37.44 Z" /></clipPath><clipPath
       id="clipPath140"
       clipPathUnits="userSpaceOnUse"><path
         id="path138"
         d="M 37.44,37.44 H 354.45 V 257.76 H 37.44 Z" /></clipPath><clipPath
       id="clipPath170"
       clipPathUnits="userSpaceOnUse"><path
         id="path168"
         d="M 407.73,37.44 H 560.16 V 257.76 H 407.73 Z" /></clipPath><clipPath
       id="clipPath180"
       clipPathUnits="userSpaceOnUse"><path
         id="path178"
         d="M 407.73,37.44 H 560.16 V 257.76 H 407.73 Z" /></clipPath><clipPath
       id="clipPath246"
       clipPathUnits="userSpaceOnUse"><path
         id="path244"
         d="M 370.29,0 H 576 V 288 H 370.29 Z" /></clipPath><clipPath
       id="clipPath258"
       clipPathUnits="userSpaceOnUse"><path
         id="path256"
         d="M 407.73,37.44 H 560.16 V 257.76 H 407.73 Z" /></clipPath><clipPath
       id="clipPath276"
       clipPathUnits="userSpaceOnUse"><path
         id="path274"
         d="M 407.73,37.44 H 560.16 V 257.76 H 407.73 Z" /></clipPath></defs><sodipodi:namedview
     inkscape:current-layer="g14"
     inkscape:window-maximized="0"
     inkscape:window-y="25"
     inkscape:window-x="0"
     inkscape:cy="346.68796"
     inkscape:cx="457.35389"
     inkscape:zoom="0.51054556"
     fit-margin-bottom="0"
     fit-margin-right="0"
     fit-margin-left="0"
     fit-margin-top="0"
     showgrid="false"
     id="namedview10"
     inkscape:window-height="738"
     inkscape:window-width="1306"
     inkscape:pageshadow="2"
     inkscape:pageopacity="0"
     guidetolerance="10"
     gridtolerance="10"
     objecttolerance="10"
     borderopacity="1"
     bordercolor="#666666"
     pagecolor="#ffffff" /><g
     transform="matrix(1.3333333,0,0,-1.3333333,0,383.99999)"
     inkscape:label="WAIC-plot"
     inkscape:groupmode="layer"
     id="g14"><g
       id="g20"><g
         clip-path="url(#clipPath26)"
         id="g22" /></g><g
       id="g132" /><g
       id="g164"><g
         clip-path="url(#clipPath170)"
         id="g166" /></g><g
       id="g172" /><g
       id="g268" /><g
       id="g646"><g
         id="g16"
         transform="scale(0.92858946,1)"><path
           d="M 0,0 H 576 V 288 H 0 Z"
           style="fill:#ffffff;fill-opacity:1;fill-rule:nonzero;stroke:none"
           id="path18" /></g><text
         y="-77.199997"
         x="24.360329"
         id="text32"
         style="font-variant:normal;font-weight:normal;font-size:12px;font-family:Helvetica;-inkscape-font-specification:Helvetica;writing-mode:lr-tb;fill:#000000;fill-opacity:1;fill-rule:nonzero;stroke:none"
         transform="scale(1,-1)"><tspan
           id="tspan30"
           sodipodi:role="line"
           y="-77.199997"
           x="24.360329 31.03233 37.70433 43.70433 50.376331 53.040329 55.70433 62.376328">baseline</tspan></text><text
         y="-121.26"
         x="20.640001"
         id="text36"
         style="font-variant:normal;font-weight:normal;font-size:12px;font-family:Helvetica;-inkscape-font-specification:Helvetica;writing-mode:lr-tb;fill:#000000;fill-opacity:1;fill-rule:nonzero;stroke:none"
         transform="scale(1,-1)"><tspan
           id="tspan34"
           sodipodi:role="line"
           y="-121.26"
           x="20.640001 23.615999 30.288 33.624001 40.632 43.967999 50.639999 53.304001 55.967999 62.639999">fat−tailed</tspan></text><text
         y="-165.32001"
         x="29.231998"
         id="text40"
         style="font-variant:normal;font-weight:normal;font-size:12px;font-family:Helvetica;-inkscape-font-specification:Helvetica;writing-mode:lr-tb;fill:#000000;fill-opacity:1;fill-rule:nonzero;stroke:none"
         transform="scale(1,-1)"><tspan
           id="tspan38"
           sodipodi:role="line"
           y="-165.32001"
           x="29.231998 35.231998 40.992001 47.424 55.967999 62.639999">skewed</tspan></text><text
         y="-216.59"
         x="20.640001"
         id="text44"
         style="font-variant:normal;font-weight:normal;font-size:12px;font-family:Helvetica;-inkscape-font-specification:Helvetica;writing-mode:lr-tb;fill:#000000;fill-opacity:1;fill-rule:nonzero;stroke:none"
         transform="scale(1,-1)"><tspan
           id="tspan42"
           sodipodi:role="line"
           y="-216.59"
           x="20.640001 23.615999 30.288 33.624001 40.632 43.967999 50.639999 53.304001 55.967999 62.639999">fat−tailed</tspan></text><text
         y="-202.19"
         x="5.880002"
         id="text48"
         style="font-variant:normal;font-weight:normal;font-size:12px;font-family:Helvetica;-inkscape-font-specification:Helvetica;writing-mode:lr-tb;fill:#000000;fill-opacity:1;fill-rule:nonzero;stroke:none"
         transform="scale(1,-1)"><tspan
           id="tspan46"
           sodipodi:role="line"
           y="-202.19"
           x="5.880002 12.552002 19.224003 25.896002 29.232 35.232002 40.992001 47.424 55.968002 62.639999">and skewed</tspan></text><text
         transform="scale(1,-1)"
         id="text296"
         y="-271.37305"
         x="83.172966"
         style="font-size:12px;line-height:1.25;font-family:Hel;-inkscape-font-specification:Hel;stroke-width:0.75"
         xml:space="preserve"><tspan
           y="-271.37305"
           x="83.172966"
           style="font-style:normal;font-variant:normal;font-weight:normal;font-stretch:normal;font-size:12px;font-family:Helvetica;-inkscape-font-specification:Helvetica;stroke-width:0.75"
           id="tspan294"
           sodipodi:role="line">(a) WAIC</tspan></text><text
         transform="scale(1,-1)"
         xml:space="preserve"
         style="font-size:12px;line-height:1.25;font-family:Hel;-inkscape-font-specification:Hel;stroke-width:0.75"
         x="372.02298"
         y="-271.52246"
         id="text296-0"><tspan
           sodipodi:role="line"
           id="tspan294-5"
           style="font-style:normal;font-variant:normal;font-weight:normal;font-stretch:normal;font-size:12px;font-family:Helvetica;-inkscape-font-specification:Helvetica;stroke-width:0.75"
           x="372.02298"
           y="-271.52246">(a) Akaike weights</tspan></text><g
         id="g50"><g
           id="g52"
           clip-path="url(#clipPath56)"><path
             d="M 84.38,81.5 H 354.45"
             style="fill:none;stroke:#bebebe;stroke-width:0.75;stroke-linecap:round;stroke-linejoin:round;stroke-miterlimit:10;stroke-dasharray:0, 3;stroke-dashoffset:0;stroke-opacity:1"
             id="path58" /><path
             d="M 84.38,125.57 H 354.45"
             style="fill:none;stroke:#bebebe;stroke-width:0.75;stroke-linecap:round;stroke-linejoin:round;stroke-miterlimit:10;stroke-dasharray:0, 3;stroke-dashoffset:0;stroke-opacity:1"
             id="path60" /><path
             d="M 84.38,169.63 H 354.45"
             style="fill:none;stroke:#bebebe;stroke-width:0.75;stroke-linecap:round;stroke-linejoin:round;stroke-miterlimit:10;stroke-dasharray:0, 3;stroke-dashoffset:0;stroke-opacity:1"
             id="path62" /><path
             d="M 84.38,213.7 H 354.45"
             style="fill:none;stroke:#bebebe;stroke-width:0.75;stroke-linecap:round;stroke-linejoin:round;stroke-miterlimit:10;stroke-dasharray:0, 3;stroke-dashoffset:0;stroke-opacity:1"
             id="path64" /><path
             d="m 185.75,81.5 c 0,1.49 1.21,2.7 2.7,2.7 1.48,0 2.7,-1.21 2.7,-2.7 0,-1.48 -1.22,-2.7 -2.7,-2.7 -1.49,0 -2.7,1.22 -2.7,2.7"
             style="fill:#000000;fill-opacity:1;fill-rule:nonzero;stroke:none"
             id="path66" /><path
             d="m 132.01,125.57 c 0,1.48 1.21,2.7 2.7,2.7 1.48,0 2.7,-1.22 2.7,-2.7 0,-1.49 -1.22,-2.7 -2.7,-2.7 -1.49,0 -2.7,1.21 -2.7,2.7"
             style="fill:#000000;fill-opacity:1;fill-rule:nonzero;stroke:none"
             id="path68" /><path
             d="m 116.78,169.63 c 0,1.49 1.22,2.7 2.7,2.7 1.49,0 2.7,-1.21 2.7,-2.7 0,-1.48 -1.21,-2.7 -2.7,-2.7 -1.48,0 -2.7,1.22 -2.7,2.7"
             style="fill:#000000;fill-opacity:1;fill-rule:nonzero;stroke:none"
             id="path70" /><path
             d="m 91.69,213.7 c 0,1.48 1.21,2.7 2.7,2.7 1.48,0 2.7,-1.22 2.7,-2.7 0,-1.49 -1.22,-2.7 -2.7,-2.7 -1.49,0 -2.7,1.21 -2.7,2.7"
             style="fill:#000000;fill-opacity:1;fill-rule:nonzero;stroke:none"
             id="path72" /></g></g><g
         id="g74"><path
           d="M 111.05,37.44 H 317.24"
           style="fill:none;stroke:#000000;stroke-width:0.75;stroke-linecap:round;stroke-linejoin:round;stroke-miterlimit:10;stroke-dasharray:none;stroke-opacity:1"
           id="path76" /><path
           d="M 111.05,37.44 V 33.03"
           style="fill:none;stroke:#000000;stroke-width:0.75;stroke-linecap:round;stroke-linejoin:round;stroke-miterlimit:10;stroke-dasharray:none;stroke-opacity:1"
           id="path78" /><path
           d="M 193.53,37.44 V 33.03"
           style="fill:none;stroke:#000000;stroke-width:0.75;stroke-linecap:round;stroke-linejoin:round;stroke-miterlimit:10;stroke-dasharray:none;stroke-opacity:1"
           id="path82" /><path
           d="M 276,37.44 V 33.03"
           style="fill:none;stroke:#000000;stroke-width:0.75;stroke-linecap:round;stroke-linejoin:round;stroke-miterlimit:10;stroke-dasharray:none;stroke-opacity:1"
           id="path86" /><text
           transform="matrix(1,0,0,-1,94.37,18.72)"
           style="font-variant:normal;font-weight:normal;font-size:12px;font-family:Helvetica;-inkscape-font-specification:Helvetica;writing-mode:lr-tb;fill:#000000;fill-opacity:1;fill-rule:nonzero;stroke:none"
           id="text92"><tspan
             x="0 6.6719999 13.344 20.016001 26.688"
             y="0"
             sodipodi:role="line"
             id="tspan90">98000</tspan></text><text
           transform="matrix(1,0,0,-1,176.85,18.72)"
           style="font-variant:normal;font-weight:normal;font-size:12px;font-family:Helvetica;-inkscape-font-specification:Helvetica;writing-mode:lr-tb;fill:#000000;fill-opacity:1;fill-rule:nonzero;stroke:none"
           id="text96"><tspan
             x="0 6.6719999 13.344 20.016001 26.688"
             y="0"
             sodipodi:role="line"
             id="tspan94">99000</tspan></text><text
           transform="matrix(1,0,0,-1,255.99,18.72)"
           style="font-variant:normal;font-weight:normal;font-size:12px;font-family:Helvetica;-inkscape-font-specification:Helvetica;writing-mode:lr-tb;fill:#000000;fill-opacity:1;fill-rule:nonzero;stroke:none"
           id="text100"><tspan
             x="0 6.6719999 13.344 20.016001 26.688 33.360001"
             y="0"
             sodipodi:role="line"
             id="tspan98">100000</tspan></text><path
           d="M 84.38,37.44 H 354.45 V 257.76 H 84.38 V 37.44"
           style="fill:none;stroke:#000000;stroke-width:0.75;stroke-linecap:round;stroke-linejoin:round;stroke-miterlimit:10;stroke-dasharray:none;stroke-opacity:1"
           id="path102" /></g><g
         id="g104"><g
           id="g106"
           clip-path="url(#clipPath110)"><text
             transform="matrix(1,0,0,-1,195.58,4.32)"
             style="font-variant:normal;font-weight:normal;font-size:12px;font-family:Helvetica;-inkscape-font-specification:Helvetica;writing-mode:lr-tb;fill:#000000;fill-opacity:1;fill-rule:nonzero;stroke:none"
             id="text114"><tspan
               x="0 6.6719999 12.984 18.983999 21.648001 28.32 34.992001 40.992001"
               y="0"
               sodipodi:role="line"
               id="tspan112">deviance</tspan></text></g></g><g
         id="g116"><g
           id="g118"
           clip-path="url(#clipPath122)"><path
             d="m 298.82,81.5 c 0,1.49 1.22,2.7 2.7,2.7 1.49,0 2.7,-1.21 2.7,-2.7 0,-1.48 -1.21,-2.7 -2.7,-2.7 -1.48,0 -2.7,1.22 -2.7,2.7"
             style="fill:none;stroke:#000000;stroke-width:0.75;stroke-linecap:round;stroke-linejoin:round;stroke-miterlimit:10;stroke-dasharray:none;stroke-opacity:1"
             id="path124" /><path
             d="m 266.56,125.57 c 0,1.48 1.22,2.7 2.7,2.7 1.49,0 2.7,-1.22 2.7,-2.7 0,-1.49 -1.21,-2.7 -2.7,-2.7 -1.48,0 -2.7,1.21 -2.7,2.7"
             style="fill:none;stroke:#000000;stroke-width:0.75;stroke-linecap:round;stroke-linejoin:round;stroke-miterlimit:10;stroke-dasharray:none;stroke-opacity:1"
             id="path126" /><path
             d="m 250.68,169.63 c 0,1.49 1.22,2.7 2.7,2.7 1.49,0 2.7,-1.21 2.7,-2.7 0,-1.48 -1.21,-2.7 -2.7,-2.7 -1.48,0 -2.7,1.22 -2.7,2.7"
             style="fill:none;stroke:#000000;stroke-width:0.75;stroke-linecap:round;stroke-linejoin:round;stroke-miterlimit:10;stroke-dasharray:none;stroke-opacity:1"
             id="path128" /><path
             d="m 238.06,213.7 c 0,1.48 1.22,2.7 2.7,2.7 1.49,0 2.7,-1.22 2.7,-2.7 0,-1.49 -1.21,-2.7 -2.7,-2.7 -1.48,0 -2.7,1.21 -2.7,2.7"
             style="fill:none;stroke:#000000;stroke-width:0.75;stroke-linecap:round;stroke-linejoin:round;stroke-miterlimit:10;stroke-dasharray:none;stroke-opacity:1"
             id="path130" /></g></g><g
         id="g134"><g
           id="g136"
           clip-path="url(#clipPath140)"><path
             d="m 198.1,213.7 h 85.32"
             style="fill:none;stroke:#000000;stroke-width:0.56;stroke-linecap:round;stroke-linejoin:round;stroke-miterlimit:10;stroke-dasharray:none;stroke-opacity:1"
             id="path142" /><path
             d="m 210.63,169.63 h 85.5"
             style="fill:none;stroke:#000000;stroke-width:0.56;stroke-linecap:round;stroke-linejoin:round;stroke-miterlimit:10;stroke-dasharray:none;stroke-opacity:1"
             id="path144" /><path
             d="m 226.5,125.57 h 85.53"
             style="fill:none;stroke:#000000;stroke-width:0.56;stroke-linecap:round;stroke-linejoin:round;stroke-miterlimit:10;stroke-dasharray:none;stroke-opacity:1"
             id="path146" /><path
             d="m 258.6,81.5 h 85.84"
             style="fill:none;stroke:#000000;stroke-width:0.56;stroke-linecap:round;stroke-linejoin:round;stroke-miterlimit:10;stroke-dasharray:none;stroke-opacity:1"
             id="path148" /><path
             d="M 240.76,37.44 V 257.76"
             style="fill:none;stroke:#000000;stroke-width:0.38;stroke-linecap:round;stroke-linejoin:round;stroke-miterlimit:10;stroke-dasharray:none;stroke-opacity:0.502"
             id="path150" /><path
             d="m 253.38,193.76 1.82,-3.15 h -3.63 l 1.81,3.15"
             style="fill:none;stroke:#000000;stroke-width:0.75;stroke-linecap:round;stroke-linejoin:round;stroke-miterlimit:10;stroke-dasharray:none;stroke-opacity:0.502"
             id="path152" /><path
             d="m 251.44,191.66 h 3.89"
             style="fill:none;stroke:#000000;stroke-width:0.38;stroke-linecap:round;stroke-linejoin:round;stroke-miterlimit:10;stroke-dasharray:none;stroke-opacity:0.502"
             id="path154" /><path
             d="m 269.26,149.7 1.82,-3.15 h -3.63 l 1.81,3.15"
             style="fill:none;stroke:#000000;stroke-width:0.75;stroke-linecap:round;stroke-linejoin:round;stroke-miterlimit:10;stroke-dasharray:none;stroke-opacity:0.502"
             id="path156" /><path
             d="m 266.2,147.6 h 6.13"
             style="fill:none;stroke:#000000;stroke-width:0.38;stroke-linecap:round;stroke-linejoin:round;stroke-miterlimit:10;stroke-dasharray:none;stroke-opacity:0.502"
             id="path158" /><path
             d="m 301.52,105.64 1.82,-3.15 h -3.64 l 1.82,3.15"
             style="fill:none;stroke:#000000;stroke-width:0.75;stroke-linecap:round;stroke-linejoin:round;stroke-miterlimit:10;stroke-dasharray:none;stroke-opacity:0.502"
             id="path160" /><path
             d="m 297.11,103.54 h 8.83"
             style="fill:none;stroke:#000000;stroke-width:0.38;stroke-linecap:round;stroke-linejoin:round;stroke-miterlimit:10;stroke-dasharray:none;stroke-opacity:0.502"
             id="path162" /></g></g><g
         id="g174"
         transform="translate(-34.5)"><g
           id="g176"
           clip-path="url(#clipPath180)"><path
             d="M 407.73,81.5 H 560.16"
             style="fill:none;stroke:#bebebe;stroke-width:0.75;stroke-linecap:round;stroke-linejoin:round;stroke-miterlimit:10;stroke-dasharray:0, 3;stroke-dashoffset:0;stroke-opacity:1"
             id="path182" /><path
             d="M 407.73,125.57 H 560.16"
             style="fill:none;stroke:#bebebe;stroke-width:0.75;stroke-linecap:round;stroke-linejoin:round;stroke-miterlimit:10;stroke-dasharray:0, 3;stroke-dashoffset:0;stroke-opacity:1"
             id="path184" /><path
             d="M 407.73,169.63 H 560.16"
             style="fill:none;stroke:#bebebe;stroke-width:0.75;stroke-linecap:round;stroke-linejoin:round;stroke-miterlimit:10;stroke-dasharray:0, 3;stroke-dashoffset:0;stroke-opacity:1"
             id="path186" /><path
             d="M 407.73,213.7 H 560.16"
             style="fill:none;stroke:#bebebe;stroke-width:0.75;stroke-linecap:round;stroke-linejoin:round;stroke-miterlimit:10;stroke-dasharray:0, 3;stroke-dashoffset:0;stroke-opacity:1"
             id="path188" /><path
             d="m 410.67,81.5 c 0,1.49 1.22,2.7 2.7,2.7 1.49,0 2.7,-1.21 2.7,-2.7 0,-1.48 -1.21,-2.7 -2.7,-2.7 -1.48,0 -2.7,1.22 -2.7,2.7"
             style="fill:#000000;fill-opacity:1;fill-rule:nonzero;stroke:none"
             id="path190" /><path
             d="m 410.67,125.57 c 0,1.48 1.22,2.7 2.7,2.7 1.49,0 2.7,-1.22 2.7,-2.7 0,-1.49 -1.21,-2.7 -2.7,-2.7 -1.48,0 -2.7,1.21 -2.7,2.7"
             style="fill:#000000;fill-opacity:1;fill-rule:nonzero;stroke:none"
             id="path192" /><path
             d="m 410.67,169.63 c 0,1.49 1.22,2.7 2.7,2.7 1.49,0 2.7,-1.21 2.7,-2.7 0,-1.48 -1.21,-2.7 -2.7,-2.7 -1.48,0 -2.7,1.22 -2.7,2.7"
             style="fill:#000000;fill-opacity:1;fill-rule:nonzero;stroke:none"
             id="path194" /><path
             d="m 551.81,213.7 c 0,1.48 1.22,2.7 2.7,2.7 1.49,0 2.7,-1.22 2.7,-2.7 0,-1.49 -1.21,-2.7 -2.7,-2.7 -1.48,0 -2.7,1.21 -2.7,2.7"
             style="fill:#000000;fill-opacity:1;fill-rule:nonzero;stroke:none"
             id="path196" /></g></g><path
         id="path200"
         style="fill:none;stroke:#000000;stroke-width:0.75;stroke-linecap:round;stroke-linejoin:round;stroke-miterlimit:10;stroke-dasharray:none;stroke-opacity:1"
         d="M 378.87,37.44 H 520.01" /><path
         id="path204"
         style="fill:none;stroke:#000000;stroke-width:0.75;stroke-linecap:round;stroke-linejoin:round;stroke-miterlimit:10;stroke-dasharray:none;stroke-opacity:1"
         d="M 407.1,37.44 V 34.39" /><path
         id="path208"
         style="fill:none;stroke:#000000;stroke-width:0.75;stroke-linecap:round;stroke-linejoin:round;stroke-miterlimit:10;stroke-dasharray:none;stroke-opacity:1"
         d="M 463.56,37.44 V 34.39" /><path
         id="path212"
         style="fill:none;stroke:#000000;stroke-width:0.75;stroke-linecap:round;stroke-linejoin:round;stroke-miterlimit:10;stroke-dasharray:none;stroke-opacity:1"
         d="M 520.01,37.44 V 34.39" /><text
         id="text220"
         style="font-variant:normal;font-weight:normal;font-size:12px;font-family:Helvetica;-inkscape-font-specification:Helvetica;writing-mode:lr-tb;fill:#000000;fill-opacity:1;fill-rule:nonzero;stroke:none"
         transform="scale(1,-1)"
         x="398.76001"
         y="-18.719999"><tspan
           id="tspan218"
           sodipodi:role="line"
           y="-18.719999"
           x="398.76001 405.43201 408.76801">0.2</tspan></text><text
         id="text228"
         style="font-variant:normal;font-weight:normal;font-size:12px;font-family:Helvetica;-inkscape-font-specification:Helvetica;writing-mode:lr-tb;fill:#000000;fill-opacity:1;fill-rule:nonzero;stroke:none"
         transform="scale(1,-1)"
         x="455.22"
         y="-18.719999"><tspan
           id="tspan226"
           sodipodi:role="line"
           y="-18.719999"
           x="455.22 461.892 465.228">0.6</tspan></text><text
         id="text236"
         style="font-variant:normal;font-weight:normal;font-size:12px;font-family:Helvetica;-inkscape-font-specification:Helvetica;writing-mode:lr-tb;fill:#000000;fill-opacity:1;fill-rule:nonzero;stroke:none"
         transform="scale(1,-1)"
         x="511.67001"
         y="-18.719999"><tspan
           id="tspan234"
           sodipodi:role="line"
           y="-18.719999"
           x="511.67001 518.34198 521.67798">1.0</tspan></text><path
         id="path238"
         style="fill:none;stroke:#000000;stroke-width:0.75;stroke-linecap:round;stroke-linejoin:round;stroke-miterlimit:10;stroke-dasharray:none;stroke-opacity:1"
         d="M 373.23,37.44 H 525.66 V 257.76 H 373.23 V 37.44" /><g
         id="g240"
         transform="translate(-34.5)"><g
           id="g242"
           clip-path="url(#clipPath246)"><text
             transform="matrix(1,0,0,-1,460.11,4.32)"
             style="font-variant:normal;font-weight:normal;font-size:12px;font-family:Helvetica;-inkscape-font-specification:Helvetica;writing-mode:lr-tb;fill:#000000;fill-opacity:1;fill-rule:nonzero;stroke:none"
             id="text250"><tspan
               x="0 6.6719999 12.984 18.983999 21.648001 28.32 34.992001 40.992001"
               y="0"
               sodipodi:role="line"
               id="tspan248">deviance</tspan></text></g></g><g
         id="g252"
         transform="translate(-34.5)"><g
           id="g254"
           clip-path="url(#clipPath258)"><path
             d="m 410.67,81.5 c 0,1.49 1.22,2.7 2.7,2.7 1.49,0 2.7,-1.21 2.7,-2.7 0,-1.48 -1.21,-2.7 -2.7,-2.7 -1.48,0 -2.7,1.22 -2.7,2.7"
             style="fill:none;stroke:#000000;stroke-width:0.75;stroke-linecap:round;stroke-linejoin:round;stroke-miterlimit:10;stroke-dasharray:none;stroke-opacity:1"
             id="path260" /><path
             d="m 410.67,125.57 c 0,1.48 1.22,2.7 2.7,2.7 1.49,0 2.7,-1.22 2.7,-2.7 0,-1.49 -1.21,-2.7 -2.7,-2.7 -1.48,0 -2.7,1.21 -2.7,2.7"
             style="fill:none;stroke:#000000;stroke-width:0.75;stroke-linecap:round;stroke-linejoin:round;stroke-miterlimit:10;stroke-dasharray:none;stroke-opacity:1"
             id="path262" /><path
             d="m 410.67,169.63 c 0,1.49 1.22,2.7 2.7,2.7 1.49,0 2.7,-1.21 2.7,-2.7 0,-1.48 -1.21,-2.7 -2.7,-2.7 -1.48,0 -2.7,1.22 -2.7,2.7"
             style="fill:none;stroke:#000000;stroke-width:0.75;stroke-linecap:round;stroke-linejoin:round;stroke-miterlimit:10;stroke-dasharray:none;stroke-opacity:1"
             id="path264" /><path
             d="m 551.81,213.7 c 0,1.48 1.22,2.7 2.7,2.7 1.49,0 2.7,-1.22 2.7,-2.7 0,-1.49 -1.21,-2.7 -2.7,-2.7 -1.48,0 -2.7,1.21 -2.7,2.7"
             style="fill:none;stroke:#000000;stroke-width:0.75;stroke-linecap:round;stroke-linejoin:round;stroke-miterlimit:10;stroke-dasharray:none;stroke-opacity:1"
             id="path266" /></g></g><g
         id="g270"
         transform="translate(-34.5)"><g
           id="g272"
           clip-path="url(#clipPath276)"><path
             d="m 554.51,213.7 v 0"
             style="fill:none;stroke:#000000;stroke-width:0.56;stroke-linecap:round;stroke-linejoin:round;stroke-miterlimit:10;stroke-dasharray:none;stroke-opacity:1"
             id="path278" /><path
             d="m 413.37,169.63 v 0"
             style="fill:none;stroke:#000000;stroke-width:0.56;stroke-linecap:round;stroke-linejoin:round;stroke-miterlimit:10;stroke-dasharray:none;stroke-opacity:1"
             id="path280" /><path
             d="m 413.37,125.57 v 0"
             style="fill:none;stroke:#000000;stroke-width:0.56;stroke-linecap:round;stroke-linejoin:round;stroke-miterlimit:10;stroke-dasharray:none;stroke-opacity:1"
             id="path282" /><path
             d="m 413.37,81.5 v 0"
             style="fill:none;stroke:#000000;stroke-width:0.56;stroke-linecap:round;stroke-linejoin:round;stroke-miterlimit:10;stroke-dasharray:none;stroke-opacity:1"
             id="path284" /><path
             d="M 554.51,37.44 V 257.76"
             style="fill:none;stroke:#000000;stroke-width:0.38;stroke-linecap:round;stroke-linejoin:round;stroke-miterlimit:10;stroke-dasharray:none;stroke-opacity:0.502"
             id="path286" /><path
             d="m 413.37,193.76 1.82,-3.15 h -3.64 l 1.82,3.15"
             style="fill:none;stroke:#000000;stroke-width:0.75;stroke-linecap:round;stroke-linejoin:round;stroke-miterlimit:10;stroke-dasharray:none;stroke-opacity:0.502"
             id="path288" /><path
             d="m 413.37,149.7 1.82,-3.15 h -3.64 l 1.82,3.15"
             style="fill:none;stroke:#000000;stroke-width:0.75;stroke-linecap:round;stroke-linejoin:round;stroke-miterlimit:10;stroke-dasharray:none;stroke-opacity:0.502"
             id="path290" /><path
             d="m 413.37,105.64 1.82,-3.15 h -3.64 l 1.82,3.15"
             style="fill:none;stroke:#000000;stroke-width:0.75;stroke-linecap:round;stroke-linejoin:round;stroke-miterlimit:10;stroke-dasharray:none;stroke-opacity:0.502"
             id="path292" /></g></g></g></g></svg>
